<?xml version="1.0" encoding="utf-8"?>
<!-- Generator: Adobe Illustrator 20.1.0, SVG Export Plug-In . SVG Version: 6.00 Build 0)  -->
<svg version="1.1" id="Layer_1" xmlns="http://www.w3.org/2000/svg" xmlns:xlink="http://www.w3.org/1999/xlink" x="0px" y="0px"
	 viewBox="0 0 677.4 394.4" style="enable-background:new 0 0 677.4 394.4;" xml:space="preserve">
<style type="text/css">
	.st0{fill:#EC1C24;}
	.st1{fill:#231F20;}
</style>
<g>
	<g>
		<path class="st0" d="M122.1,92.8c-23.6-2.6-39.4,5.3-59,17.7c-17.7,11.1-13.4,21.4-12.3,40.4c-1,1.9-0.8,16.1-0.9,18.4
			c-1.4,27.9-0.3,55.8-0.7,82.6c-0.2,16.4,2.8,24.8,10.5,35.4c0.5,4.1,7.9,13.5,12.6,15.8c30.6,14.8,73.6,13.5,92.1-22
			c9.5-18.1,10.5-42.1,11.1-62.1c0.5-15.7,0.2-37.8-2.9-55.1C164.7,128.1,157.2,96.7,122.1,92.8z M127.7,237.7
			c-0.7,17.7,2.1,39.5-21,34.8c-10-2.1-13.6-24.4-13.7-31.9c0-2.4-2.7-19.6-3.5-21.4c-2.2-25.7-3-43-1.1-68.9
			c1.6-21.2,19.4-29.8,33.6-10.2c7.4,10.3,5,35.4,5.5,47.8c0.2,4.2-0.6,5.1,1.8,7.5c-1.3,2.7-0.4,10.3-1,13.3
			C126.3,218.8,128.1,227.3,127.7,237.7z"/>
		<path class="st0" d="M416,284.5c-2.3-19.6-0.2-39.3-2.7-59c-2.5-19.6-3.8-39.2-6.2-58.8c-2-16.7-1.7-32.8-1.3-49.6
			c0.3-11.1-0.5-13.6-7-15.1c-13.2-3.1-31-0.8-44.5-1.5c-8.6-0.4-15.6,2.3-18.9,9.9c-3.2,7.3-2,16.5-2.6,25.6
			c-3.8,14.8-4.7,31.7-9.6,45.7c-1.1,3.2-2.3,6.2-0.4,7.8c-0.8,3.7-1.4,5.1-2.3,8.7c-11.2-9.9-10.7-26.8-15.7-39.6
			c-5.7-14.2-10.4-31.3-15.6-45.8c-6.6-18.2-44.3-7.5-57.9-4.4c-0.7,0.2-1.2,0.4-1.8,0.7c-4.9-1.5-11.6,2.5-10,9.1
			c0.9,3.7,1.5,7.7,1.9,11.7c-1.7,1.2-2.8,6.6-2.8,9.3c0,26.4,1.2,49,4,75.1c-1.2,22.5,2.3,45.1,4.9,67.3c0.5,4.3,1,8,1.8,11.2
			c-0.4,0.6-2.1,3.3-2.6,3.8c-3.8,4.4-2.3,9.1,4.9,8.2c3.9-0.5,8.9,1.3,11.5,0.3c2,0.3,4.2,0.5,6.8,0.4c20-0.9,21.1,4.8,20.2-19.6
			c-1-28.1-2.3-58.4-3.4-86.5c2.8,4.1,4.7,10.8,7.2,14.9c0,0,2.2,3.6,2.2,3.6c0.9,11.7,7.4,17.2,12.7,27.4
			c0.7,15.3,10.7,31.3,13.7,46.3c2.4,12.1,6.4,11.9,27.2,16.1c3.6,0.7,8.8-1.1,9.3-5.3c0.5-3.3,0.9-8.2,1.1-13.2
			c2-0.7,2.5-3.8,2.9-6.4c0.1-0.7,0.2-1.4,0.3-2l0,0c0,0,0,0,0,0c0.1-1,0.2-2,0.1-3c1.3-30.8,13.5-58.8,17.8-88.8
			c0.6,1,1,1.7,1.1,1.8c4.9,15.3,3.3,46.9,4.6,64.9c0.7,10.2,2.4,22.6,4.8,31.7c-1.8,3.4-3.1,9,1,12.2c3.4,2.6,25.1,4.7,34.1,6.6
			c6.9,1.5,10.9-3.7,8.4-8.9C416.2,294.3,416.6,290.1,416,284.5z"/>
		<path class="st0" d="M543.2,188.7c-9,0.4-25.3-4.2-32.7,1.7c-5.2,4.1-3.5,14.4-4.4,24c-1.4,14.5-5.9,25,14.3,25
			c18.7,0-18.5,53.8-23.2,7c-0.8-8.1-0.9-15.8-2.4-23.9c-1.3-7.3-0.3-12.6-1.5-23.5c1.4-0.9,1.5-10.2,1.9-12.2
			c1.6-7.3-2.3-13.5-1.7-21.3c2.6-8.1,9.7-14.4,14.3-22.4c1.3-4.7,4.4-9.5,9.3-10.4c6.2-0.8,10,3.3,12.2,6.7
			c-0.2,0.7-0.3,1.5-0.2,2.5c0.8,10.9-1.7,21.9,1,32.5c1.1,4.3,6.8,6.3,10.6,4.9c13.2-4.9,24.9,2.7,26.3-13.5
			c1.5-18-0.7-43.9-12.8-57.9c-19.8-22.8-57.1-19.2-77.9-4.4c-37,22.9-26.9,74.9-26.5,110.5c-0.4,0.9,2,5.4,2,6.5
			c0,3.9-1.3,7.1-0.6,10.8c-1.1,1.2,0.1,3.3,0.2,5.3c2,23.2,6.2,49.7,26.2,63.3c13.6,9.2,24.6,9.3,38.2,4c2,1.3,7.1-1.5,10-3.3
			c4-2.5,5.7-1.5,9.4-4.5c0.3-0.2,5.7-5.9,6-6.2c7.3-4.8,10.8-5.1,18,2.1c4.6,4.6,12.2,4.9,12.1-1.8c-0.4-19.7-0.8-43.4-0.6-63.2
			c0.1-11,4.6-25.2-1.5-34.9C564.3,184.5,550.4,188.4,543.2,188.7z"/>
		<path class="st0" d="M663.3,252.4c-0.9-0.9-5.7-2.5-6.9-2.8c-9-3.4-5.2-2.4-4.5-10.5c1-10.7,4-20.7,5.2-30.9
			c0.6-5.3,0.8-10.6,1.1-15.8c1.8-1.3,1.7-6.9,1.8-9.5c0.2-4.8,1.6-5.9,1.6-10.6c3-18.9,6.3-60.4,4.6-62c-3-2.7-25.6-1.1-39.4-2.4
			c-3.9-0.4-7.5,0.1-9.5,2.1c-4.5-2.7-13.1-2.2-13.1,7.2c0,21.3,6.5,34,11.2,56.7c0.9,4.2,1.3,10.3,2.6,14.5
			c1.4,5.7,4.2,14.1,5.7,19.8c2,8.7,2.4,12.6,4.4,21.3c0,0.2,1,7.1,1.1,7.4c0.2,1.3,1.4,1.7,1.3,3.2c-10,2.4-13.5,6.2-12.2,22.7
			c1.1,13-0.6,20.4,0.2,29.3c-0.3,4,1.8,6.1,6.6,5.8c14.2-1,35.1,5,36.1,0c1.3-6,1.9-18.7,2.1-37.6
			C663.1,256.5,666,255.1,663.3,252.4z"/>
	</g>
	<g>
		<path class="st1" d="M66.3,74.4h18.5c0.3,0,0.5,0.3,0.5,0.9h3.5c0.3,0,0.5,0.4,0.5,1.1h4.2c0.3,0,0.5,0.3,0.5,0.9h1.6
			c0.3,0,0.5,0.3,0.5,0.8h2.5c0.3,0,0.5,0.4,0.5,1.1h4.2c0.3,0,0.5,0.3,0.5,0.9h1.5c0.6,0.7,1.1,1.1,1.4,1.1v0.9h4.4
			c0.3,0,0.5,0.3,0.5,0.9h2.5c0.3,0,0.5,0.3,0.5,0.8h2.4c0.3,0,0.5,0.4,0.5,1.1h1.6c0.3,0,0.5,0.3,0.5,0.9h2.4
			c0.3,0,0.5,0.3,0.5,0.9h2.5c0.3,0,0.5,0.4,0.5,1.1h2.4c0.3,0,0.5,0.3,0.5,0.9h1.4c0.6,0.7,1.1,1,1.4,1c0,0.7,0.4,1.1,1.1,1.1v0.7
			h1.7c0-0.6,0.1-0.9,0.5-0.9h0.2c0.3,0.1,0.5,0.2,0.5,0.4v1.3c0.6,0,0.9,0.4,0.9,1.1h2.5c0.2,0,0.3,0.3,0.3,0.9h1.6
			c0.3,0,0.5,0.3,0.5,0.8h1.4c0.3,0,0.5,0.4,0.5,1.1h1.5c0.3,0,0.5,0.3,0.5,0.9h2.5c0.3,0,0.5,0.3,0.5,0.9h1.6
			c0.4,0.7,0.6,1.1,0.8,1.1c0.5,0.5,0.8,0.8,1.1,0.8c0,0.4,0.5,0.8,1.4,1.3v1.6c0.6,0,0.9,0.1,0.9,0.4v1.6c0.5,0,0.9,0.3,1.1,0.8
			c0.5,0,0.9,0.3,1,0.9c0.5,0,0.7,0.2,0.7,0.4v2.5c0.6,0,0.9,0.1,0.9,0.4v2.3c0.9,0,1.4,0.3,1.4,0.9c0.5,0,0.7,0.1,0.7,0.4v2.5
			c0.8,0,1.1,0.3,1.1,1c0.5,0,0.9,0.3,1,0.9c0.5,0,0.7,0.1,0.7,0.4v2.5c0.6,0,0.9,0.1,0.9,0.4v2.3c0.9,0,1.4,0.3,1.4,0.9
			c0.5,0,0.7,0.2,0.7,0.4v2.3c0.7,0,1.1,0.4,1.1,1.1c0.5,0,0.8,0.1,0.8,0.4v2.5c0.6,0,0.9,0.1,0.9,0.4v1.2c0.6,0,0.9,0.1,0.9,0.4
			v3.6c0.9,0,1.4,0.3,1.4,0.9c0.5,0,0.7,0.1,0.7,0.3v5.3c0.6,0,0.9,0.1,0.9,0.3v3.3c0.5,0,0.8,0.2,0.8,0.4v2.3
			c0.8,0,1.1,0.1,1.1,0.4v4.3c0.6,0,0.9,0.1,0.9,0.4v4.2c0.6,0,0.9,0.2,0.9,0.4v8c0.8,0,1.1,0.1,1.1,0.4v7.2c0.6,0,0.9,0.1,0.9,0.4
			v1c0,0.3-0.3,0.4-0.9,0.4v0.9c0.6,0,0.9,0.1,0.9,0.4v8.1c0.5,0,0.8,0.1,0.8,0.3v4c0,0.3-0.3,0.4-0.8,0.4v1.7
			c0.5,0,0.8,0.2,0.8,0.4v7.2c0.7,0,1.1,0.1,1.1,0.4v3.9c0,0.3-0.4,0.4-1.1,0.4v1.8c0.7,0,1.1,0.1,1.1,0.4v3.9
			c0,0.3-0.4,0.4-1.1,0.4v0.9c0.7,0,1.1,0.1,1.1,0.4v1c0,0.3-0.4,0.4-1.1,0.4v2.9c0.7,0,1.1,0.1,1.1,0.4v0.2c0,0.3-0.4,0.4-1.1,0.4
			v1.7c0.7,0,1.1,0.2,1.1,0.4v1.1c0,0.3-0.4,0.4-1.1,0.4v3.5c0.7,0,1.1,0.1,1.1,0.4v0.4c0,0.3-0.4,0.4-1.1,0.4v7
			c0,0.3-0.3,0.4-0.8,0.4v2.6c0.5,0,0.8,0.1,0.8,0.4v0.2c0,0.3-0.3,0.4-0.8,0.4v10c0,0.3-0.3,0.4-0.9,0.4v1.8c0.6,0,0.9,0.1,0.9,0.4
			v1.1c0,0.2-0.3,0.3-0.9,0.3v4.5c0,0.3-0.4,0.4-1.1,0.4v4.3c0,0.3-0.3,0.4-0.9,0.4v1.2c0,0.3-0.3,0.4-0.9,0.4v5.2
			c0,0.3-0.4,0.4-1.1,0.4v2.5c0,0.3-0.3,0.4-0.8,0.4v2.3c-0.8,0.6-1.1,1-1.1,1.3h-0.7v2.5c-0.8,0.4-1.1,0.7-1.1,0.9
			c0,0.3-0.3,0.6-0.9,0.8c0,0.4-0.3,0.7-0.9,0.7v1.6c0,0.3-0.3,0.4-1,0.4v1.3c-0.6,0.3-0.9,0.7-0.9,1.2c-0.3,0.1-0.6,0.2-0.9,0.2
			v2.5c-0.9,0.5-1.4,1-1.4,1.3c-0.3,0-0.7,0.3-1.1,0.9c-0.2,0-0.4,0.3-0.8,1c-0.4,0-1.1,0.6-2,1.8c-0.2,0-0.5,0.4-0.9,1.1
			c-0.5,0-1,0.4-1.6,1.3c-0.6,0.3-0.9,0.7-0.9,1.2c-0.5,0.1-0.9,0.4-1.5,1.1l-1.1,0.9c0,0.6-0.5,1-1.4,1.3l-0.9,1.1
			c-0.6,0.4-0.9,0.9-1,1.5h-1.8c0,0.5-0.3,0.9-0.9,1.1c0,0.4-0.2,0.7-0.5,0.7h-1.6c0,0.7-0.2,1.1-0.5,1.1H142v1.2
			c0,0.3-0.1,0.4-0.5,0.4h-1.4c0,0.6-0.1,0.9-0.5,0.9h-1.6c0,0.7-0.1,1.1-0.3,1.1h-2.5c0,0.6-0.2,0.9-0.5,0.9h-1.6
			c0,0.6-0.2,0.9-0.5,0.9h-2.4c0,0.7-0.2,1.1-0.5,1.1h-1.4c0,0.5-0.2,0.8-0.5,0.8h-3.3c0,0.6-0.2,0.9-0.5,0.9H117
			c0,0.7-0.2,1.1-0.5,1.1h-3.1c-0.3,0-0.5-0.4-0.5-1.1h-9.5c0,0.7-0.2,1.1-0.5,1.1h-0.2c-0.3,0-0.5-0.4-0.5-1.1H99
			c-0.2,0-0.3-0.3-0.3-0.9h-8.3c-0.3,0-0.5-0.3-0.5-0.8h-1.6c-0.3,0-0.5-0.4-0.5-1.1h-2.4c-0.3,0-0.5-0.3-0.5-0.9h-2.5
			c-0.2,0-0.3-0.3-0.3-0.9h-1.4c-0.3,0-0.5-0.4-0.5-1.1h-1.6c-0.3,0-0.5-0.3-0.5-0.9h-1.7c0,0.6-0.2,0.9-0.5,0.9H76
			c-0.6-0.7-1.1-1.1-1.4-1.1V307H73c-0.3,0-0.5-0.3-0.5-0.9h-2.4c-0.3,0-0.5-0.4-0.5-1.1h-1.4c-0.3,0-0.5-0.3-0.5-0.9h-2.4
			c-0.3,0-0.5-0.3-0.5-0.9h-1.6c-0.3,0-0.5-0.4-0.5-1.1h-2.5c-0.5-0.7-0.9-1-1.2-1v-0.7h-1.6c-0.3,0-0.5-0.4-0.5-1.1h-1.6
			c-0.5-0.7-0.9-1.1-1.2-1.1v-0.7h-2.5c-0.4-0.7-0.7-1.1-0.9-1.1c-0.3,0-0.5-0.3-0.5-0.8h-2.4c-0.3,0-0.5-0.3-0.5-0.9h-1.6
			c-0.3,0-0.5-0.4-0.5-1.1h-1.6c-0.3,0-0.5-0.3-0.5-0.9h-1.2c-0.3,0-0.5-0.3-0.5-0.9h-3.4c-0.3,0-0.5-0.1-0.5-0.4v-1.5h-1.5
			c-0.3,0-0.5-0.3-0.5-0.9h-1.6c-0.3,0-0.5-0.4-0.5-1.1h-1.4c-0.3,0-0.5-0.3-0.5-0.9h-2.4c-0.5-0.7-1.1-1-1.6-1.1v-1.7
			c-0.6,0-0.9-0.1-0.9-0.4v-3.3c-0.5,0-0.8-0.2-0.8-0.4v-2.3c-0.8,0-1.1-0.1-1.1-0.4v-1.6c-0.6,0-0.9-0.2-0.9-0.4v-1.4
			c-0.5,0-0.9-0.3-1.1-0.9c-0.6,0-0.9-0.3-0.9-0.9h-1.4c-0.3-0.7-0.6-1.1-0.8-1.1c-0.5,0-0.7-0.1-0.7-0.4v-0.2
			c0-0.3,0.4-0.4,1.1-0.4v-1.2c0-0.3,0.3-0.4,0.8-0.4v-0.9c-0.5,0-0.8-0.1-0.8-0.4v-3.2c-0.9,0-1.4-0.3-1.4-0.9
			c-0.5,0-0.7-0.1-0.7-0.4v-2.5c-0.6,0-0.9-0.1-0.9-0.4V257c-0.8,0-1.1-0.1-1.1-0.4v-2.5c-0.6,0-0.9-0.1-0.9-0.4v-1.5
			c-0.5,0-0.8-0.1-0.8-0.4v-3.3c-0.8,0-1.1-0.1-1.1-0.4v-0.2c0-0.3,0.4-0.4,1.1-0.4v-3.7c-0.8,0-1.1-0.1-1.1-0.4v-4.3
			c-0.6,0-0.9-0.1-0.9-0.4v-8.9c-0.6,0-0.9-0.1-0.9-0.4v-4.1c-0.8,0-1.1-0.1-1.1-0.4v-1.6c-0.5,0-0.9-0.3-1-0.9
			c-0.5,0-0.7-0.1-0.7-0.4v-1.3c0.7-0.5,1-0.9,1-1.2H11v-1.8c-0.6,0-0.9-0.1-0.9-0.4v-10c-0.5,0-0.8-0.1-0.8-0.4v-9.6
			c0-0.3,0.3-0.4,0.8-0.4v-0.9c-0.5,0-0.8-0.1-0.8-0.4v-2.2c-0.9,0-1.4-0.3-1.4-1c-0.5,0-0.7-0.1-0.7-0.4v-1.1
			c0.7-0.5,1.1-1,1.1-1.6c0.5,0,1-0.3,1.4-0.9h0.3v-7.4c-0.5,0-0.8-0.1-0.8-0.4v-1.1c0-0.3,0.3-0.4,0.8-0.4v-5.2
			c0-0.3,0.3-0.4,0.9-0.4v-1.8c-0.6,0-0.9-0.1-0.9-0.3v-1.1c0-0.3,0.3-0.4,0.9-0.4v-5.7c-0.6,0-0.9-0.1-0.9-0.4v-0.2
			c0-0.3,0.3-0.4,0.9-0.4v-3.5c-0.7,0-1-0.4-1-1.1c-0.5,0-0.7-0.1-0.7-0.4v-0.2c0.5-0.4,0.8-0.7,0.8-1.1c0.4,0,0.8-0.4,1.4-1.1
			c0.6,0,0.9-0.3,0.9-1H13v-4.5c-0.6,0-0.9-0.3-0.9-1H9.7c-0.5-0.7-1.1-1-1.6-1.1c0-0.4-0.3-0.7-0.9-1.1v-0.2c0.7-0.5,1.1-1,1.1-1.6
			h1.7c0-0.5,0.2-0.8,0.5-0.8h3.4c0-0.6,0.4-0.9,1.1-0.9v-2.9h-1.6c-0.3,0-0.5-0.3-0.5-0.9h-1.6c-0.5-0.7-1-1-1.4-1
			c0-0.7-0.6-1.3-1.7-2c-0.2,0-0.2-0.1-0.2-0.2v-2.2c0.8-0.4,1.1-0.6,1.1-0.8c0-0.3,0.2-0.4,0.5-0.4h4.2c0-0.6,0.2-0.9,0.5-0.9h1.5
			c0-0.7,0.3-1.1,0.9-1.1v-6.1c0-0.3,0.4-0.4,1.1-0.4v-2.3c0-0.3,0.3-0.4,0.9-0.4v-3.3c0-0.3,0.3-0.4,0.9-0.4v-1.4
			c0-0.3,0.4-0.4,1.1-0.4v-0.7c-0.8,0-1.1-0.1-1.1-0.4v-0.4c0-0.3,0.4-0.4,1.1-0.4v-1.3c0-0.3,0.3-0.4,0.8-0.4v-1.4
			c0-0.3,0.3-0.4,0.9-0.4V106c0-0.3,0.4-0.4,1.1-0.4v-1.5c0-0.3,0.3-0.4,0.9-0.4v-1.3c0.7-0.5,1.1-1,1.1-1.6c0.5,0,0.9-0.3,1.2-0.9
			h0.5v-3.2c0-0.3,0.3-0.4,0.9-0.4v-1.6c0.1-0.2,0.2-0.3,0.5-0.3h2.5c0-0.7,0.3-1.1,1-1.1c0-0.6,0.2-0.9,0.5-0.9h1.4
			c0-0.7,0.4-1.1,1.1-1.1c0-0.4,0.3-0.7,0.9-0.9c0-0.5,0.3-0.9,0.9-1.1c0-0.4,0.3-0.6,1-0.8c0-0.4,0.3-0.7,0.9-0.9
			c0-0.6,0.3-1,0.9-1.1c0-0.4,0.4-0.7,1.1-0.9c0-0.4,0.2-0.7,0.5-0.7h1.4c0-0.9,0.3-1.3,0.8-1.3c0-0.4,0.2-0.6,0.5-0.6h1.6
			c0-0.6,0.3-1,0.9-1.1c0-0.6,0.2-0.9,0.5-0.9h2.4c0-0.6,0.2-0.9,0.5-0.9h1.6c0-0.6,0.2-0.9,0.5-0.9h1.6c0-0.7,0.2-1.1,0.5-1.1h3.3
			c0-0.5,0.2-0.8,0.5-0.8H61c0-0.6,0.2-0.9,0.5-0.9H64c0-0.7,0.2-1.1,0.5-1.1h1.5C65.9,74.7,66,74.4,66.3,74.4z M14.1,196.5v0.7
			c0.6,0,0.9,0.3,0.9,1h0.8c0-0.7,0.3-1,0.9-1v-0.7H14.1z M14.1,203.8v0.9c0.5,0,0.9,0.3,1.1,0.9c0.5,0,0.8,0.4,0.8,1.1h1.4
			c0.3,0,0.5,0.3,0.5,0.9h2.5c0.3,0,0.5,0.3,0.5,0.9h3.7v-0.7c-0.6,0-0.9-0.4-0.9-1.1h-2.5c-0.3-0.6-0.7-0.9-1.2-0.9
			c-0.2-0.2-0.2-0.5-0.2-0.9h-2.5c-0.3,0-0.5-0.4-0.5-1.1H14.1z M15.1,162.4v3.7c0.7,0,1,0.3,1,0.9h0.7c0-0.6,0.2-0.9,0.5-0.9h2.3
			c0.3,0,0.5,0.3,0.5,0.9h1.5c0.3,0,0.5,0.3,0.5,0.9h1.4c0.3,0,0.5,0.4,0.5,1.1h2.5c0.3,0,0.5,0.3,0.5,0.9h1.5
			c0.3,0,0.5,0.3,0.5,0.9h1.6c0.3,0,0.5,0.3,0.5,1H32c0.2,0,0.3,0.3,0.3,0.9h1.8v-1.8h-1.4c-0.5-0.6-0.9-0.9-1.5-1V169h-2.5
			c-0.3,0-0.5-0.1-0.5-0.4v-1.3H27c-0.2,0-0.3-0.4-0.3-1.1H25c-0.3,0-0.5-0.3-0.5-0.8H23c-0.3,0-0.5-0.3-0.5-0.9h-1.4
			c-0.2,0-0.3-0.4-0.3-1.1h-1.6c-0.3,0-0.5-0.3-0.5-0.9H15.1z M16.1,170.1c0,0.5-0.3,0.8-1,0.8v10.4h1.5c0.3,0,0.5,0.3,0.5,0.8h2.5
			c0.4,0.7,0.7,1.1,0.9,1.1c0.3,0,0.5,0.3,0.5,0.9h3.5c0.6,0.7,1.1,1.1,1.4,1.1v0.7h2.6v-0.7c-0.6,0-0.9-0.3-0.9-0.9h-1.5
			c-0.4-0.7-0.7-1.1-0.9-1.1c-0.3,0-0.5-0.3-0.5-0.9h-2.5c-0.5-0.7-0.9-1-1.2-1v-0.9h-2.5c-0.3,0-0.5-0.1-0.5-0.4v-0.2
			c0-0.3,0.3-0.4,0.9-0.4v-1.3c0.7-0.5,1.1-1,1.1-1.6h4.4c0.3,0,0.5,0.4,0.5,1.1h3.3c0.3,0,0.5,0.3,0.5,0.9h1.8v-0.9
			c-0.5,0-0.9-0.3-1.1-0.9c-0.6,0-0.9-0.3-0.9-0.8H27c-0.2,0-0.3-0.4-0.3-1.1H25c-0.3,0-0.5-0.3-0.5-0.9H23c-0.3,0-0.5-0.3-0.5-0.9
			h-1.4c-0.2,0-0.3-0.4-0.3-1.1h-1.6c-0.3,0-0.5-0.3-0.5-0.9h-1.6c-0.3,0-0.5-0.3-0.5-0.8H16.1z M15.1,187.9v1.8
			c0.8,0,1.2,0.3,1.2,0.9c0.5,0,0.7,0.3,0.7,0.9h3.4c0.3,0,0.5,0.4,0.5,1.1h1.7v-0.9c-0.5,0-0.9-0.3-1.1-0.9c-0.4,0-0.6-0.3-0.6-0.9
			h-2.5c-0.4-0.7-0.7-1.1-0.9-1.1c-0.5,0-0.7-0.3-0.7-0.9H15.1z M15.1,214.4v4.6c0.7,0,1,0.3,1,0.9h2.5c0.3,0,0.5,0.3,0.5,1h1.4
			c0.3,0,0.5,0.3,0.5,0.9h1.5c0.3,0,0.5,0.3,0.5,0.9h1.6c0.3,0,0.5,0.3,0.5,0.9h3.3c0.3,0,0.5,0.2,0.5,0.4v1.4h1.6
			c0.3,0,0.5,0.3,0.5,0.9H32c0.2,0,0.3,0.4,0.3,1.1h1.6c0.6,0.7,1.1,1.1,1.4,1.1v0.7h2.8v-1.6h-2.4c-0.4-0.7-0.7-1.1-0.9-1.1
			l-1.1-0.9c-0.5-0.7-1-1-1.4-1v-0.9h-1.5c-0.6-0.7-1.1-1.1-1.4-1.1c0-0.6-0.4-0.9-1.1-0.9v-0.9H27c-0.2,0-0.3-0.3-0.3-0.9H25
			c-0.3,0-0.5-0.1-0.5-0.3v-1.6H23c-0.3,0-0.5-0.3-0.5-0.9h-1.4c-0.2,0-0.3-0.3-0.3-0.9h-1.6c-0.4-0.7-0.7-1.1-0.9-1.1
			c-0.3,0-0.5-0.3-0.5-0.8H15.1z M17.9,153v1.5c0,0.3-0.3,0.4-0.9,0.4v0.7h1.6c0.3,0,0.5,0.3,0.5,0.9h3.3c0.3,0,0.5,0.4,0.5,1.1h1.6
			c0.3,0,0.5,0.3,0.5,0.9h2.4c0.3,0,0.5,0.3,0.5,0.9h3.4c0.4,0.7,0.7,1,0.9,1s0.3,0.3,0.3,0.9h3.9v-0.9h-1.6c-0.3,0-0.5-0.3-0.5-0.8
			h-1.4c-0.5-0.7-0.9-1-1.5-1.1v-0.9h-2.5c-0.5-0.7-1-1.1-1.4-1.1v-0.7h-1.5c-0.3,0-0.5-0.3-0.5-0.9h-1.4c-0.3,0-0.5-0.3-0.5-1h-2.5
			c-0.2,0-0.3-0.3-0.3-0.9H17.9z M17,197.4v0.8c0.6,0,0.9,0.3,0.9,0.9h3v-0.9h-1.6c-0.3,0-0.5-0.3-0.5-0.8H17z M17.9,227.7
			c0,0.6-0.3,0.9-0.9,0.9v0.7c0.6,0,0.9,0.2,0.9,0.4v1.4c0.8,0,1.1,0.2,1.1,0.4v1.6h2.4c0.3,0,0.5,0.3,0.5,0.9h2.5
			c0.3,0,0.5,0.3,0.5,0.9h1.4c0.3,0,0.5,0.4,0.5,1.1h1.5c0.3,0,0.5,0.3,0.5,0.8h2.5c0.6,0.7,1,1.1,1.2,1.1v0.9h3v-0.9
			c-0.8,0-1.1-0.3-1.1-0.9h-1.4c-0.3,0-0.5-0.3-0.5-1h-1.5c-0.3,0-0.5-0.3-0.5-0.9h-1.6c-0.4-0.6-0.8-0.9-1.1-0.9
			c-0.1-0.5-0.4-1-1-1.6c0-0.2-0.4-0.5-1.1-0.9v-0.4h-1.4c-0.3,0-0.5-0.3-0.5-0.8h-2.5c-0.3-0.7-0.6-1.1-0.8-1.1l-1.1-0.9
			c-0.3,0-0.5-0.3-0.5-0.9H17.9z M19,142.6v2.8h1.4c0.3,0,0.5,0.3,0.5,0.9h3.5c0.3,0,0.5,0.3,0.5,0.9h1.4c0.3,0,0.5,0.3,0.5,0.9h3.7
			v-0.7h-1.6c-0.3,0-0.5-0.3-0.5-0.9H27c-0.3-0.7-0.6-1.1-0.8-1.1c-0.5,0-0.7-0.3-0.7-0.9H23c-0.5-0.7-1-1-1.4-1v-0.9H19z
			 M19.9,238.8c0,0.7-0.3,1.1-0.9,1.1v2.6c0.6,0,0.9,0.1,0.9,0.4v2.5c0.6,0,0.9,0.3,0.9,0.9h1.5c0.3,0,0.5,0.3,0.5,1h1.6
			c0.3,0,0.5,0.3,0.5,0.9h3.3c0.6,0.7,1.1,1.1,1.4,1.1v0.9h1.6c0.3,0,0.5,0.3,0.5,0.9H33c0.3,0,0.5,0.3,0.5,0.9h1.4
			c0.4,0.7,0.7,1,0.9,1c0.5,0,0.7,0.3,0.7,0.9h3.3c0.6,0.7,1.1,1.1,1.4,1.1v0.9h2.4c0.3,0,0.5,0.1,0.5,0.4v1.3h1.8
			c0-0.6,0.3-0.9,0.9-0.9v-0.9h-1.4c-0.3-0.6-0.8-0.9-1.4-0.9c-0.2-0.2-0.2-0.5-0.2-0.9h-1.2c-0.3,0-0.5-0.4-0.5-1.1h-1.6
			c-1-1.1-1.7-1.7-2-1.7c-0.2-0.3-0.2-0.7-0.2-1.1h-1.5c-0.3,0-0.5-0.1-0.5-0.4v-1.3h-1.6c-0.3,0-0.5-0.4-0.5-1.1h-1.4
			c-0.3,0-0.5-0.3-0.5-0.8h-1.5c-0.6-0.7-1.1-1.1-1.4-1.1c0-0.7-0.4-1.1-1.1-1.1v-0.7H27c-0.2,0-0.3-0.3-0.3-0.9H25
			c-0.3,0-0.5-0.3-0.5-1H23c-1-1.2-1.6-1.8-1.9-1.8c-0.2-0.3-0.2-0.7-0.2-1.1H19.9z M20.8,131.2v1.7h3.7v-0.6
			c-0.6,0-0.9-0.4-0.9-1.1H20.8z M20.8,199.3v0.7h0.8v-0.7H20.8z M20.8,253v1.8c0.8,0,1.2,0.4,1.2,1.1c0.5,0,0.7,0.3,0.7,0.9h1.6
			c0.3,0,0.5,0.3,0.5,0.9h3.5v-1.8H27c-0.2,0-0.3-0.3-0.3-0.9H25c-0.3,0-0.5-0.3-0.5-0.9H23c-0.3,0-0.5-0.4-0.5-1.1H20.8z
			 M22.8,123.7c0,0.6-0.3,0.9-0.9,0.9v0.9c0.6,0,0.9,0.3,0.9,0.9h2.7c0-0.6,0.4-0.9,1.1-0.9v-0.9c-0.8,0-1.1-0.3-1.1-0.9H22.8z
			 M22.8,192.7v0.7h1.8v-0.7H22.8z M27.6,108.7c0,0.6-0.3,0.9-1,0.9v1.4c-0.8,0.6-1.1,1-1.1,1.3h-0.7v0.7h1.8c0-0.6,0.1-0.9,0.3-0.9
			h7.1v-0.7c-0.6,0-0.9-0.3-0.9-1h-2.4c-0.6-0.7-1.1-1.1-1.4-1.1v-0.7H27.6z M24.8,116.1v1.7h3.5v-0.7c-0.6,0-0.9-0.3-0.9-1H24.8z
			 M24.8,133.1v0.9h0.7v-0.9H24.8z M24.8,208.7v1.7h1.8v-1.7H24.8z M26.6,138.8c0,0.6-0.3,0.9-0.9,0.9v0.9h2.4
			c0.6,0.7,1.1,1.1,1.4,1.1v0.9h1.6c0.6,0.7,1,1,1.2,1v0.7h5.4c0.2,0.1,0.3,0.2,0.3,0.4v1.6h1.6c0.3,0,0.5,0.3,0.5,0.9h1.6
			c0.3,0,0.5,0.3,0.5,0.9h1.2c0.5,0.7,0.8,1,0.9,1c0.5,0,0.7,0.3,0.7,0.9h2.7v-2.6c-0.8,0-1.1-0.3-1.1-0.9h-2.5
			c-0.3,0-0.5-0.4-0.5-1.1h-1.2c-0.3,0-0.5-0.3-0.5-0.9h-2.5c-0.5-0.7-1-1-1.4-1v-0.9h-1.5c-0.3,0-0.5-0.3-0.5-0.9h-2.5
			c-0.3,0-0.5-0.3-0.5-0.9h-2.4c-0.3,0-0.5-0.4-0.5-1.1h-1.6c-0.3,0-0.5-0.3-0.5-0.9H26.6z M26.6,265.4v1.6h1.7v-0.7
			c-0.6,0-0.9-0.3-0.9-0.9H26.6z M28.6,267.2c0,0.7-0.3,1.1-0.9,1.1v0.7c0.6,0,0.9,0.3,0.9,0.8h1.6c0.3,0,0.5,0.4,0.5,1.1h3.5v-1.8
			c-0.6,0-0.9-0.3-0.9-0.8h-1.5c-0.3,0-0.5-0.4-0.5-1.1H28.6z M28.6,118v0.7h0.9V118H28.6z M28.6,257.9v1.7h1.6
			c0.3,0,0.5,0.3,0.5,0.9h0.7v-1.8c-0.6,0-0.9-0.3-0.9-0.8H28.6z M31.5,101c0,0.6-0.3,0.9-0.9,0.9v1.8H32c0.2,0,0.3,0.4,0.3,1.1h5.8
			v0.8h1.6c0.3,0,0.5,0.3,0.5,0.9h1.8v-1.7h-3.9V103h-1.5c-0.3,0-0.5-0.4-0.5-1.1h-1.6c-0.3,0-0.5-0.3-0.5-0.9H31.5z M30.6,178.5
			v0.7h0.7v-0.7H30.6z M31.5,213.5v0.7h2.6v-0.7H31.5z M32.3,259.8v0.7h0.9v-0.7H32.3z M33.4,260.6v0.7h0.7v-0.7H33.4z M34.3,112.4
			v0.7h0.9v-0.7H34.3z M34.3,214.4v1.7h1.6c0.3,0,0.5,0.3,0.5,0.9h0.7v-1.8c-0.6,0-0.9-0.3-0.9-0.8H34.3z M34.3,270.9v1.8h1.8v-1.8
			H34.3z M36.4,150.1v0.7h0.7v-0.7H36.4z M36.4,161.5v0.7h0.7v-0.7H36.4z M36.4,172.9v1.8h1.7v-0.9c-0.7,0-1-0.3-1-0.9H36.4z
			 M51.7,84c0,0.6-0.2,0.9-0.5,0.9h-1.6c0,0.7-0.2,1.1-0.5,1.1H48c0,0.7-0.4,1.1-1.1,1.1c0,0.4-0.2,0.7-0.5,0.7H45
			c0,0.8-0.4,1.2-1.1,1.2c0,0.4-0.3,0.7-0.8,0.9c0,0.4-0.2,0.7-0.5,0.7H41c0,0.9-0.3,1.3-0.9,1.3c0,0.4-0.3,0.7-0.9,0.9
			c0,0.4-0.4,0.7-1.1,0.9c0,0.5-0.3,0.8-0.8,0.8v0.7H41c0-0.5,0.3-0.8,0.9-0.8v-1.6c0-0.3,0.2-0.4,0.5-0.4h2.4
			c0-0.6,0.2-0.9,0.5-0.9h0.2c0.3,0,0.5,0.3,0.5,0.9h2.7v-0.7c-0.6,0-0.9-0.1-0.9-0.4V89c0.8-0.5,1.1-0.9,1.1-1.2h8.4v-0.9
			c-0.6,0-0.9-0.3-0.9-0.9H54c-0.3,0-0.5-0.1-0.5-0.4V84H51.7z M37.3,162.4v0.9h0.8v-0.9H37.3z M38.1,217.2v0.9h1.8v-0.9H38.1z
			 M38.1,229.5v1.7H41v-0.6c-0.8,0-1.1-0.4-1.1-1.1H38.1z M38.1,263.5v0.6H39v-0.6H38.1z M38.1,272.9v1.7h1.8v-1.7H38.1z
			 M40.4,318.9h1.4c0.3,0.1,0.5,0.2,0.5,0.4v0.2c0,0.3-0.2,0.4-0.5,0.4h-1.4c-0.3,0-0.5-0.2-0.5-0.4v-0.2
			C40,319.1,40.1,318.9,40.4,318.9z M40.1,175.8v0.6h1.8v-0.6H40.1z M40.1,218.1v0.9h1.8v-0.9H40.1z M41,158.7v0.7h1.8v-0.7H41z
			 M42.2,106.7v0.9h0.7v-0.9H42.2z M43.9,159.6v1.7h1.6c0.3,0,0.5,0.3,0.5,0.9h0.7v-1.8h-1.4c-0.3,0-0.5-0.3-0.5-0.8H43.9z
			 M45,224.9c0,0.5-0.4,0.8-1.1,0.8v0.7c0.8,0,1.1,0.4,1.1,1.1h1.6c0-0.7,0.4-1.1,1.1-1.1v-0.7h-1.6c-0.3,0-0.5-0.3-0.5-0.8H45z
			 M49.7,275.7v0.9h1.8v-0.9H49.7z M102.6,95.3c0,0.6-0.2,0.9-0.5,0.9h-3.3v1.6c-0.8,0.4-1.1,0.7-1.1,0.9c0,0.3-0.2,0.4-0.5,0.4H92
			c0,0.8-0.3,1.2-0.9,1.2c0,0.4-0.3,0.7-0.9,0.9c0,0.4-0.2,0.7-0.5,0.7h-1.6c0,0.7-0.1,1.1-0.3,1.1h-4.1c-0.3,0-0.5-0.4-0.5-1.1
			h-2.6v3.5c0,0.3-0.2,0.4-0.5,0.4h-2.5c0,0.6-0.2,0.9-0.5,0.9h-4.4c0,0.6-0.3,0.9-0.9,0.9v0.9c0.6,0,0.9,0.1,0.9,0.4v0.2
			c-0.8,0.5-1.1,1-1.1,1.3c-0.7,0-1,0.3-1,1c-0.4,0-0.8,0.3-1.1,0.9h-4.4v1.8h1.5c0.5,0.6,0.8,0.9,1.1,0.9c0,0.3,0.5,0.7,1.4,1.2
			v0.4c-0.8,0.4-1.1,0.7-1.1,0.9c-0.6,0.4-0.9,0.7-0.9,1.1c-0.3,0-0.8,0.4-1.4,1.1h-1.5c0,0.7-0.2,1.1-0.5,1.1h-0.2
			c-0.3,0-0.5-0.4-0.5-1.1h-3.7v2.3c0,0.3-0.3,0.4-0.9,0.4v1.6c0,0.3-0.3,0.4-0.9,0.4v1.6c0,0.3-0.4,0.4-1.1,0.4v5.2
			c0,0.3-0.3,0.4-0.9,0.4v1.7c0.6,0,1,0.3,1.1,0.9c0.5,0,0.9,0.3,1.1,0.9c0.5,0,0.8,0.4,0.9,1.1c0.5,0,0.7,0.1,0.7,0.4v1.9
			c-0.7,0.5-1.1,1-1.1,1.6c-0.4,0-0.8,0.3-1.1,0.9h-1.6c0,0.6-0.2,0.9-0.5,0.9h-1.5v4.3c0,0.3-0.3,0.4-0.9,0.4v1.7
			c0.6,0,0.9,0.2,0.9,0.4v2.2c0,0.3-0.3,0.4-0.9,0.4v1.6c0.8,0,1.1,0.3,1.1,1c0.5,0,0.9,0.3,1,0.9c0.5,0,0.7,0.1,0.7,0.4v3.1
			c0,0.3-0.2,0.4-0.5,0.4h-1.5v1.4c0,0.3-0.2,0.4-0.5,0.4h-1.4v4.6h1.4c0.5,0.7,1,1,1.5,1.1c0,0.4,0.3,0.7,0.9,1.1v0.7H57
			c0.3,0,0.5,0.1,0.5,0.4v2.3c0.6,0,0.9,0.2,0.9,0.4v1.1c-0.8,0.5-1.1,1-1.1,1.3h-1.8c0,0.7-0.2,1.1-0.5,1.1h-1
			c-0.3,0-0.5-0.4-0.5-1.1h-1.8c0,0.7-0.3,1.1-0.9,1.1v0.6c0.8,0,1.1,0.4,1.1,1.1c0.4,0,0.7,0.3,0.9,0.9c0.4,0,0.7,0.3,0.9,0.9
			c0.7,0,1,0.4,1,1.1c0.5,0,0.7,0.1,0.7,0.4v3c0,0.3-0.2,0.4-0.5,0.4h-1.5c0,0.6-0.3,0.9-0.9,0.9v0.7c0.8,0,1.1,0.4,1.1,1.1
			c0.5,0,0.8,0.3,0.8,0.8h1.4c0.5,0.7,1.1,1,1.6,1.1v2.5c-0.8,0.4-1.1,0.7-1.1,0.9c0,0.4-0.2,0.6-0.5,0.6h-1.4v1.3
			c0,0.3-0.3,0.4-1,0.4v3.3c-0.6,0.3-0.9,0.7-0.9,1.2c-0.3,0.1-0.6,0.2-0.9,0.2v5.5c0.6,0,0.9,0.1,0.9,0.4v1.1
			c0,0.3-0.3,0.4-0.9,0.4v17.9c0.6,0,0.9,0.2,0.9,0.4v8c0.5,0,0.9,0.3,1.1,0.9c0.5,0,0.9,0.3,1,0.9c0.5,0,0.7,0.1,0.7,0.4v4.1
			c-0.7,0.5-1,1-1,1.3c-0.6,0-1.1,0.3-1.4,0.9h-0.5v8c0,0.3-0.3,0.4-0.9,0.4v1.8c0.6,0,0.9,0.2,0.9,0.4v1.4c0.5,0,0.9,0.3,1.1,0.9
			c0.7,0,1,0.4,1,1.1c0.5,0,0.7,0.1,0.7,0.4v1.3H57c0.3,0,0.5,0.1,0.5,0.4v1.5h1.4c0.3,0.1,0.5,0.2,0.5,0.4v3.9
			c-0.7,0.5-1.1,1-1.1,1.6h-1.8c0,0.6-0.2,0.9-0.5,0.9h-1.4v1.8c0.6,0,0.9,0.1,0.9,0.4v3.2c0.6,0,0.9,0.1,0.9,0.4v2.3
			c0.8,0,1.1,0.1,1.1,0.4v2.5c0.6,0,0.9,0.1,0.9,0.4v1.6c0.6,0,0.9,0.1,0.9,0.4v1.2c0.7,0,1,0.1,1,0.4v2.5c0.6,0,0.9,0.1,0.9,0.4
			v1.4c0.6,0,1,0.3,1.1,0.9c0.6,0,0.9,0.1,0.9,0.4v1.6c0.6,0,0.9,0.1,0.9,0.4v1.6c0.5,0,0.9,0.3,1.1,0.8c0.5,0,0.8,0.1,0.8,0.4v1.6
			c0.6,0,1,0.3,1.1,0.9c0.5,0,0.7,0.3,0.7,0.9h1.6c0.9,1.4,1.7,2.1,2.4,2.1v0.7h1.4c0.3,0,0.5,0.3,0.5,0.9h1.6
			c0.4,0.7,0.7,1.1,0.9,1.1c0.3,0,0.5,0.3,0.5,0.9H79c0.3,0,0.5,0.1,0.5,0.4v1.4H82c0.5,0.7,0.9,1,1.5,1.1v0.7H86
			c0.4,0.7,0.7,1.1,0.9,1.1c0.3,0,0.5,0.3,0.5,0.9h3.3c0.3,0,0.5,0.3,0.5,0.8h5.3c0.3,0,0.5,0.4,0.5,1.1h4.4c0.3,0,0.5,0.3,0.5,0.9
			h20c0-0.6,0.2-0.9,0.5-0.9h0.2c0.3,0,0.5,0.3,0.5,0.9h0.7c0-0.6,0.2-0.9,0.5-0.9h4.4c0-0.7,0.2-1.1,0.5-1.1h2.5
			c0-0.5,0.2-0.8,0.5-0.8h1.5c0-0.6,0.1-0.9,0.5-0.9h2.5c0-0.7,0.1-1.1,0.5-1.1h1.2c0-0.7,0.4-1.1,1.1-1.1c0-0.4,0.3-0.7,0.9-0.9
			c0-0.6,0.1-0.9,0.5-0.9h1.6c0-0.5,0.3-0.9,0.9-1c0-0.4,0.1-0.7,0.5-0.7h1.5c0-0.9,0.3-1.3,0.9-1.3l0.9-1.1
			c0.8-0.4,1.1-0.7,1.1-0.9c0-0.3,0.2-0.4,0.5-0.4h1.3V295c0.1-0.3,0.2-0.4,0.5-0.4h1.6V293c0.1-0.3,0.2-0.4,0.5-0.4h1.6v-1.3
			c0-0.2,0.1-0.3,0.5-0.3h1.2v-1.6c0.8-0.4,1.1-0.7,1.1-0.9c0.7-0.5,1.1-1,1.1-1.6c0.4,0,0.8-0.3,1.1-0.9h0.7v-2.3
			c1.1-1,1.7-1.6,1.7-2c0-0.3,0.3-0.4,0.9-0.4v-1.2c0-0.3,0.4-0.4,1.1-0.4v-1.6c0.7-0.6,1.1-1,1.1-1.3h0.7v-2.3c0-0.3,0.3-0.4,1-0.4
			v-1.6c0-0.3,0.3-0.4,0.9-0.4v-4.3c0.8-0.6,1.1-1,1.1-1.3h0.9v-2.5c0-0.2,0.3-0.3,0.9-0.3V260c0-0.3,0.3-0.4,0.9-0.4v-8.9
			c0-0.3,0.3-0.4,1-0.4v-10c0-0.3,0.3-0.4,0.9-0.4v-0.9c-0.6,0-0.9-0.1-0.9-0.4v-1.1c0-0.3,0.3-0.4,0.9-0.4v-19.4
			c0-0.3,0.3-0.4,0.9-0.4v-0.7c-0.6,0-0.9-0.1-0.9-0.4v-22.3c-0.6,0-0.9-0.1-0.9-0.4v-12.8c-0.7,0-1-0.1-1-0.4v-13.8
			c-0.6,0-0.9-0.1-0.9-0.4v-1.2c-0.6,0-0.9-0.1-0.9-0.4v-8.1c-0.8,0-1.1-0.1-1.1-0.4v-5.2c-0.6,0-0.9-0.1-0.9-0.4v-4.3
			c-0.5,0-0.9-0.3-1.1-0.9c-0.5,0-0.8-0.1-0.8-0.4v-2.3c-0.6,0-0.9-0.1-0.9-0.4V138c-0.6,0-0.9-0.1-0.9-0.4V134
			c-0.9,0-1.4-0.3-1.4-0.9c-0.5,0-0.7-0.1-0.7-0.4v-2.3c-0.5,0-0.9-0.3-1-0.9c-0.5,0-0.7-0.1-0.7-0.4v-1.6c-0.7,0-1.1-0.1-1.1-0.3
			v-1.6c-0.6,0-0.9-0.1-0.9-0.4v-3.3c-0.5,0-0.9-0.3-1.1-0.8c-0.6,0-0.9-0.1-0.9-0.4V118c-0.5,0-0.8-0.1-0.8-0.4v-1.5
			c-0.5,0-0.9-0.3-1.1-0.9c-0.5,0-0.9-0.3-1.1-0.9c-0.5,0-0.7-0.1-0.7-0.4v-2.4c-0.8,0-1.1-0.3-1.1-1c-0.6,0-0.9-0.1-0.9-0.4v-1.3
			c-0.5,0-0.8-0.1-0.8-0.4v-1.6c-0.6,0-0.9-0.3-0.9-0.9H146c0,0.6-0.2,0.9-0.5,0.9h-3.1c-0.5-0.7-1.1-1-1.6-1.1V103
			c-0.6,0-0.9-0.1-0.9-0.4V101h-3.3c-0.5-0.7-1.1-1-1.6-1.1v-0.8h-1.4c-0.3,0-0.5-0.3-0.5-0.9h-4.4c-0.3,0-0.5-0.3-0.5-0.9H126
			c-0.3,0-0.5-0.4-0.5-1.1h-3.4c-0.3,0-0.5-0.3-0.5-0.9H102.6z M51.7,280.5c0,0.6-0.3,0.9-0.9,0.9v1.8c0.6,0,0.9,0.3,0.9,0.9h1.4
			c0.3,0,0.5,0.4,0.5,1.1h0.9v-2.9c-0.6,0-0.9-0.1-0.9-0.4v-1.3H51.7z M57.5,87.7v0.9h0.7v-0.9H57.5z M65.1,80.3
			c0,0.6-0.2,0.9-0.5,0.9h-3.4c0,0.6-0.3,0.9-0.9,0.9v0.9h1.4c0.3,0,0.5,0.3,0.5,0.8H63c0-0.5,0.2-0.8,0.5-0.8h1.6
			c0-0.6,0.3-0.9,0.8-0.9v-1.8H65.1z M69.1,104.8v0.8h0.7v-0.8H69.1z M102.9,127.2h8.9c0.3,0,0.5,0.4,0.5,1.1h1.6
			c0.6,0.7,1.1,1.1,1.4,1.1c0,0.6,0.3,0.9,1,0.9v0.9h2.5c0.3,0,0.5,0.1,0.5,0.4v1.2h1.4c0.4,0.7,0.6,1.1,0.8,1.1l1.1,0.9
			c0.6,0.7,1.1,1.1,1.4,1.1c0,0.6,0.2,0.9,0.7,0.9c0.3,0,0.5,0.1,0.5,0.4v1.2c0.6,0,0.9,0.2,0.9,0.4v1.6c0.6,0,0.9,0.1,0.9,0.4v4.3
			c0.7,0,1,0.1,1,0.4v2.2c0.6,0,0.9,0.1,0.9,0.4v4.3c0.6,0,1,0.3,1.1,0.9c0.5,0,0.7,0.1,0.7,0.4v2.1c-0.8,0.6-1.1,1-1.1,1.3h-0.7
			v2.8c0.6,0,1,0.3,1.1,0.9c0.4,0,0.7,0.3,0.9,0.9c0.8,0,1.1,0.4,1.1,1.1c0.4,0,0.6,0.1,0.6,0.4v1.9c-0.6,0.5-0.9,1-1,1.6h-1.8v4.1
			c0,0.3-0.3,0.4-0.9,0.4v1.8c0.6,0,0.9,0.1,0.9,0.4v4.3c0.6,0,0.9,0.1,0.9,0.4v2.5c0.9,0,1.4,0.3,1.4,0.8c0.4,0,0.6,0.1,0.6,0.4
			v1.3c0,0.3-0.3,0.4-0.8,0.4v1.6c0.7,0,1,0.4,1,1.1c0.4,0,0.7,0.3,0.9,0.8c0.6,0,0.9,0.1,0.9,0.4v0.2c0,0.3-0.4,0.4-1.1,0.4v1.6
			c-0.7,0.5-1,1-1,1.3h-1.8v1.7c0.8,0,1.1,0.2,1.1,0.4v1.6h2.4c0.3,0,0.5,0.1,0.5,0.4v3.9c0,0.3-0.2,0.4-0.5,0.4h-2.4
			c0,0.6-0.4,0.9-1.1,0.9v0.9c0.9,0,1.4,0.3,1.4,0.9c0.4,0,0.6,0.3,0.8,1l1.1,0.9c0.5,0,0.7,0.1,0.7,0.4v1.6c0.6,0,0.9,0.2,0.9,0.4
			v0.2c0,0.3-0.3,0.4-0.9,0.4v1.2c-0.8,0.4-1.1,0.7-1.1,0.9c0,0.4-0.2,0.7-0.5,0.7h-2.4v0.7c0.8,0,1.1,0.2,1.1,0.4V232
			c0.5,0,0.8,0.1,0.8,0.4v1.3c0,0.3-0.3,0.4-0.8,0.4v16.6c0,0.3-0.4,0.4-1.1,0.4v8.2c0.8,0,1.1,0.1,1.1,0.4v0.2
			c0,0.3-0.4,0.4-1.1,0.4v1.6c0,0.3-0.3,0.4-0.9,0.4v1.2c0,0.3-0.3,0.4-0.9,0.4v5.2c-0.8,0.6-1.1,1-1.1,1.3c-0.5,0-0.8,0.2-0.8,0.7
			c0,0.3-0.2,0.4-0.5,0.4h-1.4v1.3c-0.8,0.4-1.1,0.7-1.1,0.9c0,0.4-0.2,0.6-0.5,0.6H117c0,0.6-0.2,0.9-0.5,0.9h-11.8
			c-0.2,0-0.3-0.3-0.3-0.9H102c-0.4-0.7-0.7-1-0.9-1c-0.3,0-0.5-0.3-0.5-0.9h-2.4c-0.3,0-0.5-0.3-0.5-0.9h-1.6
			c-0.3,0-0.5-0.1-0.5-0.4v-2.5c-0.6,0-0.9-0.1-0.9-0.3v-1.6c-0.8,0-1.1-0.1-1.1-0.4v-3.2c-0.5,0-0.8-0.3-1-0.9
			c-0.5,0-0.7-0.4-0.7-1.1h-1.6c-0.3,0-0.5-0.1-0.5-0.4v-2c0.7-0.5,1.1-1,1.1-1.5H92v-1.3c0-0.3,0.3-0.4,0.9-0.4v-1.8
			c-0.6,0-0.9-0.1-0.9-0.4v-5.2h-1.6c-0.3,0-0.5-0.1-0.5-0.4v-2.1c0.8-0.6,1.1-1,1.1-1.3H92v-0.9c-0.8,0-1.1-0.1-1.1-0.4v-2.3
			c-0.6,0-0.9-0.1-0.9-0.4v-10.9c-0.5,0-0.9-0.3-1.1-0.9c-0.6,0-0.9-0.1-0.9-0.4V222c-0.5,0-0.8-0.1-0.8-0.4v-4.3
			c-0.6,0-0.9-0.1-0.9-0.4v-1.1c0-0.3,0.3-0.4,0.9-0.4v-0.8c-0.6,0-0.9-0.1-0.9-0.4V201c-0.8,0-1.1-0.1-1.1-0.4v-0.2
			c0-0.3,0.4-0.4,1.1-0.4v-10c-0.8,0-1.1-0.1-1.1-0.4v-23.4c-0.6,0-0.9-0.3-0.9-0.8h-1.6c-0.3-0.6-0.6-0.9-1-0.9
			c-0.1-0.5-0.5-1-1.1-1.6v-1.1c0.8-0.6,1.1-1,1.1-1.3h1.7c0-0.7,0.3-1,0.9-1v-0.7c-0.6,0-0.9-0.1-0.9-0.4v-1.3
			c0-0.3,0.3-0.4,0.9-0.4v-7c0-0.3,0.3-0.4,0.9-0.4v-2.3c0-0.3,0.4-0.4,1.1-0.4v-6.1c0-0.3,0.3-0.4,0.9-0.4v-1.6
			c0-0.2,0.3-0.3,0.8-0.3v-1.6c0.8-0.4,1.1-0.7,1.1-0.9c0-0.3,0.3-0.4,0.9-0.4v-1.6c0.1-0.3,0.2-0.4,0.5-0.4H92v-1.2
			c0.7-0.5,1.1-1,1.1-1.6h1.7c0-0.6,0.2-0.9,0.5-0.9h2.5c0-0.6,0.2-0.9,0.5-0.9h4.2C102.4,127.6,102.6,127.2,102.9,127.2z
			 M90.2,153.9v0.8c0.6,0,0.9,0.3,0.9,0.9h1.6c0.3,0,0.5,0.3,0.5,0.9h1.2c0.3,0,0.5,0.4,0.5,1.1h3v-1.8h-2.5c-0.3,0-0.5-0.3-0.5-0.9
			h-2.4c-0.3,0-0.5-0.3-0.5-1H90.2z M91.1,179.4c0,0.6-0.3,0.9-0.9,0.9v8.2c0.6,0,0.9,0.2,0.9,0.4v15.7c0.6,0,0.9,0.1,0.9,0.4v0.2
			c0,0.3-0.3,0.4-0.9,0.4v6.6c0.6,0,0.9,0.1,0.9,0.4v8.9c0.8,0,1.1,0.2,1.1,0.4v2.5c0.5,0,0.8,0.2,0.8,0.4v5.2
			c0.6,0,0.9,0.1,0.9,0.4v8h0.9c0-0.9,0.3-1.3,0.9-1.3c0-0.4,0.4-0.7,1.1-0.7v-2.3c0-0.3,0.3-0.4,0.9-0.4v-5.2
			c0-0.3,0.3-0.4,0.8-0.4v-2.7c-0.5,0-0.8-0.1-0.8-0.3v-0.2c0-0.3,0.3-0.4,0.8-0.4v-1.6c0-0.3,0.4-0.4,1.1-0.4v-5.5
			c-0.8,0-1.1-0.1-1.1-0.4v-3.2c-0.5,0-0.8-0.1-0.8-0.4v-2.2c0-0.3,0.3-0.4,0.8-0.4v-1.7h-1.2c-0.4-0.6-0.8-0.9-1.4-0.9
			c-0.1-0.5-0.5-1-1.1-1.6v-1.1c0.6-0.4,0.9-0.7,0.9-1.1c0.8,0,1.2-0.4,1.4-1.2c0.4,0,0.7-0.3,1-0.9h0.5v-2.7
			c-0.5,0-0.8-0.1-0.8-0.4v-5.2c-0.6,0-0.9-0.1-0.9-0.4v-8c-0.8,0-1.1-0.1-1.1-0.4v-2.5c-0.6,0-0.9-0.1-0.9-0.4v-1.5h-1.6
			c-0.3,0-0.5-0.3-0.5-0.9H91.1z M93.9,138.8c0,0.5-0.3,0.9-0.8,1.1c0,0.6-0.4,0.9-1.1,0.9v1.8h1.5c0.3,0,0.5,0.3,0.5,0.9h3.4
			c0.3,0,0.5,0.3,0.5,0.8h2.4c0.3,0,0.5,0.4,0.5,1.1h1.6c0.3,0,0.5,0.3,0.5,0.9h4.7v-0.9h-1.6c-0.3,0-0.5-0.3-0.5-0.9H104
			c-0.5-0.7-1.1-1-1.6-1c0-0.6-0.3-1-0.9-1.3v-0.4H99c-0.2,0-0.3-0.3-0.3-0.9h-2.5c-0.3,0-0.5-0.1-0.5-0.4v-1.6H93.9z M96.8,253v0.9
			h0.9V253H96.8z M99.7,157.6v0.9c0.6,0,0.9,0.3,0.9,0.9h0.9v-1.8H99.7z M101.7,184.2v1.6h3.3c0.3,0,0.5,0.4,0.5,1.1h2.7V186h-1.4
			c-0.3-0.6-0.8-0.9-1.4-0.9c-0.2-0.3-0.2-0.6-0.2-0.9H101.7z M101.7,248.4v0.7h1.8v-0.7H101.7z M103.5,191.7v1.7
			c0.8,0,1.2,0.3,1.2,0.9c0.5,0,0.7,0.4,0.7,1.1h1.6c0.3,0,0.5,0.3,0.5,0.9h1.4c0.3,0,0.5,0.3,0.5,0.9h3.7v-0.7
			c-0.6,0-0.9-0.4-0.9-1.1h-2.4c-0.3,0-0.5-0.1-0.5-0.4v-1.3h-1.6c-0.5-0.7-1-1-1.4-1v-0.9H103.5z M103.5,229.5v1.7h0.9v-1.7H103.5z
			 M105.5,159.6v0.8h0.9v-0.8H105.5z M105.5,202.2v0.7h1.8v-0.7H105.5z M105.5,218.1v5.5h1.6c0.3,0,0.5,0.4,0.5,1.1h1.4
			c0.3,0,0.5,0.3,0.5,0.8h1.5c0.6,0.7,1.1,1.1,1.4,1.1v0.9h2.9v-1.8h-1.6c-0.3,0-0.5-0.1-0.5-0.3v-1.6h-1.6c-0.3,0-0.5-0.1-0.5-0.4
			V222h-1.2c-0.3,0-0.5-0.1-0.5-0.4V220h-1.6c-0.5-0.7-1-1-1.4-1v-0.9H105.5z M107.5,132.3v0.6h1.4c0.3,0,0.5,0.4,0.5,1.1h0.8v-1.7
			H107.5z M107.5,146.5v0.7h0.7v-0.7H107.5z M113.3,197.4v0.8c0.6,0,0.9,0.3,0.9,0.9h2.6v-0.9h-1.2c-0.3,0-0.5-0.3-0.5-0.8H113.3z
			 M115.1,227.7v1.6h0.8c0-0.6,0.3-0.9,0.9-0.9v-0.7H115.1z M115.1,259.8v0.7h1.5c0.3,0,0.5,0.3,0.5,0.9h1.6c0.3,0,0.5,0.2,0.5,0.4
			v1.6h1.4c0.3,0,0.5,0.3,0.5,0.8h3.7v-2.6h-4.4c-0.6-0.7-1.1-1.1-1.4-1.1v-0.7H115.1z M117,199.3v0.7h0.9v-0.7H117z M117,222.9v0.7
			h1.8v-0.7H117z M119.1,223.8v1.7h1.4c0.3,0,0.5,0.3,0.5,0.9h1.5c0.5,0.7,0.8,1.1,0.9,1.1c0.3,0.1,0.5,0.2,0.5,0.4v1.3
			c0.8,0,1.1,0.4,1.1,1.1h2.6v-0.9c-0.7,0-1-0.1-1-0.4v-4.1h-3.4c-0.3,0-0.5-0.4-0.5-1.1H119.1z M120.9,235.1v1.7h1.5
			c0.6,0.7,1.1,1.1,1.4,1.1c0,0.7,0.4,1.1,1.1,1.1v0.7h1.6v-1.6c0-0.3,0.3-0.4,1-0.4V237c-0.7,0-1-0.1-1-0.4v-1.5h-1.6
			c0,0.6-0.2,0.9-0.5,0.9h-2.3c-0.3,0-0.5-0.3-0.5-0.9H120.9z M122.8,177.4v0.9h1.8v-0.9H122.8z M123.7,243.6c0,0.6-0.3,0.9-0.9,0.9
			v0.9h3.6v-1.8H123.7z M124.9,250.2c0,0.7-0.2,1.1-0.5,1.1h-1.6v0.7h2.7v-1.8H124.9z M124.9,215.2v0.9h1.6v-0.9H124.9z"/>
		<path class="st1" d="M348.4,82.9h1.1c0.3,0,0.5,0.3,0.5,0.8h2.4c0.3,0,0.5,0.3,0.5,0.9h5.6c0-0.6,0.1-0.9,0.5-0.9h0.2
			c0.3,0,0.5,0.3,0.5,0.9h9.3c0.3,0,0.5,0.4,0.5,1.1h4.3c0.5,0.7,0.9,1.1,1.2,1.1v0.7h1.6c0.3,0,0.5,0.4,0.5,1.1h3.3
			c0.3,0,0.5,0.3,0.5,0.8h1.6c0.3,0,0.5,0.3,0.5,0.9h1.6c0.3,0,0.5,0.4,0.5,1.1h1.2c0.3,0,0.5,0.3,0.5,0.9h1.6
			c0.6,0.7,1.1,1.1,1.4,1.1v0.9h2.4c0.5,0.6,1.1,0.9,1.6,1V96h3.3c0.3,0,0.5,0.4,0.5,1.1h1.6c0.6,0.7,1.1,1.1,1.4,1.1v0.7h6.2
			c0.4,0.7,0.7,1,0.9,1l1,0.9c0.3,0.1,0.5,0.2,0.5,0.4v10.7c0,0.3-0.3,0.4-0.9,0.4v0.7c0.6,0,0.9,0.1,0.9,0.4v4.1
			c0,0.3-0.3,0.4-0.9,0.4v3.3c0,0.2-0.3,0.3-1,0.3v0.7c0.7,0,1,0.1,1,0.4v1.3c0,0.3-0.3,0.4-1,0.4v0.7c0.7,0,1,0.1,1,0.4v0.4
			c0,0.3-0.3,0.4-1,0.4v1.5c0.7,0,1,0.1,1,0.4v10c0.6,0,0.9,0.2,0.9,0.4v1.1c0,0.3-0.3,0.4-0.9,0.4v3.7c0.6,0,0.9,0.1,0.9,0.4v0.2
			c0,0.3-0.3,0.4-0.9,0.4v3.7c0.6,0,0.9,0.2,0.9,0.4v3.3c0.6,0,0.9,0.1,0.9,0.4v0.2c0,0.3-0.3,0.4-0.9,0.4v5.5
			c0.6,0,0.9,0.2,0.9,0.4v0.1c0,0.3-0.3,0.4-0.9,0.4v2.7c0.6,0,0.9,0.1,0.9,0.4v7.2c0.8,0,1.1,0.1,1.1,0.3v2.2
			c0,0.3-0.4,0.4-1.1,0.4v0.7c0.8,0,1.1,0.2,1.1,0.4v2.3c0.6,0,0.9,0.1,0.9,0.4v3.6c0.6,0,0.9,0.1,0.9,0.4v6.9
			c0.5,0,0.8,0.2,0.8,0.4v2.2c0,0.3-0.3,0.4-0.8,0.4v1.7c0.5,0,0.8,0.2,0.8,0.4v1.6c0.8,0,1.1,0.1,1.1,0.4v7c0.6,0,0.9,0.1,0.9,0.4
			v0.2c0,0.2-0.3,0.3-0.9,0.3v6.6c0.6,0,0.9,0.1,0.9,0.4v0.2c0,0.3-0.3,0.4-0.9,0.4v1.8c0.6,0,0.9,0.1,0.9,0.4v2.3
			c0.6,0,0.9,0.2,0.9,0.4v1.1c0,0.3-0.3,0.4-0.9,0.4v1.8c0.6,0,0.9,0.1,0.9,0.3v1.1c0,0.3-0.3,0.4-0.9,0.4v2.9
			c0.6,0,0.9,0.2,0.9,0.4v1.9c0,0.3-0.3,0.4-0.9,0.4v0.9c0.6,0,0.9,0.1,0.9,0.4v1.1c0,0.3-0.3,0.4-0.9,0.4v0.8
			c0.6,0,0.9,0.2,0.9,0.4v2.2c0,0.3-0.3,0.4-0.9,0.4v0.7c0.6,0,0.9,0.1,0.9,0.4v6.9c0,0.3-0.3,0.4-0.9,0.4v0.7
			c0.6,0,0.9,0.2,0.9,0.4v6.8c0,0.3-0.3,0.4-0.9,0.4v1.7c0.6,0,0.9,0.2,0.9,0.4v0.2c0,0.3-0.3,0.4-0.9,0.4v8.6
			c0.6,0,0.9,0.1,0.9,0.4v0.2c0,0.3-0.3,0.4-0.9,0.4v3.5c0.6,0,0.9,0.1,0.9,0.4v0.2c0,0.3-0.3,0.4-0.9,0.4v2.8
			c0.6,0,0.9,0.1,0.9,0.4v5c0.8,0,1.1,0.1,1.1,0.4v16.6c0.6,0,0.9,0.1,0.9,0.4v5.2c0.5,0,0.8,0.1,0.8,0.4v1.3c0,0.3-0.3,0.4-0.8,0.4
			v0.6c0.5,0,0.8,0.1,0.8,0.4v4.2c0,0.3-0.2,0.4-0.5,0.4h-1.2c0,0.5-0.2,0.8-0.5,0.8h-6.2c0,0.6-0.2,0.9-0.5,0.9h-8.9
			c-0.3,0-0.5-0.3-0.5-0.9h-4.5c-0.2,0-0.3-0.3-0.3-0.8h-4.5c-0.3,0-0.5-0.4-0.5-1.1h-5.3c-0.3,0-0.4-0.3-0.4-0.9h-2.4
			c-0.3,0-0.5-0.3-0.5-0.9h-4.2c-0.3,0-0.5-0.4-0.5-1.1h-1.6c-0.3,0-0.5-0.3-0.5-0.9h-3.3c-0.3,0-0.5-0.3-0.5-0.8h-2.5
			c-0.3,0-0.5-0.4-0.5-1.1h-2.4c-0.5-0.7-1.1-1-1.6-1.1c0-0.4-0.3-0.7-0.9-1.1v-0.7h-1.5c-0.6-0.7-1.1-1-1.4-1v-1.8H360
			c-0.3,0-0.5-0.1-0.5-0.4v-1.3h-1.6c-0.3,0-0.5-0.2-0.5-0.4v-1.4H356c-0.3,0-0.5-0.2-0.5-0.4v-1.6h-1.4c-0.3-0.6-0.8-0.9-1.4-0.9
			c0-0.3-0.4-0.7-1.1-1.3c0-0.4-0.4-0.9-1.2-1.5c-0.4,0-0.7-0.3-0.9-0.9c-0.5,0-0.8-0.4-0.9-1.1c-0.5,0-0.7-0.2-0.7-0.4v-1.3h-1.8
			c0,0.6-0.3,0.9-1,0.9v1.8c0.7,0,1,0.1,1,0.4v0.2c0,0.3-0.3,0.4-1,0.4v1.5c0,0.3-0.3,0.4-0.9,0.4v1.8c0.6,0,0.9,0.1,0.9,0.4v1.1
			c-0.8,0.5-1.1,0.9-1.1,1.2h-0.7v4.5c0,0.2-0.4,0.3-1.1,0.3v0.9c0.8,0,1.1,0.1,1.1,0.4v0.2c0,0.3-0.4,0.4-1.1,0.4v1.3
			c0,0.3-0.3,0.4-0.9,0.4v0.9c0.6,0,0.9,0.1,0.9,0.4v0.2c0,0.2-0.3,0.3-0.9,0.3v2.5c0,0.3-0.3,0.4-0.8,0.4v2.3
			c-0.8,0.4-1.1,0.7-1.1,0.9c-0.7,0.5-1.1,1-1.1,1.6c-0.3,0-0.7,0.3-1.1,0.9h-6.2c0,0.6-0.2,0.9-0.5,0.9h-1.2
			c-0.3,0-0.5-0.3-0.5-0.9h-6.2c-0.3,0-0.5-0.3-0.5-0.9h-2.5c-0.3,0-0.5-0.4-0.5-1.1h-3.3c-0.3,0-0.5-0.3-0.5-0.9h-2.5
			c-0.2,0-0.3-0.3-0.3-0.8h-1.6c-0.3,0-0.5-0.4-0.5-1.1h-3.3c-0.3,0-0.5-0.3-0.5-0.9h-1.6c-0.3,0-0.5-0.3-0.5-0.9h-6.2
			c-0.4-0.7-0.7-1.1-0.9-1.1c-0.5,0-0.7-0.3-0.7-0.9h-1.2c-0.5-0.6-1.1-0.9-1.6-1c0-0.6-0.3-1-0.9-1.3v-0.4h-1.6
			c-0.5-0.7-0.9-1.1-1.2-1.1c0-0.5-0.3-1-0.9-1.3v-0.4h-1.6c-0.5-0.7-1-1-1.4-1v-0.9h-1.5c-0.4-0.6-0.8-0.9-1.1-0.9
			c0-0.3-0.4-0.7-1.1-1.3c0-0.6-0.4-0.9-1.1-0.9v-0.6h-1.4c-0.5-0.7-0.9-1-1.5-1.1v-0.9h-1.4c-0.3,0-0.5-0.1-0.5-0.4v-1.3h-2.5
			c-0.3,0-0.5-0.1-0.5-0.4v-1.5h-0.8v3.7c0.5,0,0.8,0.1,0.8,0.4v1.1c0,0.3-0.3,0.4-0.8,0.4v1.7c0.5,0,0.8,0.1,0.8,0.4v3.1
			c0,0.2-0.3,0.3-0.8,0.3v0.9c0.5,0,0.8,0.1,0.8,0.4v1.1c0,0.3-0.3,0.4-0.8,0.4v1.8c0.5,0,0.8,0.1,0.8,0.4v1c0,0.3-0.1,0.4-0.3,0.4
			h-1.4v0.9c0.6,0,0.9,0.1,0.9,0.4v2.2c0,0.3-0.2,0.4-0.5,0.4H271c0,0.5-0.2,0.8-0.5,0.8h-3.3c0,0.6-0.2,0.9-0.5,0.9h-3.4
			c0,0.7-0.2,1.1-0.5,1.1h-5.1c-0.3,0-0.5-0.4-0.5-1.1h-17.7c-0.3,0-0.5-0.3-0.5-0.9h-4.4c-0.3,0-0.5-0.3-0.5-0.8h-0.7
			c0,0.7-0.4,1-1.1,1c0,0.4-0.2,0.7-0.5,0.7h-1.4c0,0.7-0.2,1.1-0.5,1.1h-3.1c-0.4-0.7-0.7-1.1-0.9-1.1c-0.5,0-0.7-0.3-0.7-0.9h-2.4
			c-0.3,0-0.5-0.2-0.5-0.4v-1.4h-1.4c-0.5-0.7-1.1-1-1.6-1.1c0-0.4-0.3-0.7-0.9-1.1V303h-1.5c-0.3,0-0.5-0.3-0.5-0.9h-1.4
			c-0.3,0-0.5-0.1-0.5-0.3v-1.6h-1.6c-0.3,0-0.5-0.3-0.5-0.9h-3.3c-0.3,0-0.5-0.1-0.5-0.4v-1.6h-1.6c-0.3,0-0.5-0.2-0.5-0.4v-1.2
			h-1.2c-0.3,0-0.5-0.4-0.5-1.1h-1.6c-0.5-0.7-1-1.1-1.4-1.1c0-0.6-0.4-0.9-1.1-0.9v-0.9h-1.2c-0.3,0-0.5-0.3-0.5-0.8h-1.6
			c-0.3,0-0.5-0.3-0.5-0.9h-1.6c-0.2,0-0.3-0.4-0.3-1.1h-2.5c-0.4-0.6-0.8-0.9-1.1-0.9c0-0.3-0.4-0.7-1.1-1.3v-1.5
			c-0.8,0-1.2-0.3-1.2-0.9c-0.5,0-0.8-0.4-0.9-1.1c-0.5,0-0.7-0.2-0.7-0.4v-3.9c0-0.3,0.3-0.4,0.9-0.4v-2.5c0-0.3,0.3-0.4,0.9-0.4
			v-2.6c-0.6,0-0.9-0.1-0.9-0.4v-3.3c-0.8,0-1.1-0.3-1.1-1c-0.6,0-0.9-0.1-0.9-0.4v-0.2c0-0.3,0.4-0.4,1.1-0.4v-9.1
			c-0.8,0-1.1-0.1-1.1-0.4v-6.3c-0.6,0-0.9-0.1-0.9-0.4v-3.9c0-0.3,0.3-0.4,0.9-0.4v-0.9c-0.6,0-0.9-0.1-0.9-0.4v-8.7
			c0-0.3,0.3-0.4,0.9-0.4v-3.6c-0.6,0-0.9-0.1-0.9-0.4v-10c-0.6,0-0.9-0.1-0.9-0.4v-12.6c-0.7,0-1-0.1-1-0.4v-10.9
			c-0.6,0-0.9-0.1-0.9-0.4v-3.1c0-0.3,0.3-0.4,0.9-0.4v-1.7c-0.6,0-0.9-0.1-0.9-0.4v-6.1c-0.6,0-0.9-0.1-0.9-0.4v-2.2
			c0-0.3,0.3-0.4,0.9-0.4v-2.6c-0.8,0-1.1-0.4-1.1-1.1c-0.5,0-0.9-0.3-1.1-0.9c-0.5,0-0.7-0.1-0.7-0.4v-2.1c0.8-0.6,1.1-1,1.1-1.3
			h0.9v-2.7c-0.9,0-1.4-0.3-1.4-1c-0.5,0-0.7-0.1-0.7-0.4v-1.1c0-0.3,0.3-0.4,0.9-0.4v-2.6c-0.6,0-0.9-0.1-0.9-0.4v-1.3
			c0-0.3,0.3-0.4,0.9-0.4v-1.3c0-0.3,0.4-0.4,1.1-0.4v-4.6c-0.8,0-1.1-0.1-1.1-0.4V151c-0.6,0-0.9-0.1-0.9-0.4v-7.1
			c-0.6,0-0.9-0.1-0.9-0.4v-2.5h-1.5c-0.6-0.7-1.1-1.1-1.4-1.1v-2.3c0.8-0.6,1.1-1,1.1-1.3h0.7v-9.1c-0.8,0-1.1-0.4-1.1-1.1
			c-0.5,0-0.7-0.1-0.7-0.4v-0.2c0-0.3,0.3-0.4,0.9-0.4v-1.6c0-0.3,0.3-0.4,0.9-0.4v-0.7c-0.6,0-0.9-0.1-0.9-0.3v-0.2
			c0-0.3,0.3-0.4,0.9-0.4v-0.9c-0.6,0-0.9-0.1-0.9-0.4v-9.8c-0.6,0-0.9-0.1-0.9-0.4v-2.4c-0.8,0-1.1-0.4-1.1-1.1h-2.4
			c-0.3,0-0.5-0.1-0.5-0.3v-2c0.7-0.4,1-0.7,1-0.9c0-0.4,0.3-0.7,0.9-0.7V101c-0.6,0-0.9-0.1-0.9-0.4v-2.3h-2.4
			c-0.3,0-0.5-0.1-0.5-0.4v-2.2c0-0.3,0.2-0.4,0.5-0.4h1.4v-1.5c0-0.3,0.3-0.4,1-0.4v-1.3c0.1-0.3,0.2-0.4,0.5-0.4h1.4
			c0-0.7,0.4-1.1,1.1-1.1V89c0-0.2,0.1-0.3,0.5-0.3h2.4c0-0.7,0.1-1.1,0.5-1.1H197c0-0.6,0.2-0.9,0.5-0.9h25.2
			c0.3,0,0.5,0.3,0.5,0.9h1.7c0-0.6,0.1-0.9,0.5-0.9h0.2c0.3,0,0.5,0.3,0.5,0.9h1.8c0-0.6,0.1-0.9,0.5-0.9h12.6
			c0.3,0,0.5,0.3,0.5,0.9h7.6c0-0.6,0.1-0.9,0.5-0.9h4.2c0.3,0,0.5,0.3,0.5,0.9h2.3c0.3,0,0.5,0.4,0.5,1.1h2.4
			c0.5,0.6,1.1,0.9,1.6,1c0,0.4,0.3,0.7,0.9,1.1c0,0.4,0.3,0.7,0.9,1.1v0.4h2.4c0.3,0,0.5,0.3,0.5,0.9h0.9c0-0.6,0.2-0.9,0.5-0.9
			h0.2c0.6,0.7,1.1,1.1,1.4,1.1v0.9h1.5c0.3,0,0.5,0.3,0.5,0.8h1.6c0.3,0,0.5,0.3,0.5,0.9h1.4c0.2,0,0.3,0.4,0.3,1.1h1.6
			c0.3,0,0.5,0.3,0.5,0.9h1.6c0.3,0,0.5,0.3,0.5,0.9h1.4c0.2,0,0.3,0.3,0.3,1h1.6c0.3,0,0.5,0.3,0.5,0.9h5.3
			c0.3,0.1,0.5,0.2,0.5,0.4v1.6h1.6c0.3,0,0.5,0.1,0.5,0.4v3.2c0.6,0,0.9,0.2,0.9,0.4v4.3h1.7c0-0.7,0.3-1,0.9-1v-0.7
			c-0.6,0-0.9-0.1-0.9-0.4v-0.2c0-0.3,0.3-0.4,0.9-0.4v-1.6c0.8-0.6,1.1-1,1.1-1.3h0.9v-3.5c0-0.3,0.3-0.4,0.9-0.4v-6.1
			c0.7-0.6,1-1,1-1.2h0.9v-2.5c0-0.3,0.3-0.4,0.9-0.4V89c0-0.2,0.3-0.3,0.9-0.3v-3.6c0-0.3,0.1-0.4,0.5-0.4h1.5
			c0-0.6,0.1-0.9,0.5-0.9h6.9c0.3,0,0.5,0.3,0.5,0.9h3.5c0.3,0,0.5,0.4,0.5,1.1h24.7c0-0.7,0.2-1.1,0.5-1.1h6.5
			c0-0.6,0.2-0.9,0.5-0.9h2.4C348,83.2,348.1,82.9,348.4,82.9z M182.6,120.9v2.6h1.6c0.3,0,0.5,0.3,0.5,0.9h2.6
			c0-0.6,0.4-0.9,1.1-0.9v-0.9h-2.5c-0.3-0.6-0.7-0.9-1.2-0.9c-0.1-0.2-0.2-0.5-0.2-0.8H182.6z M182.6,134.9v0.9h1.6
			c0.3,0,0.5,0.1,0.5,0.4v1.6h3.7v1.7h1.8v-1.7h-1.8c0-0.6-0.2-0.9-0.7-0.9c-0.5-0.7-1-1.1-1.4-1.1v-0.9H182.6z M184.6,145.3v1.8
			h1.7c0-0.6,0.3-0.9,0.9-0.9v-0.9H184.6z M186.5,156.7v2.7h1.4c0.3,0,0.5,0.3,0.5,0.8h1.6c0.3,0,0.5,0.4,0.5,1.1h2.6v-0.9
			c-0.6,0-0.9-0.3-0.9-0.8h-1.6c-0.2,0-0.3-0.3-0.3-0.9h-1.4c-0.4-0.7-0.7-1.1-0.9-1.1c-0.5,0-0.7-0.3-0.7-0.9H186.5z M188.3,124.6
			v1.8h1.8v-0.9c-0.6,0-0.9-0.3-0.9-0.9H188.3z M188.3,188.8v1.8h1.8v-1.8H188.3z M188.3,195.4v1.8h1.6c0.3,0,0.5,0.3,0.5,0.9h3.7
			v-0.7c-0.8,0-1.1-0.3-1.1-0.9h-2.5c-0.2,0-0.3-0.4-0.3-1.1H188.3z M190.4,209.5c0,0.6-0.3,0.9-0.9,0.9v0.9h2.4
			c0.3,0,0.5,0.3,0.5,0.9h1.4c0.3,0,0.5,0.4,0.5,1.1h1.8v-1.8h-1.4c-0.3,0-0.5-0.4-0.5-1.1h-1.6c-0.3,0-0.5-0.3-0.5-0.9H190.4z
			 M190.4,126.6v0.6h0.8v-0.6H190.4z M190.4,217.2v1.8h1.7v-0.9c-0.6,0-0.9-0.3-0.9-0.9H190.4z M190.4,224.7v1.7h3.7v-0.7
			c-0.8,0-1.1-0.3-1.1-1h-0.7c0,0.7-0.2,1-0.5,1h-0.2c-0.3,0-0.5-0.3-0.5-1H190.4z M192.3,241.7c0,0.7-0.4,1-1.1,1v0.7h3v-1.7H192.3
			z M192.3,232.2v2.7c0.6,0,0.9,0.3,0.9,0.9h2.5c0.2,0,0.3,0.3,0.3,1h1.6c0.3,0,0.5,0.3,0.5,0.9h1.4c0.5,0.7,1.1,1,1.6,1.1v0.9h2.6
			v-1.8h-1.6c-0.5-0.7-0.9-1.1-1.2-1.1V236h-2.5c-0.3,0-0.5-0.1-0.5-0.4v-1.3h-1.6c-0.3-0.7-0.6-1.1-0.8-1.1c-0.3,0-0.5-0.3-0.5-0.9
			H192.3z M193.2,161.5v0.7h0.9v-0.7H193.2z M193.2,248.2v0.9h0.9v-0.9H193.2z M194.1,276.6v1.8c0.8,0,1.1,0.3,1.1,0.9h2.4
			c0.3,0,0.5,0.3,0.5,1h1.4c0.3,0,0.5,0.3,0.5,0.9h1.6c0.2,0,0.3,0.3,0.3,0.9h1.6c0.3,0,0.5,0.4,0.5,1.1h1.8v0.9h0.9v-0.9h-0.9v-1.8
			h-1.6c-0.5-0.7-1-1.1-1.4-1.1c0-0.7-0.4-1-1.1-1v-0.7h-1.2c-0.3,0-0.5-0.3-0.5-0.9h-1.6c-0.3,0-0.5-0.4-0.5-1.1H194.1z
			 M198.1,98.2v0.7h0.7v-0.7H198.1z M199.9,98.2v1.7h1.7v-0.8c-0.5,0-0.8-0.3-0.8-0.9H199.9z M199.9,109.6v0.7c0.8,0,1.1,0.3,1.1,1
			h2.4c0.3,0,0.5,0.3,0.5,0.9h1.4c0.3,0,0.5,0.3,0.5,0.9h1.5c0.3,0,0.5,0.4,0.5,1.1h1.6c0.3,0,0.5,0.3,0.5,0.9h3.3
			c0.6,0.7,1.1,1.1,1.4,1.1v0.8h2.7v-3.7h-7.1c-0.5-0.7-1.1-1-1.6-1.1v-0.9h-2.2c-0.3,0-0.5-0.3-0.5-0.8h-3.6
			c-0.3,0-0.5-0.3-0.5-0.9H199.9z M199.9,127.4v0.7h1.6c0.2,0.1,0.3,0.2,0.3,0.4v1.6h3.4c0.3,0,0.5,0.1,0.5,0.4v1.6h1.5
			c0.3,0,0.5,0.3,0.5,0.8h1.6c0.3,0,0.5,0.3,0.5,0.9h1.4c0.3,0,0.5,0.4,0.5,1.1h1.5c0.3,0,0.5,0.3,0.5,0.9h1.6
			c0.3,0,0.5,0.1,0.5,0.4v1.6h0.7c0-0.7,0.3-1.1,0.9-1.1v-3.6h-2.5c-0.3,0-0.5-0.3-0.5-1h-2.4c-0.3,0-0.5-0.3-0.5-0.9h-1.4
			c-0.3,0-0.5-0.3-0.5-0.9h-1.6c-0.3,0-0.5-0.3-0.5-0.9h-1.2c-0.3,0-0.5-0.4-0.5-1.1h-1.6c-0.3,0-0.5-0.3-0.5-0.9H199.9z
			 M202.8,99.1v0.8h0.9v-0.8H202.8z M203.9,239.9v0.7c0.6,0,0.9,0.3,0.9,0.9h0.9v-1.6H203.9z M205.7,189.7v0.9h1.7v-0.9H205.7z
			 M207.6,101v0.7h1.8V101H207.6z M207.6,190.8v0.7h1.6c0.3,0,0.5,0.4,0.5,1.1h1.6v-0.9c-0.6,0-0.9-0.3-0.9-0.9H207.6z M209.7,101.9
			v0.9h3.5v-0.9H209.7z M211.5,148.2v0.8h1.7v-0.8H211.5z M211.5,192.6v1.7h3.5c0.3,0,0.5,0.4,0.5,1.1h0.7v-1.8
			c-0.6,0-0.9-0.3-0.9-1H211.5z M211.5,203.8v0.9h0.9v-0.9H211.5z M211.5,225.7v0.7h1.5c0.3,0.1,0.5,0.2,0.5,0.4v1.6h1.6
			c0.6,0.7,1.1,1.1,1.4,1.1c0,0.5,0.3,1,0.9,1.3v0.3h1.7v-1.4c0-0.3,0.3-0.4,0.9-0.4v-0.7c-0.8,0-1.1-0.4-1.1-1.1
			c-0.4,0-0.6-0.3-0.6-0.9h-3.6c-0.3,0-0.5-0.3-0.5-0.9H211.5z M213.4,149v1.8h1.6c0.3,0,0.5,0.4,0.5,1.1h0.7V149H213.4z
			 M213.4,203.8v1.8h1.6c0.3,0.1,0.5,0.2,0.5,0.4v1.6h1.6v-1.8c-0.6,0-0.9-0.3-0.9-0.9h-1.6c-0.3,0-0.5-0.4-0.5-1.1H213.4z
			 M213.4,250.2v0.9h1.8v-0.9H213.4z M217.3,103.9v0.7h1.7v-0.7H217.3z M217.3,251.1v1.7h1.5c0.3,0,0.5,0.4,0.5,1.1h1.8v-1.7h-1.6
			c-0.3,0-0.5-0.4-0.5-1.1H217.3z M219.2,266.3v1.8h1.4c0.3,0,0.5,0.3,0.5,0.9h0.9c0-0.6,0.3-0.9,0.9-0.9v-0.9
			c-0.6,0-0.9-0.3-0.9-0.9H219.2z M358.6,102.8c0,0.7-0.3,1.1-0.9,1.1v1.3c0,0.2-0.2,0.3-0.5,0.3h-1.5c0,0.7-0.2,1.1-0.5,1.1h-3.4
			c0,0.6-0.1,0.9-0.3,0.9h-1.4c-0.3,0-0.5-0.3-0.5-0.9h-1.4c-0.3,0-0.5-0.4-0.5-1.1h-1.8c0,0.7-0.1,1.1-0.3,1.1h-0.2
			c-0.3,0-0.5-0.4-0.5-1.1h-1.8c0,0.7-0.2,1.1-0.5,1.1h-3.5v0.7c0.8,0,1.1,0.1,1.1,0.4v1.3c0,0.3-0.4,0.4-1.1,0.4v3.2
			c0,0.3-0.3,0.4-0.9,0.4v7.2c0,0.3-0.3,0.4-0.9,0.4v4.1c0,0.3-0.4,0.4-1.1,0.4v2.6c0.8,0,1.1,0.1,1.1,0.4v0.4
			c0,0.3-0.4,0.4-1.1,0.4v1.3c0,0.3-0.3,0.4-0.9,0.4v1.7c0.6,0,0.9,0.1,0.9,0.4v0.2c0,0.3-0.3,0.4-0.9,0.4v2.5
			c0,0.3-0.3,0.4-0.8,0.4v4.6c0.5,0,0.8,0.1,0.8,0.4v0.2c-0.7,0.5-1,1-1,1.3c-0.8,0-1.1,0.3-1.1,1h-0.7v0.7c0.6,0,0.9,0.1,0.9,0.4
			v0.2c0,0.3-0.3,0.4-0.9,0.4v7.2c0,0.3-0.3,0.4-0.9,0.4v2.3c0,0.3-0.3,0.4-0.9,0.4v0.9c0.6,0,0.9,0.1,0.9,0.4v1.1
			c0,0.3-0.3,0.4-0.9,0.4v1.4c0,0.3-0.4,0.4-1.1,0.4v5.2c0,0.3-0.3,0.4-0.8,0.4v2.2c0,0.3-0.3,0.4-0.9,0.4v3.5
			c0,0.3-0.4,0.4-1.1,0.4v1.8c0.8,0,1.1,0.1,1.1,0.4v0.2c-0.8,0.3-1.1,0.6-1.1,0.8c0,0.3-0.3,0.4-0.9,0.4v5.2c0,0.3-0.3,0.4-0.9,0.4
			v0.9c0.6,0,0.9,0.2,0.9,0.4v0.2c0,0.3-0.3,0.4-0.9,0.4v4.6c0.6,0,0.9,0.1,0.9,0.4v1.1c0,0.3-0.3,0.4-0.9,0.4v1.4
			c0,0.3-0.4,0.4-1.1,0.4v1.8c0.8,0,1.1,0.1,1.1,0.4v0.2c0,0.3-0.4,0.4-1.1,0.4v1.3c0,0.2-0.3,0.3-0.8,0.3v2.5
			c0,0.3-0.3,0.4-0.9,0.4v1.6c0,0.3-0.4,0.4-1.1,0.4v1.5c0,0.3-0.2,0.4-0.5,0.4h-2c-0.2,0-0.3-0.4-0.3-1.1h-1.6
			c-0.3,0-0.5-0.1-0.5-0.3v-4.2c-0.8,0-1.1-0.4-1.1-1.1c-0.6,0-0.9-0.1-0.9-0.3v-3.3c-0.6,0-0.9-0.1-0.9-0.4v-2.3
			c-0.5,0-0.8-0.1-0.8-0.4v-1.6c-0.8,0-1.1-0.1-1.1-0.4v-1.3c-0.8,0-1.1-0.3-1.1-1c-0.4,0-0.7-0.3-0.9-0.9c-0.6,0-0.9-0.3-0.9-0.9
			h-1.2c-0.4-0.7-0.7-1.1-0.9-1.1c-0.4,0-0.7-0.3-0.9-0.9c-0.5,0-0.7-0.1-0.7-0.4v-0.2c0.8-0.5,1.1-0.9,1.1-1.2
			c0.8,0,1.1-0.4,1.1-1.1h0.6v-1.8H306c-0.6-0.7-1.1-1.1-1.4-1.1c0-0.4-0.3-0.7-0.9-1c0-0.6-0.4-0.9-1.1-0.9v-1.6
			c-0.6,0-0.9-0.1-0.9-0.4v-0.2c0.7-0.5,1.1-1,1.1-1.6h0.9v-1.7c-0.8,0-1.1-0.3-1.1-0.9h-1.2c-0.5-0.7-1.1-1-1.6-1.1v-1.8
			c-0.6,0-0.9-0.1-0.9-0.4v-0.2c0.8-0.5,1.1-0.9,1.1-1.2h0.9v-1.8c-0.9,0-1.4-0.3-1.4-0.9c-0.5,0-0.7-0.4-0.7-1.1h-1.6
			c-0.3,0-0.5-0.1-0.5-0.4V158c0.8-0.4,1.1-0.7,1.1-0.9c0-0.4,0.3-0.7,0.9-0.7v-1.8c-0.6,0-0.9-0.3-0.9-0.8h-1.6
			c-0.2,0-0.3-0.3-0.3-0.9h-1.6c-0.4-0.7-0.7-1.1-0.9-1.1c-0.3,0-0.5-0.1-0.5-0.4v-1.1c0.8-0.6,1.1-1,1.1-1.3h1.8v-2.8
			c-0.6,0-0.9-0.3-0.9-0.9h-1.6c-0.3,0-0.5-0.1-0.5-0.4v-0.2c0-0.3,0.3-0.4,0.9-0.4v-4.6c-0.6,0-0.9-0.1-0.9-0.4v-1.5
			c-0.5,0-0.9-0.3-1.1-0.9c-0.6,0-0.9-0.3-0.9-0.9h-1.2c-0.3,0-0.5-0.1-0.5-0.4v-0.2c0-0.3,0.3-0.4,0.9-0.4V134
			c-0.6,0-0.9-0.1-0.9-0.4v-0.2c0-0.3,0.3-0.4,0.9-0.4v-1.7c-0.5,0-0.9-0.3-1.1-0.9c-0.6,0-0.9-0.1-0.9-0.4v-1.6
			c-0.6,0-0.9-0.1-0.9-0.4v-1.2c-0.6,0-0.9-0.1-0.9-0.4v-1.6c-0.8,0-1.1-0.1-1.1-0.4v-0.2c0.8-0.4,1.1-0.7,1.1-0.9
			c0-0.4,0.3-0.7,0.9-0.7v-3.2c0-0.3,0.3-0.4,0.9-0.4V118c-0.6,0-0.9-0.1-0.9-0.4v-2.3c-0.6,0-0.9-0.1-0.9-0.4v-1.6
			c-0.8,0-1.1-0.1-1.1-0.4v-1.6c-0.5,0-0.8-0.1-0.8-0.4v-1.2h-11.1c-0.3,0-0.5-0.4-0.5-1.1h-0.7c0,0.7-0.2,1.1-0.5,1.1h-1.4
			c-0.3,0-0.5-0.4-0.5-1.1h-7.5c0,0.7-0.2,1.1-0.5,1.1h-0.2c-0.3,0-0.5-0.4-0.5-1.1h-13.2c0,0.7-0.2,1.1-0.5,1.1h-11.1
			c0,0.6-0.4,0.9-1.1,0.9v0.8c0.8,0,1.1,0.2,1.1,0.4v0.2c-0.8,0.4-1.1,0.7-1.1,0.9c-0.7,0.5-1,1-1,1.3h-4.3c-0.3,0-0.5-0.3-0.5-0.9
			h-2.4c-0.3,0-0.5-0.3-0.5-0.9h-4.7v0.7c0.6,0,0.9,0.1,0.9,0.4v1.6c0.5,0,0.8,0.2,0.8,0.4v3c0,0.3-0.3,0.4-0.8,0.4v0.9
			c0.5,0,0.8,0.2,0.8,0.4v0.2c0,0.3-0.3,0.4-0.8,0.4v3.5c0.5,0,0.9,0.3,1,0.9c0.8,0,1.1,0.4,1.1,1.1c0.5,0,0.7,0.1,0.7,0.4v1.2
			c0.6,0,0.9,0.1,0.9,0.4v2.2c-0.8,0.5-1.1,1-1.1,1.3h-2.6v6.2c0,0.3-0.3,0.4-0.9,0.4v1.8c0.5,0,0.9,0.3,1.1,0.9
			c0.4,0,0.6,0.1,0.6,0.4v1.6h1.6c0.3,0,0.5,0.1,0.5,0.3v2c-0.7,0.5-1.1,1-1.1,1.6H221v1.7c0.8,0,1.1,0.2,1.1,0.4v15.4
			c0,0.3-0.4,0.4-1.1,0.4v5.5c0.8,0,1.1,0.1,1.1,0.3v0.2c0,0.3-0.4,0.4-1.1,0.4v2.7c0.8,0,1.1,0.2,1.1,0.4v1.3
			c0,0.2-0.4,0.3-1.1,0.3v1.8c0.8,0,1.1,0.1,1.1,0.4v3.2h1.4c0.5,0.7,0.9,1,1.5,1.1v2.5c-1.4,0.9-2.2,1.7-2.2,2.3h-0.7v14
			c0.6,0,0.9,0.2,0.9,0.4v6.1c0.5,0,0.8,0.1,0.8,0.4v2.3c0.8,0,1.1,0.2,1.1,0.4v5c0,0.3-0.4,0.4-1.1,0.4v0.7h1.6
			c0.3,0,0.5,0.1,0.5,0.4v3c0,0.3-0.3,0.4-0.9,0.4v2.9c0.6,0,0.9,0.2,0.9,0.4v0.2c0,0.2-0.2,0.3-0.5,0.3h-1.6v0.7
			c0.8,0,1.1,0.1,1.1,0.4v1.3c0,0.3-0.4,0.4-1.1,0.4v0.7c0.8,0,1.1,0.2,1.1,0.4v1.2c0,0.3-0.4,0.4-1.1,0.4v1.8
			c0.8,0,1.1,0.1,1.1,0.4v4.1c0.6,0,0.9,0.1,0.9,0.4v12.9c0.6,0,0.9,0.1,0.9,0.4v0.2c0,0.3-0.3,0.4-0.9,0.4v0.6
			c0.6,0,0.9,0.2,0.9,0.4v1.6c0.8,0,1.1,0.1,1.1,0.4v1.1c0,0.3-0.4,0.4-1.1,0.4v1.7c0.8,0,1.1,0.1,1.1,0.4V269
			c0.6,0,0.9,0.1,0.9,0.3v2.5c0.5,0,0.8,0.1,0.8,0.4v8c0.8,0,1.1,0.1,1.1,0.4v0.2c0,0.3-0.4,0.4-1.1,0.4v0.7c0.8,0,1.1,0.1,1.1,0.4
			v2.5c0.6,0,0.9,0.1,0.9,0.4v0.1c0,0.3-0.3,0.4-0.9,0.4v7.5c0.6,0,0.9,0.1,0.9,0.4v0.2c0,0.3-0.3,0.4-0.9,0.4v6.6
			c0.6,0,0.9,0.3,0.9,0.8h1.6c0.3,0,0.5,0.4,0.5,1.1h3.3c0.3,0,0.5,0.3,0.5,0.9h17.8c0.3,0,0.5,0.3,0.5,0.9h0.9
			c0-0.6,0.1-0.9,0.5-0.9h8.2c0-0.6,0.2-0.9,0.5-0.9h1.4v-2.3c0-0.3,0.4-0.4,1.1-0.4v-1.8c-0.8,0-1.1-0.2-1.1-0.4v-1.3
			c0-0.2,0.4-0.3,1.1-0.3v-0.7c-0.8,0-1.1-0.1-1.1-0.4v-32.8c-0.6,0-0.9-0.1-0.9-0.4v-6.1c-0.6,0-0.9-0.1-0.9-0.4v-1.1
			c0-0.3,0.3-0.4,0.9-0.4V253c-0.6,0-0.9-0.1-0.9-0.3v-1.6c-0.8,0-1.1-0.1-1.1-0.4v-2c0-0.3,0.4-0.4,1.1-0.4v-5.5
			c-0.8,0-1.1-0.1-1.1-0.4v-1.4c-0.6,0-0.9-0.1-0.9-0.4v-2.2c0.8-0.6,1.1-1,1.1-1.3h0.9v-1.7c-0.8,0-1.1-0.1-1.1-0.4v-7.2
			c-0.6,0-0.9-0.3-0.9-0.9h-1.5c-0.6-0.7-1.1-1.1-1.4-1.1V224c0-0.3,0.3-0.4,0.9-0.4v-1.3c0-0.3,0.2-0.4,0.5-0.4h1.5v-3.7
			c-0.5,0-0.8-0.3-1-0.9c-0.8,0-1.1-0.4-1.1-1.1l-1.1-0.9c-0.3,0-0.5-0.1-0.5-0.4v-3c0.8-0.6,1.1-1,1.1-1.3h0.5
			c0.3,0,0.5,0.3,0.5,0.9h0.9c0-0.6,0.3-0.9,0.8-0.9v-5.5c-0.5,0-0.8-0.1-0.8-0.4v-12.8c-0.8,0-1.1-0.1-1.1-0.4v-2.5
			c-0.6,0-0.9-0.1-0.9-0.4v-0.2c0.8-0.6,1.1-1,1.1-1.2h5.3c0.3,0,0.5,0.1,0.5,0.3v1.3c0.6,0,0.9,0.2,0.9,0.4v1.6c0.7,0,1,0.1,1,0.4
			v1.6c0.6,0,1,0.3,1.1,0.8c0.5,0,0.7,0.2,0.7,0.4v0.2c0,0.3-0.3,0.4-0.9,0.4v0.9c0.6,0,1,0.3,1.1,0.9c0.6,0,0.9,0.1,0.9,0.4v1.1
			c0,0.2-0.4,0.3-1.1,0.3v0.9c0.8,0,1.1,0.1,1.1,0.4v1.3c0.6,0,0.9,0.2,0.9,0.4v2.3c0.5,0,0.8,0.1,0.8,0.4v1.6
			c0.8,0,1.1,0.1,1.1,0.4v4.3c0.6,0,0.9,0.1,0.9,0.4v2.5c0.6,0,0.9,0.1,0.9,0.4v2.3c0.8,0,1.1,0.3,1.1,0.9h1.4
			c0.2,0.1,0.3,0.2,0.3,0.4v1.1c0,0.3-0.3,0.4-0.8,0.4v0.9c0.5,0,0.8,0.1,0.8,0.3v1.6c0.9,0,1.4,0.3,1.4,0.9c0.5,0,0.7,0.1,0.7,0.4
			v3.2c0.6,0,0.9,0.1,0.9,0.4v1.6c0.8,0,1.1,0.1,1.1,0.4v1.6c0.6,0,0.9,0.1,0.9,0.4v1.2c0.5,0,0.8,0.1,0.8,0.4v2.5
			c0.8,0,1.1,0.1,1.1,0.4v3.2c0.6,0,0.9,0.2,0.9,0.4v1.6c0.6,0,0.9,0.1,0.9,0.4v1.5c0.8,0,1.1,0.1,1.1,0.4v3.3
			c0.6,0,0.9,0.2,0.9,0.4v1.4c0.5,0,0.8,0.2,0.8,0.4v1.3c0.8,0,1.1,0.1,1.1,0.4v2.3c0.8,0,1.1,0.4,1.1,1.1c0.5,0,0.7,0.2,0.7,0.4
			v1.1c0,0.3-0.3,0.4-0.9,0.4v0.9c0.6,0,0.9,0.2,0.9,0.4v1.2c0.6,0,0.9,0.1,0.9,0.4v1.6c0.7,0,1,0.1,1,0.4v2.5
			c0.6,0,0.9,0.1,0.9,0.3v1.6c0.6,0,0.9,0.1,0.9,0.4v1.3c0.8,0,1.1,0.1,1.1,0.4v1.6c0.6,0,0.9,0.1,0.9,0.3v1.6
			c0.6,0,0.9,0.1,0.9,0.4v5c0.7,0,1,0.1,1,0.4v1.6c0.6,0,0.9,0.1,0.9,0.4v3.2c0.6,0,0.9,0.1,0.9,0.4v3.5c0.8,0,1.1,0.1,1.1,0.4v5.2
			c0.6,0,0.9,0.1,0.9,0.4v2.5c0.6,0,0.9,0.1,0.9,0.4v0.2c0,0.3-0.3,0.4-0.9,0.4v2.6c0.6,0,0.9,0.1,0.9,0.4v1.6c0.7,0,1,0.3,1,0.9
			h3.4c0.3,0,0.5,0.3,0.5,0.8h2.4c0.3,0,0.5,0.4,0.5,1.1h1.6c0.3,0,0.5,0.3,0.5,0.9h2.4c0.3,0,0.5,0.3,0.5,0.9h3.4
			c0.3,0,0.5,0.4,0.5,1.1h10.4c0-0.7,0.3-1.1,0.9-1.1v-1.3c0-0.3,0.3-0.4,0.8-0.4v-3.5c0-0.3,0.4-0.4,1.1-0.4v-3.2
			c0-0.3,0.3-0.4,0.9-0.4v-1.6c0-0.3,0.3-0.4,0.9-0.4v-8.9c0-0.3,0.4-0.4,1.1-0.4v-1.6c0-0.3,0.3-0.4,0.9-0.4v-5.2
			c0-0.3,0.3-0.4,0.8-0.4V274c0-0.3,0.4-0.4,1.1-0.4V272c-0.8,0-1.1-0.1-1.1-0.4v-1.3c0-0.3,0.4-0.4,1.1-0.4v-6.9
			c0-0.3,0.3-0.4,0.9-0.4v-3.6c0-0.3,0.3-0.4,0.9-0.4v-0.6c-0.6,0-0.9-0.1-0.9-0.4v-0.2c0-0.3,0.3-0.4,0.9-0.4V255
			c-0.6,0-0.9-0.1-0.9-0.4v-1.3c0-0.3,0.3-0.4,0.9-0.4v-2.3c0-0.3,0.4-0.4,1.1-0.4v-4.1c0-0.3,0.3-0.4,0.9-0.4v-0.9
			c-0.6,0-0.9-0.1-0.9-0.4v-1.1c0.7-0.5,1-1,1-1.5h0.7v-2.7c-0.5,0-0.8-0.3-1-0.9c-0.5,0-0.7-0.1-0.7-0.4v-0.2c0.7-0.5,1-1,1-1.4
			h0.7v-3.6c-0.5,0-0.8-0.1-0.8-0.4v-0.2c0.7-0.5,1-0.9,1-1.2h2.7v-1.8h-1.4c-0.3,0-0.5-0.1-0.5-0.4v-1.6h-1.6
			c-0.2,0-0.3-0.1-0.3-0.4v-1.5c-0.6,0-0.9-0.1-0.9-0.4V224c0-0.3,0.3-0.4,0.9-0.4v-1.3c0-0.3,0.1-0.4,0.3-0.4h3.2
			c0.3,0,0.5,0.3,0.5,0.9h0.9v-1.8c-0.8,0-1.1-0.1-1.1-0.4V219h-1.4c-0.3,0-0.5-0.1-0.5-0.4v-3.1c0.8-0.6,1.1-1,1.1-1.2h0.5
			c0.3,0,0.5,0.3,0.5,0.8h1.7v-5.2c0.1-0.3,0.2-0.4,0.5-0.4h1.6c0-0.5,0.1-0.8,0.5-0.8h1.4v-18.4c0-0.3,0.4-0.4,1.1-0.4v-0.9
			c-0.8,0-1.1-0.1-1.1-0.4v-1.1c0-0.2,0.4-0.3,1.1-0.3v-8.1c0.6-0.5,0.9-1,1-1.6h1.4c0.3,0,0.5,0.4,0.5,1.1h0.9
			c0-0.7,0.2-1.1,0.5-1.1h0.2c0.4,0.7,0.7,1.1,0.9,1.1c0.3,0,0.5,0.3,0.5,0.9h1.5c0.3,0,0.5,0.2,0.5,0.4v0.2c0,0.3-0.3,0.4-0.9,0.4
			v0.9c0.6,0,0.9,0.1,0.9,0.4v2.3c0.6,0,0.9,0.2,0.9,0.4v0.2c0,0.3-0.3,0.4-0.9,0.4v4.6c0.6,0,0.9,0.1,0.9,0.4v2.5
			c0.8,0,1.1,0.1,1.1,0.3v9.9c0.6,0,0.9,0.1,0.9,0.4v1.2c0,0.3-0.3,0.4-0.9,0.4v0.7c0.6,0,0.9,0.1,0.9,0.4v3.2
			c0.6,0,0.9,0.1,0.9,0.4v4.2c0,0.3-0.3,0.4-0.9,0.4v3.5c0.6,0,0.9,0.1,0.9,0.4v6.4c0.7,0,1,0.2,1,0.4v1.2c0.6,0,0.9,0.1,0.9,0.4
			v1.3c0,0.3-0.3,0.4-0.9,0.4v0.7c0.6,0,0.9,0.2,0.9,0.4v1.2c0,0.3-0.3,0.4-0.9,0.4v0.7c0.6,0,0.9,0.1,0.9,0.4v1.3
			c0,0.3-0.3,0.4-0.9,0.4v0.7c0.6,0,0.9,0.1,0.9,0.4v19.4c0.6,0,0.9,0.1,0.9,0.4v1.1c0,0.3-0.3,0.4-0.9,0.4v2.8
			c0.6,0,0.9,0.1,0.9,0.4v0.2c0,0.3-0.3,0.4-0.9,0.4v1.8c0.6,0,0.9,0.1,0.9,0.4v3.2c0.6,0,0.9,0.2,0.9,0.4v18.4
			c0.8,0,1.1,0.1,1.1,0.4v2.3c0.7,0,1,0.4,1,1.1c0.5,0,0.7,0.1,0.7,0.4v3c-0.7,0.6-1,1-1,1.3h-0.7v1.8c0.5,0,0.8,0.1,0.8,0.4v1.5
			h1.6c0.3,0,0.5,0.3,0.5,0.9h3.4c0.2,0,0.3,0.3,0.3,0.9h1.6c0.3,0,0.5,0.4,0.5,1.1h4.2c0.3,0,0.5,0.3,0.5,0.9h4.4
			c0.3,0,0.5,0.3,0.5,0.8h5.3c0.3,0,0.5,0.4,0.5,1.1h3.4c0.3,0,0.5,0.3,0.5,0.9h10.4c0-0.6,0.2-0.9,0.5-0.9h1.5v-1.7
			c-0.7,0-1-0.2-1-0.4v-3.6c-0.6,0-0.9-0.2-0.9-0.4v-1c0-0.3,0.3-0.4,0.9-0.4v-0.9c-0.6,0-0.9-0.1-0.9-0.4v-5.2
			c-0.6,0-0.9-0.1-0.9-0.4v-0.2c0-0.3,0.3-0.4,0.9-0.4v-4.6c-0.6,0-0.9-0.2-0.9-0.4v-3c0-0.3,0.3-0.4,0.9-0.4v-0.7
			c-0.6,0-0.9-0.2-0.9-0.4V272c-0.8,0-1.1-0.1-1.1-0.4v-1.3c0-0.3,0.4-0.4,1.1-0.4v-1.7c-0.8,0-1.1-0.1-1.1-0.4v-19
			c0-0.3,0.4-0.4,1.1-0.4v-3.7c-0.8,0-1.1-0.1-1.1-0.4v-0.2c0-0.3,0.4-0.4,1.1-0.4v-5.5c-0.8,0-1.1-0.1-1.1-0.4v-1.2
			c0-0.3,0.4-0.4,1.1-0.4v-0.7c-0.8,0-1.1-0.1-1.1-0.4v-3.1c0-0.3,0.4-0.4,1.1-0.4v-8.2c-0.8,0-1.1-0.1-1.1-0.4v-0.2
			c0-0.3,0.4-0.4,1.1-0.4V220c-0.8,0-1.1-0.1-1.1-0.3v-6.3c-0.6,0-0.9-0.1-0.9-0.4v-1.1c0-0.3,0.3-0.4,0.9-0.4v-2.6
			c-0.6,0-0.9-0.1-0.9-0.4V203c-0.6,0-0.9-0.1-0.9-0.4v-1.3c0-0.3,0.3-0.4,0.9-0.4v-0.7c-0.6,0-0.9-0.1-0.9-0.4v-3.2
			c-0.7,0-1-0.1-1-0.4v-10.9c-0.6,0-0.9-0.1-0.9-0.4v-0.2c0-0.3,0.3-0.4,0.9-0.4v-1.8c-0.6,0-0.9-0.1-0.9-0.4v-5.2
			c-0.6,0-0.9-0.1-0.9-0.3v-2.5c-0.8,0-1.1-0.1-1.1-0.4v-7.2c-0.6,0-0.9-0.1-0.9-0.4v-0.2c0-0.2,0.3-0.3,0.9-0.3v-7.5
			c-0.6,0-0.9-0.1-0.9-0.4v-0.2c0-0.3,0.3-0.4,0.9-0.4v-1.8c-0.6,0-0.9-0.1-0.9-0.3v-7c-0.6,0-0.9-0.1-0.9-0.4v-2.2
			c0-0.3,0.3-0.4,0.9-0.4v-2.6c-0.6,0-0.9-0.1-0.9-0.4v-10.9c-0.5,0-0.8-0.1-0.8-0.4v-0.2c0-0.3,0.3-0.4,0.8-0.4v-1.8
			c-0.5,0-0.8-0.1-0.8-0.3v-2.2c0-0.3,0.3-0.4,0.8-0.4v-6.1c0-0.3,0.3-0.4,0.9-0.4v-0.9c-0.6,0-0.9-0.1-0.9-0.4v-5.8
			c0-0.3,0.3-0.4,0.9-0.4v-4.7c-0.6,0-0.9-0.3-0.9-0.8h-2.4c-0.3,0-0.5-0.3-0.5-0.9h-19.7c-0.3,0-0.5-0.4-0.5-1.1h-8.5v0.9
			c0.6,0,0.9,0.1,0.9,0.4v0.2c0,0.3-0.2,0.4-0.5,0.4h-6c-0.3,0-0.5-0.3-0.5-0.9H360c-0.3,0-0.5-0.4-0.5-1.1H358.6z M252.1,113h0.2
			c0.3,0.1,0.5,0.2,0.5,0.4v0.2c0,0.3-0.2,0.4-0.5,0.4h-0.2c-0.3,0-0.5-0.1-0.5-0.4v-0.2C251.7,113.2,251.9,113,252.1,113z
			 M270.1,216.1v2.9h1.8v-1.8c-0.6,0-0.9-0.4-0.9-1.1H270.1z M271,265.2v0.9h2.8v-0.9H271z M284.7,251.1v0.9c0.5,0,0.8,0.3,0.8,0.8
			h0.9v-1.7H284.7z M288.4,262.4v0.9h0.9v-0.9H288.4z M299.1,140.5v0.9c0.5,0,0.9,0.3,1.1,0.9c0.5,0,0.7,0.4,0.7,1.1h2.4
			c0.3,0,0.5,0.3,0.5,0.8h1.8v-1.7c-0.6,0-0.9-0.3-0.9-0.9h-2.5c-0.3,0-0.5-0.4-0.5-1.1H299.1z M304.9,91.6v0.7h0.7v-0.7H304.9z
			 M305.8,92.5v1.8h3.7v0.8h0.9v-0.8c-0.6,0-0.9-0.2-0.9-0.7c-0.8-0.1-1.1-0.5-1.1-1.1H305.8z M307.7,153.9v0.8h0.7v-0.8H307.7z
			 M311.5,94.3V96h1.5c0.3,0,0.5,0.4,0.5,1.1h1.4c0.3,0,0.5,0.3,0.5,0.9h1.6c0.3,0,0.5,0.3,0.5,0.9h1.5c0.3,0,0.5,0.3,0.5,1h1.4
			c0.3,0,0.5,0.3,0.5,0.9h1.6c0.3,0,0.5,0.3,0.5,0.9h1.5c0.3,0,0.5,0.4,0.5,1.1h2.5c0.3,0,0.5,0.3,0.5,0.9h2.6v-1.8h-2.4
			c-0.5-0.7-1.1-1-1.6-1.1v-0.9h-3.3c-0.3,0-0.5-0.1-0.5-0.3v-1.3h-3.4c-0.3,0-0.5-0.1-0.5-0.4v-1.6h-3.3c-0.3,0-0.5-0.3-0.5-0.9
			h-1.6c-0.3,0-0.5-0.3-0.5-1H311.5z M315.7,211.3h1.1c0.3,0.1,0.5,0.2,0.5,0.4v0.2c-0.8,0.5-1.1,1-1.1,1.3h-0.5
			c-0.3,0-0.5-0.1-0.5-0.4v-1.1C315.4,211.4,315.5,211.3,315.7,211.3z M317.3,181.2v1.7h1.7v-0.7c-0.5,0-0.8-0.3-0.8-1H317.3z
			 M318.2,133.1v0.7h2.8v-0.7H318.2z M318.2,155.8v0.7h0.8v-0.7H318.2z M325,141.7v1.3c-0.8,0.3-1.1,0.6-1.1,0.8
			c0,0.4-0.1,0.7-0.3,0.7h-1.4v0.7c0.8,0,1.1,0.4,1.1,1.1c0.4,0,0.6,0.1,0.6,0.4v1.3c0.8,0,1.1,0.1,1.1,0.4v1.2
			c0,0.3-0.4,0.4-1.1,0.4v1.8c0.8,0,1.1,0.2,1.1,0.4v1.1c-0.8,0.4-1.1,0.7-1.1,0.9c-0.6,0.4-0.9,0.9-1,1.5h-2.7v0.7
			c0.6,0,0.9,0.2,0.9,0.4v1.6h1.6c0.3,0,0.5,0.1,0.5,0.4v2.3h1.7v-1.4c0-0.3,0.3-0.4,0.9-0.4V158c0-0.3,0.3-0.4,0.9-0.4v-6.3
			c0-0.3,0.4-0.4,1.1-0.4v-5.2c0-0.3,0.3-0.4,0.9-0.4v-2.6c-0.6,0-0.9-0.3-0.9-0.9H325z M321.1,165.3v0.6h1.8v-0.6H321.1z
			 M323.9,91.6v0.7h2.5c0.3,0,0.5,0.3,0.5,0.9h1.6c0.3,0,0.5,0.4,0.5,1.1h1.7v-0.9c-0.8,0-1.2-0.3-1.2-0.9c-0.5,0-0.7-0.3-0.7-0.9
			H323.9z M325,134c0,0.6-0.4,0.9-1.1,0.9v0.9h2.7v-0.9c-0.6,0-0.9-0.3-0.9-0.9H325z M326.9,136v0.7h1.8V136H326.9z M331.7,102.8
			c0,0.7-0.3,1.1-0.9,1.1v1.7h3.6v-1.7h-1.6c-0.3,0-0.5-0.4-0.5-1.1H331.7z M344.4,293.4h0.2c0.3,0.1,0.5,0.2,0.5,0.4v0.2
			c0,0.3-0.2,0.4-0.5,0.4h-0.2c-0.3,0-0.5-0.1-0.5-0.4v-0.2C344,293.5,344.1,293.4,344.4,293.4z M345.1,280.5v0.7h0.9v-0.7H345.1z
			 M350,264.3v0.9h0.9v-0.9H350z M352.8,267.2v0.9h2.7v-0.9H352.8z M353.7,95.3V96h1.8v-0.7H353.7z M355.8,96.2v0.9h0.9v-0.9H355.8z
			 M359.5,217.2v1.8h1.8v-1.8H359.5z M361.6,287.9v0.9h1.7v-0.9H361.6z M362.5,238.8v0.9h0.8v-0.9H362.5z M363.5,239.9v0.7h0.7v-0.7
			H363.5z M363.5,256.7v0.9h1.6v-0.9H363.5z M363.5,288.8v1.8h1.6v-1.8H363.5z M365.3,290.8c0,0.5-0.3,0.8-0.9,0.8v0.9h1.8v-1.7
			H365.3z M415.6,205.6h0.2c0.3,0.1,0.5,0.2,0.5,0.4v0.2c0,0.3-0.2,0.4-0.5,0.4h-0.2c-0.3,0-0.5-0.1-0.5-0.4v-0.2
			C415.2,205.8,415.3,205.6,415.6,205.6z"/>
		<path class="st1" d="M499.3,80.5h0.2c0.3,0,0.5,0.3,0.5,0.9h4.6c0-0.6,0.2-0.9,0.5-0.9h0.2c0.3,0,0.5,0.3,0.5,0.9h2.4
			c0.3,0,0.5,0.4,0.5,1.1h8.3c0.5,0.6,0.9,0.9,1.5,1v0.7h1.4c0.4,0.7,0.7,1.1,0.9,1.1c0.5,0,0.7,0.3,0.7,0.9h1.5
			c0-0.6,0.1-0.9,0.5-0.9h0.5c0.6,0.7,1.1,1.1,1.4,1.1v1.8h0.7c0-0.7,0.1-1.1,0.5-1.1h1.4c0.3,0,0.4,0.1,0.4,0.4V89h2.4
			c0.6,0.7,1.1,1.1,1.4,1.1V91h2.4c0.3,0,0.5,0.3,0.5,0.9h1.6c0.3,0,0.5,0.3,0.5,0.9h1.4c0.3,0,0.5,0.4,0.5,1.1h1.5
			c0.3,0,0.5,0.3,0.5,0.8h2.5c0.6,0.7,1.1,1.1,1.4,1.1v0.7h2.4c0.5,0.7,0.8,1.1,0.9,1.1c0.5,0,0.7,0.3,0.7,0.9h1.4
			c0.3,0,0.5,0.3,0.5,0.9h1.5c0.5,0.7,0.8,1,0.9,1c0.3,0.1,0.5,0.2,0.5,0.4v1.3c0.8,0,1.1,0.1,1.1,0.4v1.6h1.4
			c0.3,0,0.5,0.1,0.5,0.4v1.5h0.8c0-0.7,0.2-1,0.5-1h0.2c0.3,0,0.5,0.1,0.5,0.3v1.6c0.6,0,0.9,0.1,0.9,0.4v1.6
			c0.8,0,1.1,0.3,1.1,0.9h1.4c0.3,0,0.5,0.1,0.5,0.4v1.5c0.8,0,1.2,0.3,1.2,0.9c0.5,0,0.7,0.2,0.7,0.4v1.1c0,0.3-0.3,0.4-0.9,0.4
			v0.9h1.4c0.3,0,0.5,0.1,0.5,0.4v1.5c0.8,0,1.1,0.1,1.1,0.4v4.1c0.6,0,0.9,0.2,0.9,0.4v1.6c0.5,0,0.8,0.1,0.8,0.4v6.1h0.9
			c0-0.6,0.1-0.9,0.5-0.9h0.2c0.3,0.1,0.5,0.2,0.5,0.4v1.1c0,0.3-0.4,0.4-1.1,0.4v1.7c0.8,0,1.1,0.1,1.1,0.4v6.1
			c0.6,0,0.9,0.2,0.9,0.4v7.2c0.6,0,0.9,0.1,0.9,0.4v0.2c0,0.3-0.3,0.4-0.9,0.4v3.7c0.6,0,0.9,0.1,0.9,0.4v1.1
			c0,0.3-0.3,0.4-0.9,0.4v1.7c0.6,0,0.9,0.1,0.9,0.4v0.2c0,0.3-0.3,0.4-0.9,0.4v0.9c0.6,0,0.9,0.2,0.9,0.4v8.7
			c0,0.3-0.3,0.4-0.9,0.4v0.7c0.6,0,0.9,0.1,0.9,0.4v4.1c-0.8,0.5-1.1,1-1.1,1.3h-0.7v1.6c-0.8,0.3-1.1,0.6-1.1,0.8
			c-0.7,0.6-1,1-1,1.3h-2.7c0,0.7-0.2,1.1-0.5,1.1h-9.1v0.7h1.5c0.3,0,0.5,0.3,0.5,0.9h2.5c0.3,0,0.5,0.4,0.5,1.1h0.7
			c0-0.7,0.2-1.1,0.5-1.1h0.2c0.3,0,0.5,0.4,0.5,1.1h2.4c0.3,0,0.5,0.3,0.5,0.8h1.8c0-0.5,0.2-0.8,0.5-0.8h1c0.5,0.6,1.1,0.9,1.6,1
			v0.7h1.4c0.4,0.7,0.7,1.1,0.9,1.1c0.4,0,0.7,0.3,0.9,0.9c0.3,0,0.6,0.3,0.8,0.9c0.5,0,0.7,0.1,0.7,0.4v2.3h0.9
			c0-0.6,0.1-0.9,0.5-0.9h0.2c0.3,0.1,0.5,0.2,0.5,0.4v0.2c0,0.3-0.3,0.4-0.9,0.4v4.6c0.6,0,0.9,0.1,0.9,0.4v0.2
			c0,0.3-0.3,0.4-0.9,0.4v1.6c0,0.3-0.4,0.4-1.1,0.4v4.6c0.8,0,1.1,0.1,1.1,0.4v1.1c0,0.3-0.4,0.4-1.1,0.4v2.6
			c0.8,0,1.1,0.1,1.1,0.4v0.2c0,0.3-0.4,0.4-1.1,0.4v1.6c0,0.2-0.3,0.3-0.9,0.3v1.8c0.6,0,0.9,0.1,0.9,0.4v3.1
			c0,0.2-0.3,0.3-0.9,0.3v1.8c0.6,0,0.9,0.1,0.9,0.4v1.1c0,0.3-0.3,0.4-0.9,0.4v1.7c0.6,0,0.9,0.1,0.9,0.4v3.1
			c0,0.3-0.3,0.4-0.9,0.4v6.6c0.6,0,0.9,0.1,0.9,0.3v1.1c0,0.3-0.3,0.4-0.9,0.4v10.3c0.6,0,0.9,0.1,0.9,0.4v2.2
			c0,0.3-0.3,0.4-0.9,0.4v1.5c0.6,0,0.9,0.1,0.9,0.4v0.4c0,0.3-0.3,0.4-0.9,0.4v0.7c0.6,0,0.9,0.2,0.9,0.4v1.3
			c0,0.3-0.3,0.4-0.9,0.4v0.7c0.6,0,0.9,0.1,0.9,0.3v2.2c0,0.3-0.3,0.4-0.9,0.4v1.8c0.6,0,0.9,0.1,0.9,0.4v0.2
			c0,0.2-0.3,0.3-0.9,0.3v1.8c0.6,0,0.9,0.2,0.9,0.4v2c0,0.3-0.3,0.4-0.9,0.4v0.8c0.6,0,0.9,0.2,0.9,0.4v0.2c0,0.3-0.3,0.4-0.9,0.4
			v3.8c0.6,0,0.9,0.2,0.9,0.4v0.1c0,0.3-0.3,0.4-0.9,0.4v1.8c0.6,0,0.9,0.1,0.9,0.4v1.1c0,0.3-0.3,0.4-0.9,0.4v8.2
			c0.6,0,0.9,0.1,0.9,0.4v1.3c0,0.3-0.3,0.4-0.9,0.4v4.3c0.6,0,0.9,0.1,0.9,0.4v0.4c0,0.3-0.3,0.4-0.9,0.4v3.2
			c0,0.3-0.3,0.4-0.8,0.4v0.7c0.5,0,0.8,0.1,0.8,0.4v1.3c0,0.3-0.3,0.4-0.8,0.4v2.3c-0.8,0.4-1.1,0.7-1.1,0.9c0,0.3-0.3,0.4-0.9,0.4
			v2.3c0,0.3-0.2,0.4-0.5,0.4h-1.6c0,0.6-0.2,0.9-0.5,0.9h-8.9c-0.3,0-0.5-0.3-0.5-0.9h-9.1c-0.3,0-0.5-0.3-0.5-0.8h-5.3
			c-0.4-0.7-0.7-1.1-0.9-1.1c-0.5-0.7-1-1.1-1.4-1.1v-2.4c0.1-0.3,0.2-0.4,0.5-0.4h1.4c0-0.5,0.1-0.8,0.5-0.8h3.5
			c0-0.6,0.3-0.9,0.9-0.9v-0.9h-4.4c-0.3,0-0.5-0.3-0.5-0.9h-1.8c0,0.5-0.3,0.9-0.9,1.1l-0.9,1.1c0,0.4-0.1,0.7-0.3,0.7h-1.6
			c0,0.4-0.3,0.8-0.9,1c0,0.4-0.4,0.7-1.1,0.9c0,0.6-0.2,0.9-0.5,0.9h-1.2v1.3c0,0.3-0.2,0.4-0.5,0.4h-2.5c0,0.7-0.2,1.1-0.5,1.1
			H528c0,0.5-0.1,0.8-0.4,0.8H526c0,0.6-0.2,0.9-0.5,0.9h-1.4c0,0.7-0.2,1.1-0.5,1.1h-2.4c0,0.6-0.2,0.9-0.5,0.9h-3.6
			c0,0.6-0.1,0.9-0.3,0.9h-2.5c0,0.7-0.2,1-0.5,1h-4.2c0,0.6-0.2,0.9-0.5,0.9h-2.5c0,0.6-0.2,0.9-0.5,0.9h-10.9
			c-0.3,0-0.5-0.3-0.5-0.9h-1.7c0,0.6-0.2,0.9-0.5,0.9h-3.2c-0.5-0.7-0.9-1.1-1.2-1.1v-0.7h-1.8c0,0.6-0.3,0.9-0.9,0.9v0.9
			c0.6,0,0.9,0.1,0.9,0.4v0.2c0,0.3-0.3,0.4-0.9,0.4v1.3c0,0.3-0.2,0.4-0.5,0.4h-0.5c-0.3,0-0.5-0.3-0.5-0.9h-1.5
			c0,0.6-0.2,0.9-0.5,0.9h-1.4c-0.5-0.7-1-1.1-1.4-1.1c0-0.6-0.4-0.9-1.1-0.9v-0.9h-2.2c-0.3,0-0.5-0.3-0.5-0.9h-4.4
			c-0.3,0-0.5-0.3-0.5-0.9h-0.9c0,0.6-0.2,0.9-0.5,0.9h-4c-0.6-0.7-1.1-1-1.4-1v-0.9h-1.6c-0.3,0-0.5-0.3-0.5-0.9H460
			c-0.3,0-0.5-0.3-0.5-0.9H457c-0.3,0-0.5-0.4-0.5-1.1h-3.3c-0.3,0-0.5-0.3-0.5-0.9h-1.6c-0.3,0-0.5-0.3-0.5-0.8h-4.4
			c-0.4-0.7-0.7-1.1-0.9-1.1c-0.3,0-0.5-0.3-0.5-0.9h-1.5c-0.3,0-0.5-0.2-0.5-0.4v-1.6h-3.4c-0.2,0-0.3-0.1-0.3-0.4v-1.2
			c-0.6,0-0.9-0.1-0.9-0.4v-1.6c-0.5,0-0.9-0.3-1.1-0.9c-0.5,0-0.9-0.3-1.1-0.9c-0.5,0-0.8-0.4-0.9-1.1c-0.4,0-0.7-0.3-0.9-0.8
			c-0.5,0-0.8-0.3-1-0.9c-0.5,0-0.8-0.4-0.9-1.1l-2.3-1.8c-0.3,0-0.5-0.2-0.5-0.4v-0.4c0-0.2,0.3-0.3,0.9-0.3v-0.7h-1.4
			c-0.3,0-0.5-0.2-0.5-0.4v-1.6c-0.7,0-1-0.1-1-0.4v-1.3c-0.6,0-0.9-0.1-0.9-0.4V277h-1.6c-0.3,0-0.5-0.2-0.5-0.4v-2.3
			c-0.6,0-0.9-0.1-0.9-0.4v-7c-0.6,0-0.9-0.1-0.9-0.4V260c-0.7,0-1-0.1-1-0.4v-7.8c-0.6,0-0.9-0.1-0.9-0.4v-10.7
			c0-0.3,0.3-0.4,0.9-0.4v-2.7c-0.6,0-0.9-0.1-0.9-0.4v-0.2c0-0.3,0.3-0.4,0.9-0.4v-1.7c-0.6,0-0.9-0.1-0.9-0.4v-1.3
			c0-0.3,0.3-0.4,0.9-0.4v-12c-0.6,0-0.9-0.1-0.9-0.4v-0.1c0-0.3,0.3-0.4,0.9-0.4v-3.8c-0.6,0-0.9-0.1-0.9-0.4v-6.9
			c-0.6,0-0.9-0.4-0.9-1.1h-1.6c-0.3,0-0.5-0.1-0.5-0.4v-0.2c0.8-0.6,1.1-1,1.1-1.3c0.5,0,1-0.3,1.4-0.9h0.5v-3.7
			c-0.6,0-0.9-0.3-0.9-0.9h-1.6c-0.3,0-0.5-0.1-0.5-0.4V199c0-0.3,0.3-0.4,0.9-0.4v-2.3c0-0.3,0.4-0.4,1.1-0.4v-8.6
			c-0.8,0-1.1-0.1-1.1-0.3v-1.3c-0.8,0-1.1-0.4-1.1-1.1c-0.5,0-0.7-0.1-0.7-0.4v-0.2c0.8-0.6,1.1-1,1.1-1.3h0.7V181
			c0-0.3,0.4-0.4,1.1-0.4V177c-0.8,0-1.1-0.1-1.1-0.4v-3c0-0.3,0.4-0.4,1.1-0.4v-4.6h-1.6c-0.3,0-0.5-0.3-0.5-0.9h-1.5
			c-0.3,0-0.5-0.1-0.5-0.4v-1.6h-1.4c-0.3,0-0.5-0.1-0.5-0.3v-0.2c0-0.3,0.3-0.4,0.9-0.4v-1.6c0-0.3,0.2-0.4,0.5-0.4h1.5
			c0-0.5,0.3-0.9,0.9-1.1c0-0.4,0.3-0.7,0.9-0.7v-19.4c0-0.3,0.4-0.4,1.1-0.4v-0.9c-0.8,0-1.1-0.1-1.1-0.4v-7.6
			c0-0.3,0.4-0.4,1.1-0.4v-0.9c-0.8,0-1.1-0.1-1.1-0.4v-1.1c0-0.3,0.4-0.4,1.1-0.4v-5.2c0-0.3,0.3-0.4,0.9-0.4v-4.3
			c0-0.3,0.3-0.4,0.9-0.4v-2.3c0-0.3,0.3-0.4,1-0.4v-1.6c0-0.3,0.3-0.4,0.9-0.4v-1.3c0-0.3,0.3-0.4,0.9-0.4v-2.3
			c0.1-0.3,0.2-0.4,0.5-0.4h1.6c0-0.7,0.3-1.1,0.9-1.1v-1.3c0.7-0.4,1-0.7,1-0.9c0-0.3,0.3-0.6,0.9-0.8c0-0.4,0.3-0.7,0.9-0.9
			c0-0.4,0.4-0.7,1.1-0.7v-1.6c0.6-0.4,0.9-0.7,0.9-1.1c0.4,0,0.8-0.4,1.2-1.2h1.6c0-0.6,0.3-1,0.9-1.1c0-0.4,0.4-0.7,1.1-0.9
			c0-0.5,0.3-0.9,0.9-1.1c0-0.4,0.2-0.7,0.5-0.7h1.2c0-0.6,0.2-0.9,0.5-0.9h1.6c0-0.5,0.3-0.9,0.9-1c0-0.6,0.1-0.9,0.5-0.9h2.4
			c0-0.6,0.1-0.9,0.5-0.9h1.6c0-0.6,0.1-0.9,0.5-0.9h1.6c0-0.7,0.1-1.1,0.5-1.1h1.2c0-0.6,0.1-0.9,0.5-0.9h1.6
			c0-0.5,0.2-0.8,0.5-0.8h2.4c0-0.7,0.2-1.1,0.5-1.1h2.5c0-0.6,0.2-0.9,0.5-0.9h2.4c0-0.6,0.2-0.9,0.5-0.9h2.5
			c0-0.7,0.2-1.1,0.5-1.1h6.2c0-0.5,0.1-0.8,0.5-0.8h1.5c0-0.6,0.1-0.9,0.5-0.9h14.1c0-0.7,0.2-1.1,0.5-1.1h10
			C498.9,80.8,499,80.5,499.3,80.5z M427.1,130.7c0,0.7-0.4,1.1-1.1,1.1c0,0.5-0.3,0.8-0.9,0.8v0.7h1.8c0-0.5,0.3-0.8,0.9-0.8v-1.8
			H427.1z M426,144.9c0,0.6-0.3,0.9-0.9,0.9v0.9c0.6,0,0.9,0.3,0.9,0.9h0.9c0-0.6,0.3-0.9,0.9-0.9v-1.8H426z M426,174.2
			c0,0.6-0.3,0.9-0.9,0.9v1.7c0.6,0,0.9,0.3,0.9,0.9h2.4c0.3,0,0.5,0.4,0.5,1.1h4.8v-0.9h-1.4c-0.3,0-0.5-0.3-0.5-0.9h-1.6
			c-0.3,0-0.5-0.1-0.5-0.4v-1.4h-1.5c-0.3,0-0.5-0.3-0.5-0.9H426z M426,192.9v1.8c0.8,0,1.1,0.2,1.1,0.4v1.6c0.6,0,0.9,0.3,0.9,0.9
			h2.4c0.5,0.7,0.8,1,0.9,1c0.3,0,0.5,0.3,0.5,0.9h1.6c0.3,0.1,0.5,0.2,0.5,0.4v1.6h1.5c0.3,0,0.5,0.3,0.5,0.9h1.4
			c0.3,0,0.5,0.3,0.5,0.9h1.8c0-0.6,0.3-0.9,0.8-0.9v-0.9H438c-0.3,0-0.5-0.1-0.5-0.4v-1.3h-1.6c-0.4-0.7-0.7-1.1-0.9-1.1
			c-0.3,0-0.5-0.3-0.5-0.8h-1.5c-0.6-0.7-1.1-1.1-1.4-1.1v-1.8h-1.6c-0.3,0-0.5-0.3-0.5-0.9h-1.5c-0.3,0-0.5-0.4-0.5-1.1H426z
			 M427.1,246.1v0.7h0.7v-0.7H427.1z M428,122.2v1.8c0.5,0,0.9,0.3,1,0.9c0.6,0,0.9,0.4,0.9,1.1h1.4c0.3,0,0.5,0.3,0.5,0.9h1.6
			c0.3,0,0.5,0.3,0.5,0.8h1.5c0.3,0,0.5,0.4,0.5,1.1h0.7c0-0.7,0.4-1.1,1.1-1.1v-0.6c-0.8,0-1.1-0.4-1.1-1.1h-2.5
			c-0.2,0-0.3-0.1-0.3-0.4v-1.3h-1.4c-0.3,0-0.5-0.1-0.5-0.4v-1.6h-0.9c0,0.6-0.2,0.9-0.5,0.9h-0.2c-0.3,0-0.5-0.3-0.5-0.9H428z
			 M428,146.7v1.8h1.5c0.3,0,0.5,0.3,0.5,1h0.7v-1.7c-0.6,0-0.9-0.4-0.9-1.1H428z M428.8,221.3c0,0.6-0.2,0.9-0.6,0.9H428v0.9h0.8
			c0-0.6,0.2-0.9,0.7-0.9h0.2v-0.9H428.8z M428.8,237.5c0,0.6-0.3,0.9-0.8,0.9v0.9h1.7v-1.8H428.8z M428,246.9v3.5
			c0.5,0,0.8,0.1,0.8,0.4v0.4c0,0.3-0.3,0.4-0.8,0.4v0.7c0.5,0,0.8,0.1,0.8,0.3v2.2c0,0.3-0.3,0.4-0.8,0.4v0.7h2.6
			c0-0.6,0.2-0.9,0.5-0.9h1.6c0-0.6,0.2-0.9,0.5-0.9h0.2c0.3,0,0.5,0.3,0.5,0.9h3.3c0.3,0,0.5,0.3,0.5,0.9h1.6
			c0.2,0,0.3,0.4,0.3,1.1h0.7c0-0.7,0.4-1.1,1.1-1.1v-1.6h-1.6c-0.3-0.7-0.6-1.1-0.8-1.1c-0.3,0-0.5-0.3-0.5-0.8h-2.5
			c-0.3,0-0.5-0.1-0.5-0.4v-1.6h-1.6c-0.3-0.6-0.6-0.9-1-0.9c0-0.3-0.4-0.7-1.1-1.3c0-0.6-0.4-0.9-1.1-0.9v-0.6H428z M428.8,259.1
			v0.9h0.9v-0.9H428.8z M429.9,260v0.9h2.7V260H429.9z M429.9,267.7v0.9c0.6,0,1,0.3,1.1,0.8l1.1,0.9c0.5,0,0.7,0.4,0.7,1.1h2.4
			c0.6,0.7,1.1,1.1,1.4,1.1v0.7h2.5c0.2,0,0.3,0.4,0.3,1.1h0.7c0-0.7,0.4-1.1,1.1-1.1v-0.7h-1.6c-0.2,0-0.3-0.4-0.3-1.1H438
			c-0.4-0.6-0.8-0.9-1.4-0.9c-0.2-0.2-0.2-0.5-0.2-0.9h-2.5c-0.2,0-0.3-0.1-0.3-0.4v-1.5H429.9z M433.8,179v0.7h0.8V179H433.8z
			 M435.7,107.1v1.8h0.7c0-0.7,0.4-1.1,1.1-1.1v-0.7H435.7z M435.7,280.9v1.8h3.6v-0.9c-0.6,0-0.9-0.3-0.9-0.9H435.7z M437.5,127.8
			v0.9h0.9v-0.9H437.5z M438.7,128.7v0.9h0.7v-0.9H438.7z M439.5,114.6v0.9c0.6,0,1,0.3,1.1,0.8c0.6,0,0.9,0.4,0.9,1.1h0.7
			c0-0.7,0.1-1.1,0.5-1.1h0.2c0.3,0.1,0.5,0.2,0.5,0.4v1.6h0.9c0-0.6,0.1-0.9,0.5-0.9h0.2c0.2,0.1,0.3,0.2,0.3,0.4v1.3h1.6
			c0.3,0,0.5,0.4,0.5,1.1h1.4c1,1.1,1.6,1.7,1.9,1.7c0.5,0.7,0.8,1.1,0.9,1.1c0.3,0,0.5,0.3,0.5,0.9h0.9c0-0.5,0.3-0.9,0.9-1.1
			c0-0.6,0.3-0.9,0.9-0.9v-1.7h-1.4c-0.3-0.6-0.8-0.9-1.4-0.9c-0.2-0.3-0.2-0.6-0.2-0.9h-2.4c-0.3,0-0.5-0.4-0.5-1.1h-0.7
			c0,0.7-0.2,1.1-0.5,1.1h-0.2c-0.3,0-0.5-0.1-0.5-0.4v-1.6h-1.6c-0.3,0-0.5-0.3-0.5-0.8h-1.5c-0.3,0-0.5-0.4-0.5-1.1H439.5z
			 M440.4,159.2v0.7h0.9v-0.7H440.4z M441.5,159.9v0.9c0.6,0,0.9,0.3,0.9,0.9h1.6c0.6,0.7,1,1.1,1.2,1.1v0.9h0.7v-1.6
			c0-0.3,0.4-0.4,1.1-0.4v-1.8H441.5z M441.5,256.3v1.8h1.6v-0.9c-0.6,0-0.9-0.3-0.9-0.9H441.5z M441.5,273.3v1.7h0.7v-1.7H441.5z
			 M443.3,99.5c0,0.7-0.3,1-0.9,1v0.7c0.6,0,0.9,0.3,0.9,0.9h2.6v-0.7c-0.6,0-0.9-0.1-0.9-0.4v-1.5H443.3z M444.4,177
			c0,0.6-0.4,0.9-1.1,0.9v0.9h2.6c0-0.7,0.4-1.1,1.1-1.1V177H444.4z M444.4,210v0.9c0.5,0,0.8,0.1,0.8,0.4v1.3h0.7
			c0-0.6,0.4-0.9,1.1-0.9V210H444.4z M445.2,197.8v0.8h0.7v-0.8H445.2z M446.1,224.2v1.5c0,0.3-0.3,0.4-0.9,0.4v0.7h1.8v-1.3
			c0-0.2,0.3-0.3,0.9-0.3v-0.9H446.1z M507.7,99.5c0,0.7-0.2,1-0.5,1h-4.4c0,0.6-0.1,0.9-0.4,0.9h-4.2c0,0.6-0.2,0.9-0.5,0.9h-0.2
			c-0.3,0-0.5-0.3-0.5-0.9h-0.9c0,0.5-0.3,0.9-0.9,1.1c0,0.6-0.1,0.9-0.3,0.9h-1.6c0,0.6-0.2,0.9-0.5,0.9h-1.6
			c0,0.6-0.2,0.9-0.5,0.9h-1.1c-0.2,0-0.3-0.3-0.3-0.9h-2.7v1.2c0,0.3-0.3,0.4-0.9,0.4v1.6c0,0.3-0.2,0.4-0.5,0.4h-3.5
			c0,0.6-0.2,0.9-0.5,0.9h-1.1c-0.3,0-0.5-0.3-0.5-0.9H476v1.6c0,0.3-0.2,0.4-0.5,0.4h-1.4c0,0.5-0.2,0.8-0.5,0.8h-1.5v2.5
			c-0.8,0.5-1.1,1-1.1,1.3c-0.6,0-0.9,0.2-0.9,0.7c0,0.3-0.2,0.4-0.5,0.4h-2.5c0,0.4-0.3,0.8-0.8,1c0,0.4-0.3,0.7-0.9,0.7v0.9
			c0.6,0,0.9,0.2,0.9,0.4v1.1c0,0.3-0.3,0.4-0.9,0.4v1.4c0,0.3-0.2,0.4-0.5,0.4h-2.5c0,0.6-0.2,0.9-0.5,0.9h-2.4
			c0,0.7-0.4,1.1-1.1,1.1v1.8c0.8,0,1.1,0.2,1.1,0.4v1.2c0.8,0,1.1,0.4,1.1,1.1l1,0.9c0.5,0,0.7,0.1,0.7,0.4v0.2
			c-0.7,0.4-1,0.7-1,0.9c-0.7,0.5-1.1,1-1.1,1.4c-0.4,0-0.8,0.3-1.1,0.9h-1.6v0.7h1.6c0.4,0.7,0.7,1.1,0.9,1.1
			c0.3,0,0.5,0.3,0.5,0.9h1.7c0-0.6,0.2-0.9,0.5-0.9h0.2c0.3,0,0.5,0.2,0.5,0.4v0.2c0,0.3-0.3,0.4-0.9,0.4v3.2c-0.7,0.4-1,0.7-1,0.9
			c0,0.4-0.3,0.7-0.9,0.9c0,0.4-0.2,0.7-0.5,0.7h-2.5c0,0.6-0.2,0.9-0.5,0.9h-2.2c-0.3,0-0.5-0.3-0.5-0.9H454c0,0.6-0.4,0.9-1.1,0.9
			v1.7c0.8,0,1.1,0.2,1.1,0.4v8.8c0,0.3-0.4,0.4-1.1,0.4v0.8c0.8,0,1.1,0.2,1.1,0.4v1.1c0,0.3-0.4,0.4-1.1,0.4v1.8
			c0.8,0,1.1,0.1,1.1,0.4v0.2c0,0.2-0.4,0.3-1.1,0.3v3.3c0,0.3-0.3,0.4-0.9,0.4v4.6c0.6,0,0.9,0.1,0.9,0.4v0.2
			c0,0.3-0.3,0.4-0.9,0.4v0.9c0.6,0,0.9,0.1,0.9,0.4v1c0,0.3-0.3,0.4-0.9,0.4v2.7c0.6,0,0.9,0.1,0.9,0.4v1.2c0,0.3-0.3,0.4-0.9,0.4
			v1.8c0.6,0,0.9,0.1,0.9,0.4v2.5c0.8,0,1.1,0.1,1.1,0.3v0.2c0,0.3-0.4,0.4-1.1,0.4v4.6h-0.9v1.8h0.9v-1.8h0.7
			c0.3,0.1,0.5,0.2,0.5,0.4v1.1c0,0.3-0.4,0.4-1.1,0.4v3.3c0,0.2-0.3,0.3-0.9,0.3v1.8c0.6,0,0.9,0.2,0.9,0.4v2.5
			c0.8,0,1.1,0.1,1.1,0.4v0.1c0,0.3-0.4,0.4-1.1,0.4v17.9c0.8,0,1.1,0.1,1.1,0.4v1.1c0,0.3-0.4,0.4-1.1,0.4v0.9
			c0.8,0,1.1,0.1,1.1,0.4v1.9c0,0.3-0.4,0.4-1.1,0.4v0.9c0.8,0,1.1,0.2,1.1,0.4v0.2c0,0.3-0.4,0.4-1.1,0.4v0.9
			c0.8,0,1.1,0.1,1.1,0.3v13.8c0.5,0,0.9,0.3,1.1,0.9c0.5,0,0.7,0.2,0.7,0.4v3c0,0.3-0.3,0.4-0.9,0.4v3.5c0.8,0,1.1,0.4,1.1,1.1
			c0.5,0,0.8,0.1,0.8,0.4v1.1c0,0.3-0.3,0.4-1,0.4v4.6c0.7,0,1,0.2,1,0.4v0.2c0,0.3-0.3,0.4-1,0.4v1.8c0.8,0,1.2,0.3,1.2,0.8
			c0.5,0,0.7,0.2,0.7,0.4v1.6h1.6c0.6,0.7,1.1,1.1,1.4,1.1c0,0.7,0.6,1.3,1.7,1.9c0.2,0,0.2,0.1,0.2,0.2v2.2c-0.7,0.4-1,0.7-1,0.9
			c-0.8,0.5-1.1,1-1.1,1.3h-0.7v0.8c0.5,0,0.9,0.3,1.1,0.9c0.5,0,0.7,0.4,0.7,1.1h1.5c0.3,0,0.5,0.3,0.5,0.9h1.6
			c0.4,0.6,0.8,0.9,1.1,0.9c0.1,0.5,0.4,1,1,1.5v4c0,0.3-0.3,0.4-0.8,0.4v0.9c0.5,0,0.9,0.3,1,0.8c0.6,0,1,0.3,1.1,0.9
			c0.5,0,0.7,0.4,0.7,1.1h1.6c0.3,0,0.5,0.1,0.5,0.4v1.3c0.5,0,0.9,0.3,1.1,0.9c0.4,0,0.6,0.3,0.8,1c0.6,0,0.9,0.1,0.9,0.4v0.2
			c-0.8,0.4-1.1,0.7-1.1,0.9c0,0.3-0.3,0.4-0.8,0.4v2.6c0.5,0,0.8,0.1,0.8,0.4v1.6c0.8,0,1.1,0.1,1.1,0.4v1.6c0.6,0,0.9,0.3,0.9,0.9
			h0.9c0-0.6,0.1-0.9,0.5-0.9h0.2c0.3,0,0.5,0.1,0.5,0.4v1.2h1.2c0.3,0.1,0.5,0.2,0.5,0.4v1.6h2.5c0.5,0.7,1.1,1,1.6,1.1v0.9h1.2
			c0.3,0,0.5,0.3,0.5,0.9h4.5c0.2,0,0.3,0.3,0.3,0.8h3.4c0.3,0,0.5,0.4,0.5,1.1h5.3c0.3,0,0.5,0.3,0.5,0.9h3.7
			c0-0.6,0.2-0.9,0.5-0.9h6.2c0-0.7,0.2-1.1,0.5-1.1h5.3c0-0.5,0.2-0.8,0.5-0.8h2.4c0-0.6,0.1-0.9,0.5-0.9h3.4
			c0-0.7,0.1-1.1,0.5-1.1h1.5c0-0.6,0.1-0.9,0.5-0.9h2.5c0-0.6,0.1-0.9,0.5-0.9h1.2c0-0.7,0.2-1.1,0.5-1.1h1.6c0-0.5,0.3-0.9,0.9-1
			c0-0.4,0.2-0.7,0.5-0.7h1.6c0-0.9,0.3-1.3,0.8-1.3c0-0.4,0.2-0.7,0.5-0.7h1.6c0-0.5,0.3-0.9,0.9-1.1c0-0.7,0.4-1,1.1-1
			c0-0.4,0.3-0.7,0.9-0.9c0-0.4,0.3-0.7,0.8-0.9c0-0.7,0.4-1.1,1.1-1.1c0-0.4,0.3-0.7,0.9-0.9c0-0.4,0.3-0.7,0.9-0.9
			c0-0.7,0.4-1,1.1-1l0.8-1.1c0.1-0.3,0.2-0.4,0.5-0.4h1.6c0-0.6,0.1-0.9,0.5-0.9h6c0.3,0,0.5,0.3,0.5,0.9h1.4
			c0.3,0,0.5,0.3,0.5,0.9h1.5c0.3,0,0.5,0.3,0.5,0.9h1.6c0.3,0,0.5,0.1,0.5,0.3v1.6c0.5,0,0.9,0.3,1.1,0.9c0.5,0,0.7,0.4,0.7,1.1
			h1.5c0.3,0,0.5,0.1,0.5,0.4v1.2c0.6,0,0.9,0.1,0.9,0.4v1.6h1.8v-3.2c0-0.3,0.3-0.4,0.9-0.4v-2.7c-0.6,0-0.9-0.2-0.9-0.4v-0.4
			c0-0.2,0.3-0.3,0.9-0.3v-4.2c0-0.3,0.3-0.4,1-0.4V279c-0.7,0-1-0.1-1-0.4v-3.1c0-0.3,0.3-0.4,1-0.4v-2.6c-0.7,0-1-0.2-1-0.4v-5
			c0-0.3,0.3-0.4,1-0.4v-25.3c-0.7,0-1-0.1-1-0.4v-0.2c0-0.3,0.3-0.4,1-0.4v-0.9c-0.7,0-1-0.1-1-0.4v-0.2c0-0.3,0.3-0.4,1-0.4v-0.7
			c-0.7,0-1-0.1-1-0.4v-1.2c0-0.3,0.3-0.4,1-0.4v-0.7c-0.7,0-1-0.1-1-0.4v-12.7c0-0.3,0.3-0.4,1-0.4v-1.7c-0.7,0-1-0.1-1-0.4v-4
			c0-0.3,0.3-0.4,1-0.4V214c-0.7,0-1-0.1-1-0.4v-7c0-0.3,0.3-0.4,1-0.4v-1.8c-0.7,0-1-0.1-1-0.4v-8.9h-3.6c0,0.6-0.2,0.9-0.5,0.9
			h-2.2c-0.3,0-0.5-0.1-0.5-0.4v-0.2c0-0.3,0.3-0.4,0.9-0.4V194h-3.6c0,0.6-0.2,0.9-0.5,0.9H554c0,0.6-0.1,0.9-0.5,0.9h-2.5
			c0,0.7-0.2,1.1-0.5,1.1h-4.2c-0.3,0-0.5-0.4-0.5-1.1h-2.4c-0.3,0-0.5-0.3-0.5-0.9h-6.2c-0.3,0-0.5-0.3-0.5-0.9h-1.6
			c-0.3,0-0.5-0.4-0.5-1.1h-0.6c0,0.7-0.2,1.1-0.5,1.1h-5.1c-0.3,0-0.4-0.4-0.4-1.1h-3.6c0,0.7-0.2,1.1-0.5,1.1h-13
			c0,0.6-0.3,0.9-0.9,0.9v0.9c0.6,0,0.9,0.2,0.9,0.4v1.1c0,0.3-0.3,0.4-0.9,0.4v3.2c0,0.3-0.4,0.4-1.1,0.4v0.9
			c0.8,0,1.1,0.1,1.1,0.4v13.5c0,0.3-0.4,0.4-1.1,0.4v8.9c0,0.3-0.3,0.4-0.9,0.4v0.7c0.6,0,0.9,0.2,0.9,0.4v4.1
			c0,0.3-0.3,0.4-0.9,0.4v2.7c0.6,0,0.9,0.3,0.9,0.9h9.3c0.3,0,0.5,0.3,0.5,1h0.7c0-0.7,0.1-1,0.5-1h1.4c0.3,0,0.5,0.3,0.5,1h2.4
			c0.3,0,0.5,0.3,0.5,0.9h1.4c0.5,0.7,1.1,1,1.6,1.1c0,0.5,0.3,1,0.9,1.3v2.3c0.5,0,0.9,0.3,1,0.9c0.5,0,0.7,0.1,0.7,0.4v1.6
			c0.8,0,1.1,0.2,1.1,0.4v0.2c0,0.3-0.4,0.4-1.1,0.4v5.5c0.8,0,1.1,0.1,1.1,0.4v0.2c0,0.3-0.4,0.4-1.1,0.4v4.1
			c0,0.3-0.3,0.4-0.9,0.4v2.3c0,0.3-0.3,0.4-0.8,0.4v1.6c0,0.3-0.3,0.4-0.9,0.4v1.6c-0.8,0.3-1.1,0.6-1.1,0.8
			c-0.8,0.6-1.1,1-1.1,1.3h-1.8c0,0.7-0.1,1.1-0.3,1.1h-1.4c0,0.6-0.2,0.9-0.5,0.9h-1.6c0,0.6-0.2,0.9-0.5,0.9h-2.4
			c0,0.7-0.2,1-0.5,1h-6.2c0,0.6-0.2,0.9-0.5,0.9h-2.3c-0.3,0-0.5-0.3-0.5-0.9h-3.3c-0.4-0.7-0.7-1-0.9-1c-0.4,0-0.7-0.3-0.9-0.9
			l-1-0.9c-0.4-0.7-0.7-1.1-0.9-1.1c-0.5,0-0.7-0.1-0.7-0.4v-1.3h-1.4c-0.3,0-0.5-0.1-0.5-0.3V262c-0.9,0-1.4-0.3-1.4-0.9
			c-0.5,0-0.7-0.4-0.7-1.1h-3.3c-0.5-0.7-1.1-1-1.6-1.1v-1.2c0.8-0.4,1.1-0.7,1.1-0.9c0-0.4,0.1-0.7,0.5-0.7h1.4
			c0-0.7,0.4-1.1,1.1-1.1c0-0.4,0.3-0.7,0.8-0.7v-0.9c-0.5,0-0.8-0.1-0.8-0.4v-6c-0.8,0-1.1-0.1-1.1-0.4V244c-0.6,0-0.9-0.1-0.9-0.4
			v-7.2c-0.6,0-0.9-0.1-0.9-0.3v-5.2h-0.9c0,0.7-0.2,1-0.5,1h-0.2c-0.2,0-0.3-0.1-0.3-0.4v-1.4h-1.6c-0.3,0-0.5-0.1-0.5-0.4v-2.2
			c0-0.3,0.4-0.4,1.1-0.4v-0.7H486c-0.4-0.7-0.7-1-0.9-1c-0.5,0-0.7-0.1-0.7-0.4v-0.2c0.8-0.4,1.1-0.7,1.1-0.9
			c0.8-0.6,1.1-1,1.1-1.3h1.8c0-0.7,0.3-1.1,0.9-1.1v-0.7c-0.6,0-0.9-0.1-0.9-0.4v-1.2c0-0.3,0.2-0.4,0.5-0.4h1.2v-1.6h-1.2
			c-0.3,0-0.5-0.1-0.5-0.4v-3.2c0-0.3,0.2-0.4,0.5-0.4h1.2v-5.5c-0.5,0-0.8-0.1-0.8-0.4v-1.3h-1.6c-0.3,0-0.5-0.1-0.5-0.4v-2.1
			c0.8-0.4,1.1-0.7,1.1-0.9c0-0.3,0.3-0.4,0.9-0.4v-0.9c-0.5,0-0.9-0.3-1.1-0.9c-0.6,0-0.9-0.1-0.9-0.4V199c0.8-0.4,1.1-0.7,1.1-0.9
			c0-0.4,0.2-0.6,0.5-0.6h1.2c0-0.6,0.4-0.9,1.1-0.9v-11.1c-0.9,0-1.4-0.4-1.4-1.1c-0.4,0-0.6-0.1-0.6-0.4v-1.1c0.7-0.6,1-1,1-1.2
			h0.9v-3.6c0-0.3,0.3-0.4,0.9-0.4V177c-0.6,0-0.9-0.1-0.9-0.4v-6c-0.8,0-1.1-0.1-1.1-0.4v-1.3c0-0.3,0.4-0.4,1.1-0.4v-4.1
			c0-0.3,0.3-0.4,0.9-0.4V158c-0.6,0-0.9-0.1-0.9-0.4v-1.3h-1.6c-0.2,0-0.3-0.1-0.3-0.4v-0.2c0.6-0.5,0.9-1,1-1.5
			c0.6,0,1.1-0.3,1.4-0.9l1.1-0.9c0-0.7,0.5-1.1,1.4-1.1v-2.6c-0.8,0-1.1-0.1-1.1-0.4v-1.6c-0.6,0-0.9-0.1-0.9-0.4v-2
			c0.7-0.5,1.1-1,1.1-1.4h3.7v-1.3c0.7-0.5,1.1-1,1.1-1.6h1.8v-3.2c0-0.3,0.1-0.4,0.5-0.4h1.2c0-0.6,0.1-0.9,0.5-0.9h3.6
			c0-0.9,0.3-1.3,0.8-1.3c0-0.4,0.2-0.7,0.5-0.7h1.6c0-0.5,0.2-0.8,0.5-0.8h1.4c0-0.6,0.2-0.9,0.5-0.9h1.5c0-0.7,0.2-1.1,0.5-1.1
			h2.5c0-0.6,0.2-0.9,0.5-0.9h6c0.3,0,0.5,0.3,0.5,0.9h2.4c0.3,0,0.5,0.2,0.5,0.4v1.6h1.6c0.6,0.7,1.1,1,1.4,1v1.8
			c0.5,0,0.8,0.2,0.8,0.4v2.3c0.6,0,1,0.3,1.1,0.9c0.6,0,0.9,0.1,0.9,0.4v3.3h1.4c0.3,0,0.5,0.1,0.5,0.4v0.2c0,0.2-0.3,0.3-0.9,0.3
			v3.8c0.6,0,0.9,0.1,0.9,0.4v2.3c0.8,0,1.1,0.2,1.1,0.4v3.1c0,0.3-0.4,0.4-1.1,0.4v2.6c0.8,0,1.1,0.1,1.1,0.4v0.2
			c0,0.3-0.4,0.4-1.1,0.4v0.9c0.8,0,1.1,0.1,1.1,0.4v1c0,0.3-0.4,0.4-1.1,0.4v4.6c0.8,0,1.1,0.1,1.1,0.4v1.3c0,0.3-0.4,0.4-1.1,0.4
			v6.3h5.3c0.3,0,0.5,0.3,0.5,0.9h8.6c0-0.6,0.1-0.9,0.5-0.9h10.9c0-0.6,0.2-0.9,0.5-0.9h3.5v-1.6c0-0.3,0.3-0.4,0.9-0.4v-1.2
			c0-0.3,0.3-0.4,0.9-0.4v-3.8c-0.6,0-0.9-0.1-0.9-0.3v-0.2c0-0.3,0.3-0.4,0.9-0.4v-4.7c-0.6,0-0.9-0.1-0.9-0.3v-3.1
			c0-0.3,0.3-0.4,0.9-0.4v-0.9c-0.6,0-0.9-0.1-0.9-0.4v-0.2c0-0.2,0.3-0.3,0.9-0.3v-1.8c-0.6,0-0.9-0.1-0.9-0.4v-3.2
			c-0.6,0-0.9-0.1-0.9-0.4v-1.1c0-0.3,0.3-0.4,0.9-0.4v-1.8c-0.6,0-0.9-0.1-0.9-0.4v-5.2c-0.7,0-1-0.1-1-0.4v-7.1
			c-0.6,0-0.9-0.1-0.9-0.4v-3.3c-0.6,0-0.9-0.1-0.9-0.4v-2.3c-0.8,0-1.1-0.1-1.1-0.4v-2.4c-0.6,0-0.9-0.1-0.9-0.4v-1.4
			c-0.6,0-0.9-0.1-0.9-0.4v-3.3c-0.5,0-0.8-0.1-0.8-0.3v-1.6c-0.8,0-1.1-0.3-1.1-0.9h-1.4c-0.3,0-0.4-0.1-0.4-0.4v-1.6
			c-0.8,0-1.1-0.3-1.1-0.9h-1.2c-0.3,0-0.5-0.1-0.5-0.3v-1.6c-0.9,0-1.4-0.3-1.4-0.9c-0.5,0-0.7-0.3-0.7-0.9h-1.6
			c-0.4-0.7-0.7-1.1-0.9-1.1c-0.3,0-0.5-0.3-0.5-0.8h-1.5c-0.6-0.7-1.1-1.1-1.4-1.1v-0.7h-2.5c-0.2,0-0.3-0.1-0.3-0.4v-1.6h-1.6
			c-0.3,0-0.5-0.3-0.5-0.9h-4.2c-0.3,0-0.5-0.3-0.5-1h-10.4c0,0.7-0.2,1-0.5,1h-2.5c0,0.6-0.2,0.9-0.5,0.9h-0.2
			c-0.3,0-0.5-0.3-0.5-0.9h-1.5c-0.3,0-0.5-0.3-0.5-1H507.7z M456.8,93v0.9c0.6,0,1,0.3,1.1,0.8c0.5,0,0.7,0.3,0.7,0.9h3.7v-1.7
			h-3.3c-0.3,0-0.5-0.3-0.5-0.9H456.8z M469.5,312.8h0.2c0.3,0.1,0.5,0.2,0.5,0.4v0.2c0,0.3-0.2,0.4-0.5,0.4h-0.2
			c-0.3,0-0.5-0.2-0.5-0.4v-0.2C469.1,312.9,469.3,312.8,469.5,312.8z M474.4,114.6h0.2c0.3,0,0.5,0.1,0.5,0.4v0.2
			c0,0.3-0.2,0.4-0.5,0.4h-0.2c-0.3,0-0.5-0.1-0.5-0.4V115C474,114.7,474.2,114.6,474.4,114.6z M474.4,118.3h0.2
			c0.3,0.1,0.5,0.2,0.5,0.4v0.2c0,0.3-0.2,0.4-0.5,0.4h-0.2c-0.3,0-0.5-0.1-0.5-0.4v-0.2C474,118.4,474.2,118.3,474.4,118.3z
			 M476.4,113.5h0.2c0.3,0,0.5,0.1,0.5,0.4v1.6c0.6,0,0.9,0.1,0.9,0.4v0.2c0,0.2-0.1,0.3-0.5,0.3h-0.2c-0.6-0.7-1.1-1-1.4-1v-1.6
			C476,113.6,476.1,113.5,476.4,113.5z M483.1,109.8h1c0.3,0,0.5,0.1,0.5,0.4v0.2c0,0.2-0.2,0.3-0.5,0.3h-1c-0.3,0-0.5-0.1-0.5-0.3
			v-0.2C482.7,109.9,482.8,109.8,483.1,109.8z M486,135.3h0.2c0.3,0,0.5,0.2,0.5,0.4v0.2c0,0.3-0.2,0.4-0.5,0.4H486
			c-0.3,0-0.5-0.1-0.5-0.4v-0.2C485.6,135.5,485.7,135.3,486,135.3z M496.2,164.8v0.6c0.6,0,0.9,0.1,0.9,0.4v3.1
			c0,0.3-0.3,0.4-0.9,0.4v0.9c0.6,0,1,0.3,1.1,0.8c0.6,0,0.9,0.3,0.9,0.9h1.4c0.3,0,0.5,0.4,0.5,1.1h2.4c0.3,0,0.4,0.3,0.4,0.9h2.5
			c0.5,0.7,1,1,1.5,1.1v0.9h6.2c0.3,0,0.5,0.3,0.5,0.8h2.5c0.3,0,0.5,0.3,0.5,0.9h1.5c0.3,0,0.5,0.4,0.5,1.1h2.5
			c0.6,0.7,1.1,1.1,1.4,1.1v0.7h1.5c0.3,0,0.5,0.4,0.5,1.1h2.5c0.3,0,0.5,0.3,0.5,0.8h2.6c0-0.5,0.3-0.9,0.9-1
			c0-0.6,0.3-0.9,0.9-0.9v-0.7c-0.6,0-0.9-0.3-0.9-0.9h-0.9c0,0.6-0.1,0.9-0.5,0.9h-2.2c0,0.6-0.2,0.9-0.5,0.9h-0.5
			c-0.3,0-0.5-0.1-0.5-0.4V179h-3.3c-0.3,0-0.5-0.1-0.5-0.4V177h-1.6c-0.3,0-0.5-0.3-0.5-0.8h-1.4c-0.3,0-0.5-0.4-0.5-1.1h-1.5
			c-0.3,0-0.5-0.1-0.5-0.4v-1.3h-1.4c-0.3,0-0.5-0.4-0.5-1.1h-3.5c-0.6-0.7-1.1-1.1-1.4-1.1v-0.6h-3.4c-0.3-0.7-0.6-1.1-0.8-1.1
			c-0.4,0-0.7-0.3-0.9-0.9c-0.5,0-0.7-0.3-0.7-0.9h-1.6c-0.3,0-0.5-0.1-0.5-0.4v-1.6c-0.6,0-0.9-0.3-0.9-0.8H496.2z M497.1,192.1
			v0.8h1.8v-0.8H497.1z M499.1,192.9v0.9h1.5c0.3,0,0.5,0.3,0.5,0.9h2.7v-1.8H499.1z M501.1,218.5v0.9h0.7v-0.9H501.1z M502,217.6
			v0.7h0.9v-0.7H502z M510,104.1h1.1c0.3,0,0.5,0.1,0.5,0.4v0.2c0,0.3-0.2,0.4-0.5,0.4H510c-0.3,0-0.5-0.1-0.5-0.4v-0.2
			C509.6,104.3,509.7,104.1,510,104.1z M510.7,240.4v0.7h1.7v-0.7H510.7z M512.8,106.9h0.2c0.3,0.1,0.5,0.2,0.5,0.4v0.2
			c0,0.3-0.2,0.4-0.5,0.4h-0.2c-0.3,0-0.5-0.1-0.5-0.4v-0.2C512.5,107.1,512.6,106.9,512.8,106.9z M512.6,241.3v0.8h1.4
			c0.3,0,0.5,0.3,0.5,0.9h1.6c0.3,0,0.5,0.3,0.5,0.9h1.5c0.3,0,0.5,0.4,0.5,1.1h3.6V242h-1.6c-0.3,0-0.5-0.3-0.5-0.8H512.6z
			 M518.4,135.5v1.6c0.6,0,0.9,0.1,0.9,0.4v1.5c0.6,0,0.9,0.1,0.9,0.4v1.6h1.8v-1.8c-0.6,0-0.9-0.1-0.9-0.4v-1.5
			c-0.8,0-1.1-0.1-1.1-0.4v-1.3H518.4z M522.3,141.2v0.7h0.6v-0.7H522.3z M524.2,144.9c0,0.6-0.2,0.9-0.5,0.9h-1.5v2.7h2.6v-3.6
			H524.2z M523.1,142.1v0.7h0.9v-0.7H523.1z M526,159.9c0,0.6-0.2,0.9-0.5,0.9h-1.4v2.9c0.6,0,1,0.3,1.1,0.9c0.5,0,0.7,0.3,0.7,0.8
			h0.9v-5.5H526z M525.1,151.5v2.7h0.7c0-0.6,0.4-0.9,1.1-0.9v-0.9c-0.8,0-1.1-0.3-1.1-0.9H525.1z M557.8,296.9v0.9h2.7v-0.9H557.8z
			"/>
		<path class="st1" d="M565.7,91.8h0.2c0.3,0,0.5,0.4,0.5,1.1h1.6c0.3,0,0.5,0.3,0.5,0.9h0.6c0-0.6,0.1-0.9,0.5-0.9h6.2
			c0-0.7,0.2-1.1,0.5-1.1h1.4c0.3,0,0.5,0.4,0.5,1.1h1.4c0.3,0,0.5,0.3,0.5,0.9h0.8c0-0.6,0.2-0.9,0.5-0.9h16.9
			c0-0.7,0.1-1.1,0.4-1.1h0.2c0.3,0,0.5,0.4,0.5,1.1h1.8c0-0.7,0.2-1.1,0.5-1.1h0.2c0.3,0,0.5,0.4,0.5,1.1h2.6
			c0-0.7,0.2-1.1,0.5-1.1h6.9c0.3,0,0.5,0.4,0.5,1.1h0.8c0-0.7,0.1-1.1,0.5-1.1h3.2c0.3,0,0.5,0.4,0.5,1.1h0.9
			c0-0.7,0.1-1.1,0.5-1.1h5.9c0.3,0,0.5,0.4,0.5,1.1h15.2c0-0.7,0.1-1.1,0.5-1.1h4.2c0.3,0,0.5,0.4,0.5,1.1h4.2
			c0.3,0,0.5,0.3,0.5,0.9h1.6c0.3,0,0.5,0.1,0.5,0.4v1.5c0.5,0,0.8,0.3,0.8,0.9h1.6c0.3,0,0.5,0.3,0.5,0.9h1.4
			c0.4,0.7,0.7,1.1,0.9,1.1c0.4,0,0.6,0.3,0.6,0.9h1.4c0.3,0,0.5,0.3,0.5,0.8h1.6c0.9,1.5,1.7,2.2,2.4,2.2v0.7h1.4
			c0.5,0.7,0.8,1.1,0.9,1.1l1.1,0.9c0.3,0,0.5,0.3,0.5,0.8h1.5c0.5,0.7,0.8,1.1,0.9,1.1c0.3,0.1,0.5,0.2,0.5,0.4v2
			c0,0.3-0.3,0.4-0.9,0.4v7.1c0,0.3-0.3,0.4-1,0.4v13.8c0,0.3-0.3,0.4-0.9,0.4v9.8c0,0.3-0.3,0.4-0.9,0.4v10.9
			c0,0.3-0.4,0.4-1.1,0.4v8.9c0,0.3-0.3,0.4-0.9,0.4v5.2c0,0.3-0.3,0.4-0.9,0.4v5.2c0,0.3-0.3,0.4-1,0.4v10c0,0.3-0.3,0.4-0.9,0.4
			v7.2c0,0.3-0.3,0.4-0.9,0.4v9.8c0,0.3-0.4,0.4-1.1,0.4v8c0,0.3-0.3,0.4-0.9,0.4v2.4c0,0.3-0.3,0.4-0.9,0.4v8c0,0.3-0.3,0.4-1,0.4
			v8.1c0,0.2-0.3,0.3-0.9,0.3v6.1c0,0.3-0.3,0.4-0.9,0.4v3.3c0,0.3-0.4,0.4-1.1,0.4v5.7h1.6c0.6,0.7,1.1,1,1.4,1v0.7h4.4
			c0.3,0,0.5,0.4,0.5,1.1h2.4c0.3,0,0.5,0.3,0.5,0.9h1.6c0.3,0,0.5,0.1,0.5,0.4v5c0,0.3-0.4,0.4-1.1,0.4v8.9c0,0.3-0.3,0.4-0.9,0.4
			v22.3c0,0.3-0.3,0.4-0.9,0.4v8.9c0,0.3-0.3,0.4-1,0.4v2.4c-0.8,0.5-1.1,1-1.1,1.3h-7.1c-0.3,0-0.5-0.3-0.5-0.9h-20
			c0,0.6-0.2,0.9-0.5,0.9h-0.2c-0.3,0-0.5-0.3-0.5-0.9h-2.8c0,0.6-0.2,0.9-0.5,0.9h-2c-0.3,0-0.5-0.3-0.5-0.9h-0.9
			c0,0.6-0.1,0.9-0.5,0.9h-0.2c-0.3,0-0.5-0.3-0.5-0.9h-2.6c0,0.7-0.4,1-1.1,1c0,0.6-0.2,0.9-0.5,0.9h-3.1c-0.3,0-0.5-0.2-0.5-0.4
			v-1.4c-0.5,0-0.9-0.3-1.1-0.9c-0.5,0-0.7-0.1-0.7-0.4v-1.6h-4.4c-0.5-0.7-1-1.1-1.4-1.1V296h-2.4c-0.4-0.6-0.8-0.9-1.4-0.9
			c-0.2-0.3-0.2-0.6-0.2-0.9h-1.4c-0.3,0-0.5-0.1-0.5-0.4v-1.6h-1.6c-0.2,0-0.3-0.3-0.3-0.9h-2.5c-0.3,0-0.5-0.3-0.5-1h-1.4
			c-0.3-0.6-0.7-0.9-1.2-0.9c-0.2-0.3-0.2-0.6-0.2-0.9h-2.5c-0.3,0-0.5-0.2-0.5-0.4v-3.5c-0.6,0-0.9-0.1-0.9-0.4v-1.3
			c-0.8,0-1.1-0.4-1.1-1.1c-0.5,0-0.8-0.3-1-0.9c-0.5,0-0.7-0.1-0.7-0.4v-0.2c0-0.2,0.3-0.3,0.9-0.3v-2.5c0-0.3,0.1-0.4,0.5-0.4h1.5
			v-5.5c-0.6,0-0.9-0.1-0.9-0.4v-1.6c-0.7,0-1-0.1-1-0.4v-1.2c-0.6,0-0.9-0.1-0.9-0.4V264c0-0.3,0.3-0.4,0.9-0.4v-5.5
			c-0.6,0-0.9-0.1-0.9-0.3v-7c-0.6,0-0.9-0.1-0.9-0.4v-2.4c-0.9,0-1.4-0.3-1.4-1c-0.5,0-0.7-0.1-0.7-0.4v-1.3
			c-0.6,0-0.9-0.1-0.9-0.4v-1.3c0.8-0.6,1.1-1,1.1-1.3h0.7v-4.6c-0.6,0-0.9-0.1-0.9-0.4v-5c0-0.3,0.3-0.4,0.9-0.4V230
			c-0.6,0-0.9-0.1-0.9-0.4v-7c0.1-0.3,0.2-0.4,0.5-0.4h2.5c0-0.6,0.1-0.9,0.5-0.9h8.2c0-0.6,0.1-0.9,0.4-0.9h1.4c0-0.7,0.4-1,1.1-1
			v-0.7c-0.8,0-1.1-0.1-1.1-0.4v-4.3c-0.6,0-0.9-0.1-0.9-0.4V211c-0.5,0-0.9-0.3-1.1-0.9c-0.5,0-0.7-0.1-0.7-0.4v-2.3
			c-0.7,0-1-0.1-1-0.4v-5.2c-0.6,0-0.9-0.1-0.9-0.4v-1.6c-0.6,0-0.9-0.1-0.9-0.4v-3.2c-0.8,0-1.1-0.1-1.1-0.4v-1.6
			c-0.6,0-0.9-0.1-0.9-0.4v-1.2c-0.6,0-0.9-0.1-0.9-0.4v-1.3c0-0.3,0.3-0.4,0.9-0.4v-1.8c-0.6,0-0.9-0.1-0.9-0.4v-1.2
			c-0.7,0-1-0.1-1-0.4v-2.4c-0.6,0-0.9-0.1-0.9-0.4v-3.5c-0.6,0-0.9-0.1-0.9-0.4v-2.5c-0.8,0-1.1-0.1-1.1-0.4v-2.3
			c-0.6,0-0.9-0.1-0.9-0.4v-3.2c-0.6,0-0.9-0.1-0.9-0.4v-2.5c-0.7,0-1-0.1-1-0.4v-1.6c-0.6,0-0.9-0.1-0.9-0.3v-3.3
			c-0.6,0-0.9-0.1-0.9-0.4V159c-0.8,0-1.1-0.1-1.1-0.4v-2.4c-0.6,0-0.9-0.1-0.9-0.4v-2.3c-0.5,0-0.8-0.1-0.8-0.4v-2.5
			c-0.8,0-1.1-0.1-1.1-0.4v-1.2c-0.6,0-0.9-0.1-0.9-0.4v-1.6c-0.6,0-0.9-0.1-0.9-0.4v-3.2c-0.8,0-1.1-0.1-1.1-0.4v-1.6
			c-0.6,0-0.9-0.1-0.9-0.4v-2.4c-0.5,0-0.8-0.1-0.8-0.3v-1.6c-0.8,0-1.1-0.1-1.1-0.4v-7c-0.6,0-0.9-0.1-0.9-0.4v-5.2
			c-0.6,0-0.9-0.1-0.9-0.4v-4.3c-0.8,0-1.1-0.1-1.1-0.4v-3.2c-0.6,0-0.9-0.1-0.9-0.4v-2.5c-0.5,0-0.8-0.1-0.8-0.4V109
			c-0.8,0-1.1-0.1-1.1-0.4V107c-0.6,0-0.9-0.1-0.9-0.4v-1.3c-0.6,0-0.9-0.1-0.9-0.3v-1.6c-0.8,0-1.1-0.1-1.1-0.4v-1.6
			c-0.5,0-0.9-0.3-1-0.9c-0.5,0-0.7-0.1-0.7-0.4v-2.3c-0.8,0-1.1-0.1-1.1-0.4v-1.6c-0.6,0-0.9-0.1-0.9-0.4V95c0.6-0.4,0.9-0.7,0.9-1
			c0.5-0.1,1.1-0.4,1.6-1.1h2.4C565.2,92.1,565.4,91.8,565.7,91.8z M573.1,99.7c0,0.5-0.3,0.8-0.9,0.8v0.9c0.6,0,0.9,0.3,0.9,0.9
			h1.5c0.3,0,0.5,0.3,0.5,0.9h1.8v-0.7c-0.9,0-1.4-0.4-1.4-1.1c-0.5,0-0.7-0.1-0.7-0.4v-1.2H573.1z M575,113.8v3.5h1.4
			c0.3,0,0.5,0.3,0.5,0.9h2.5c0.3,0,0.5,0.4,0.5,1.1h2.4c0.3,0,0.5,0.3,0.5,0.9h1.6c0.3,0,0.5,0.3,0.5,0.9h1.5c0.3,0,0.5,0.3,0.5,1
			h1.8v-0.8c-0.8,0-1.1-0.3-1.1-0.9h-1.4c-0.3-0.7-0.6-1.1-0.8-1.1c-0.5,0-0.7-0.3-0.7-0.9H583c-0.3,0-0.5-0.3-0.5-0.9H581
			c-0.3,0-0.5-0.3-0.5-0.9h-1.5c-0.4-0.7-0.7-1-0.9-1c-0.6-0.7-1.1-1.1-1.4-1.1v-0.7H575z M576.8,124.1v2.4c0,0.3-0.3,0.4-0.9,0.4
			v0.8c0.6,0,0.9,0.1,0.9,0.4v3.3c0.8,0,1.1,0.1,1.1,0.4v3.2c0.6,0,0.9,0.1,0.9,0.4v1.6h1.5c0.3,0,0.5,0.3,0.5,0.8h1.4
			c0.3,0,0.5,0.4,0.5,1.1h2.5c0.2,0,0.3,0.3,0.3,0.9h1.8v-0.9c-0.5,0-0.9-0.3-1.1-0.9c-0.5,0-0.7-0.3-0.7-0.8H584
			c-0.9-1.4-1.7-2.2-2.5-2.2c0-0.4-0.3-0.7-0.9-1.1c0-0.4-0.6-1.1-1.9-1.9V130c0.8-0.4,1.1-0.7,1.1-0.9c0-0.3,0.1-0.4,0.3-0.4h1.1
			c0.3,0,0.5,0.3,0.5,0.9h2.7v-1.8H583c-0.3-0.5-0.8-0.8-1.4-0.8c-0.2-0.3-0.2-0.6-0.2-0.9h-1.4c-0.3-0.7-0.6-1.1-0.8-1.1
			c-0.5,0-0.7-0.3-0.7-0.9H576.8z M577.9,103.3v1.8c0.6,0,0.9,0.1,0.9,0.3v1.6h2.4c0.6,0.7,1.1,1.1,1.4,1.1v0.7h1.6
			c0.6,0.7,1,1.1,1.2,1.1v0.8h1.6c0.6,0.7,1.1,1.1,1.4,1.1v0.7h1.6c0.9,1.4,1.7,2.2,2.4,2.2v0.7h1.4c0.3,0,0.5,0.3,0.5,1h2.4
			c0.3,0.1,0.5,0.2,0.5,0.4v1.3h1.6c0.5,0.7,0.8,1.1,0.9,1.1c0.3,0,0.5,0.3,0.5,0.9h0.9c0-0.6,0.3-0.9,0.9-0.9v-2.7
			c-0.6,0-0.9-0.1-0.9-0.4v-2.3c-0.8,0-1.1-0.4-1.1-1.1h-1.4c-0.5-0.7-1-1.1-1.4-1.1c0-0.6-0.3-0.9-1-0.9v-0.8h-1.4
			c-0.3,0-0.5-0.3-0.5-0.9h-1.6c-0.5-0.7-1-1.1-1.4-1.1V107h-1.5c-0.6-0.7-1.1-1.1-1.4-1.1v-0.7H584c-0.4-0.7-0.7-1-0.9-1
			c-0.3,0-0.5-0.3-0.5-0.9H577.9z M581.7,145.9v0.7h0.9v-0.7H581.7z M582.6,146.8v1.8h3.7v-0.9c-0.6,0-0.9-0.3-0.9-0.9H582.6z
			 M584.6,129.7v0.9h1.7v-0.9H584.6z M585.4,96.8v1.8c0.8,0,1.1,0.3,1.1,0.9h0.7c0-0.6,0.1-0.9,0.5-0.9h0.2c0.3,0,0.5,0.3,0.5,0.9
			h1.6c0.3,0,0.5,0.3,0.5,0.8h1.5c0.3,0,0.5,0.4,0.5,1.1h2.5c0.6,0.7,1.1,1.1,1.4,1.1v0.7h3.3c0.3,0,0.5,0.4,0.5,1.1h1.6
			c0.3,0,0.5,0.3,0.5,0.9h2.4c0.3,0,0.5,0.3,0.5,0.8h2.7v-0.7H606c-0.3,0-0.5-0.3-0.5-1h-1.4c-0.3,0-0.5-0.3-0.5-0.9h-1.6
			c-0.5-0.7-0.9-1.1-1.2-1.1v-0.9h-1.6c-0.5-0.7-1-1.1-1.4-1.1v-0.6h-1.5c-0.3,0-0.5-0.1-0.5-0.4v-1.6h-1.4c-0.3,0-0.5-0.3-0.5-0.9
			H585.4z M585.4,153.4v2.6c0.8,0,1.1,0.2,1.1,0.4v3.5c0.6,0,0.9,0.3,0.9,0.9h1.6c0.3,0,0.5,0.3,0.5,0.9h2.4
			c0.5,0.7,0.8,1.1,0.9,1.1c0.3,0,0.5,0.3,0.5,0.9h2.5c0.3,0,0.5,0.1,0.5,0.4v1.5h3.5v-1.7h-1.4c-0.9-1.4-1.7-2.2-2.4-2.2v-0.7h-1.4
			c-0.4-0.7-0.7-1.1-0.9-1.1c-0.4,0-0.7-0.3-0.9-0.8c-0.5,0-0.7-0.3-0.7-0.9h-1.5c-0.4-0.7-0.7-1.1-0.9-1.1c-0.3,0-0.5-0.3-0.5-0.9
			h-1.6c-0.3,0-0.5-0.1-0.5-0.4v-1.3c-0.6,0-0.9-0.3-0.9-1H585.4z M586.6,148.8v0.6c0.6,0,0.9,0.3,0.9,0.9h0.9
			c0-0.6,0.3-0.9,0.9-0.9v-0.6H586.6z M589.5,149.6v0.7h0.7v-0.7H589.5z M589.5,168.4v0.9h0.7v-0.9H589.5z M590.4,169.5v1.7h1.5
			c0.3,0,0.5,0.3,0.5,0.9h2.7v-0.9c-0.5,0-0.9-0.3-1.1-0.8c-0.6,0-0.9-0.3-0.9-0.9H590.4z M592.4,231.7c0,0.6-0.4,0.9-1.1,0.9v0.9
			h1.6c0.3,0,0.5,0.3,0.5,0.9h1.8v-0.7c-0.8,0-1.1-0.4-1.1-1.1c-0.6,0-0.9-0.3-0.9-0.9H592.4z M592.4,241.2v2.8
			c0.6,0,0.9,0.3,0.9,0.9h2.7V243h-1.4c-0.3,0-0.5-0.1-0.5-0.4v-1.4H592.4z M593.3,128.9v0.7c0.6,0,0.9,0.4,0.9,1.1h1.6
			c0.4,0.6,0.7,0.9,1,0.9c0,0.3,0.5,0.7,1.4,1.2c0,0.4,0.3,0.7,0.9,1.1l0.9,1.1v0.2h1.6c0.3,0,0.5,0.4,0.5,1.1h2.6v-2.9
			c-0.6,0-0.9-0.1-0.9-0.4v-1.2h-1.6c-0.2,0-0.3-0.4-0.3-1.1h-2.5c-0.3,0-0.5-0.3-0.5-0.9h-2.4c-0.3,0-0.5-0.3-0.5-0.9H593.3z
			 M595.3,253.5c0,0.6-0.4,0.9-1.1,0.9v1.8h1.6c0.3,0,0.5,0.3,0.5,0.9h2.6v-0.7c-0.8,0-1.1-0.4-1.1-1.1l-1.1-0.9
			c-0.4,0-0.6-0.3-0.6-0.9H595.3z M596.2,263.8v1.8h1.7v-1.8H596.2z M597,140.2v1.8c0.9,0,1.4,0.3,1.4,0.9c0.4,0,0.7,0.3,0.9,0.8
			c0.5,0,0.7,0.4,0.7,1.1h1.6c0.5,0.7,0.9,1.1,1.2,1.1v0.7h1.6c0.6,0.7,1.1,1.1,1.4,1.1v0.9h1.8v-2.7c-0.8,0-1.1-0.4-1.1-1.1
			c-0.6,0-0.9-0.3-0.9-0.9h-1.4c-0.3,0-0.5-0.3-0.5-0.8h-1.6c-0.2,0-0.3-0.4-0.3-1.1h-1.6c-0.3,0-0.5-0.3-0.5-0.9h-1.4
			c-0.3,0-0.4-0.3-0.4-0.9H597z M598.1,265.8v0.7h0.7v-0.7H598.1z M598.1,277.1v2.7c0.6,0,0.9,0.3,0.9,0.8h1.6
			c0.3,0,0.5,0.4,0.5,1.1h2.6v-0.9c-0.9,0-1.4-0.3-1.4-0.9c-0.4,0-0.6-0.3-0.6-1h-1.6c-0.3,0-0.5-0.1-0.5-0.4v-1.3H598.1z
			 M601.1,202.5v0.9h0.7v-0.9H601.1z M602,203.4v3.7h1.5c0.6,0.7,1.1,1.1,1.4,1.1v0.8h2.5c0.2,0.1,0.3,0.2,0.3,0.4v1.3h3.6V209h-1.4
			c-0.5-0.6-1.1-0.9-1.6-1c0-0.4-0.3-0.7-0.8-1.1c0-0.4-0.3-0.7-0.9-1.1v-0.4h-1.6c-0.3,0-0.5-0.1-0.5-0.4v-1.4H602z M602,260.1v0.7
			h0.6v-0.7H602z M602.8,153.4v0.9h0.9v-0.9H602.8z M602.8,166.6v0.7h0.9v-0.7H602.8z M602.8,228.9v0.9h0.9v-0.9H602.8z
			 M603.9,154.4v0.7h0.7v-0.7H603.9z M603.9,167.5v0.9h1.6v-0.9H603.9z M603.9,230v0.7c0.6,0,0.9,0.3,0.9,0.8h0.7V230H603.9z
			 M605.7,99.7v0.6h0.9v-0.6H605.7z M625.9,109.9c0,0.8-0.3,1.2-0.9,1.2c0,0.4-0.3,0.7-1,0.9c0,0.4-0.3,0.7-0.9,0.9
			c0,0.6-0.2,0.9-0.5,0.9h-6.9c-0.3,0-0.5-0.4-0.5-1.1h-3.5c-0.3,0-0.5-0.3-0.5-0.9h-1.4c-0.3,0-0.5-0.3-0.5-0.9h-1.8
			c0,0.5-0.3,0.9-0.8,1.1c0,0.4-0.4,0.7-1.1,0.7v5.5c0.8,0,1.1,0.1,1.1,0.4v6.3c0.5,0,0.8,0.2,0.8,0.4v6.1c0.6,0,0.9,0.1,0.9,0.4
			v4.3c0.6,0,0.9,0.1,0.9,0.4v4.1c0.8,0,1.1,0.1,1.1,0.4v3.5c0.6,0,0.9,0.1,0.9,0.4v6.1c0.6,0,0.9,0.2,0.9,0.4v5.2
			c0.7,0,1,0.2,1,0.4v3.2c0.6,0,0.9,0.2,0.9,0.4v1.6c0.6,0,0.9,0.1,0.9,0.4v1.3c0.9,0,1.4,0.3,1.4,1c0.5,0,0.7,0.1,0.7,0.4v2
			c0,0.3-0.3,0.4-0.9,0.4v3.7c0.6,0,0.9,0.1,0.9,0.4v5.2c0.6,0,0.9,0.1,0.9,0.4v3.3c0.7,0,1,0.1,1,0.3v2.5c0.6,0,1,0.3,1.1,0.9
			c0.5,0,0.8,0.4,0.9,1.1c0.5,0,0.9,0.3,1.1,0.8c0.5,0,0.7,0.1,0.7,0.4v0.2c0,0.3-0.3,0.4-0.9,0.4v1.6c0,0.3-0.4,0.4-1.1,0.4v2.6
			c0.8,0,1.1,0.2,1.1,0.4v2.5c0.6,0,0.9,0.1,0.9,0.4v4.3c0.6,0,0.9,0.1,0.9,0.4v2.5c0.7,0,1,0.1,1,0.3v2.4c0.6,0,0.9,0.2,0.9,0.4
			v6.1c0.6,0,0.9,0.1,0.9,0.4v5.2c0.8,0,1.1,0.1,1.1,0.4v3.2c0.6,0,0.9,0.1,0.9,0.4v4.3c0.6,0,0.9,0.1,0.9,0.4v3.3
			c0.7,0,1,0.1,1,0.3v4.5c0.6,0,0.9,0.1,0.9,0.4v2.3c0.6,0,0.9,0.2,0.9,0.4v2.5c0.8,0,1.1,0.1,1.1,0.4v1c0,0.3-0.2,0.4-0.5,0.4h-1.6
			c0,0.6-0.2,0.9-0.5,0.9H624c0,0.9-0.3,1.3-0.9,1.3c0,0.4-0.3,0.7-0.9,0.7v1.4c0,0.3-0.4,0.4-1.1,0.4v2.7h1.6
			c0.3,0,0.5,0.1,0.5,0.4v1.6c0.6,0,0.9,0.1,0.9,0.3v1.1c0,0.3-0.1,0.4-0.5,0.4h-1.4v1.6c0,0.3-0.4,0.4-1.1,0.4v3.2
			c0,0.3-0.3,0.4-0.9,0.4v9.1c0.6,0,0.9,0.1,0.9,0.4v1.6c0.9,0,1.4,0.3,1.4,0.9c0.5,0,0.7,0.1,0.7,0.4v1.3c-0.8,0.5-1.1,0.9-1.1,1.2
			c-0.5,0-1,0.3-1.4,0.9h-0.5v0.9c0.6,0,0.9,0.1,0.9,0.4v1.6c0.8,0,1.1,0.1,1.1,0.4v1.9c0,0.3-0.4,0.4-1.1,0.4v2.5
			c0,0.3-0.3,0.4-0.9,0.4v1.7c0.6,0,0.9,0.1,0.9,0.4v8.1h1.6c0.3,0,0.5,0.4,0.5,1.1h1.5c0.3,0,0.5,0.3,0.5,0.8h26.5
			c0.3,0,0.5,0.3,0.5,0.9h2.6c0-0.6,0.2-0.9,0.5-0.9h1.6c0-0.5,0.3-0.9,0.9-1c0-0.6,0.3-0.9,0.8-0.9v-2.5c0-0.3,0.4-0.4,1.1-0.4V285
			c0-0.3,0.3-0.4,0.9-0.4v-13.8c0-0.3,0.3-0.4,0.9-0.4v-15.9H660c-0.5-0.7-1.1-1-1.6-1.1v-0.8H656c-0.3,0-0.5-0.3-0.5-0.9h-5.3
			c-0.3,0-0.5-0.3-0.5-0.9h-1.4c-0.3,0-0.5-0.1-0.5-0.4v-5.9c0-0.3,0.3-0.4,0.9-0.4v-2.3c0-0.3,0.3-0.4,0.9-0.4v-1.6
			c0-0.3,0.4-0.4,1.1-0.4v-4.3c0-0.3,0.3-0.4,0.9-0.4v-2.7c-0.6,0-0.9-0.1-0.9-0.4V231c0-0.2,0.3-0.3,0.9-0.3v-6.1
			c0-0.3,0.3-0.5,0.8-0.5v-9c0-0.3,0.4-0.4,1.1-0.4v-4.3c0-0.3,0.3-0.4,0.9-0.4v-6.1c0-0.2,0.3-0.3,0.9-0.3v-7.2
			c0-0.3,0.4-0.4,1.1-0.4v-8.1c0-0.3,0.3-0.4,0.9-0.4v-8.9c0-0.3,0.3-0.4,0.8-0.4v-5.2c0-0.3,0.4-0.4,1.1-0.4v-8
			c0-0.3,0.3-0.4,0.9-0.4v-6.1c0-0.3,0.3-0.4,0.9-0.4v-11.8c0-0.3,0.4-0.4,1.1-0.4v-9.1c0-0.3,0.3-0.4,0.8-0.4v-15.5
			c0-0.3,0.3-0.4,0.9-0.4v-6.3c0-0.3,0.4-0.4,1.1-0.4v-0.7c-0.8,0-1.1-0.3-1.1-0.9h-15.1c0,0.6-0.1,0.9-0.4,0.9h-5.1
			c-0.3,0-0.5-0.3-0.5-0.9h-1.8c0,0.5-0.3,0.9-0.8,1.1c0,0.4-0.2,0.7-0.5,0.7h-4.1c-0.3,0-0.5-0.3-0.5-0.9h-2.8
			c0,0.6-0.2,0.9-0.5,0.9h-2.4c0,0.7-0.2,1.1-0.5,1.1h-0.2c-0.3,0-0.5-0.4-0.5-1.1h-1.4c-0.3,0-0.5-0.1-0.5-0.4v-2.3H625.9z
			 M605.7,156.1v0.9c0.8,0,1.1,0.3,1.1,0.9h2.6v-1.8H605.7z M606.9,224.3c0,0.6-0.4,0.9-1.1,0.9v0.6h1.6c0.2,0.1,0.3,0.2,0.3,0.4
			v1.6h1.8c0-0.6,0.3-0.9,0.9-0.9V226c-0.6,0-0.9-0.3-0.9-0.8h-1.6c-0.2,0-0.3-0.3-0.3-0.9H606.9z M605.7,256.4v0.7
			c0.8,0,1.1,0.3,1.1,1h0.7v-1.7H605.7z M606.9,238.3v0.9h0.7v-0.9H606.9z M608.6,231.7c0,0.6-0.3,0.9-0.9,0.9v0.9h1.4
			c0.3,0,0.5,0.3,0.5,0.9h1.6c0.3,0,0.5,0.4,0.5,1.1h1.6c0.2,0,0.3,0.1,0.3,0.4v1.2h1.4c0.5,0.7,0.8,1.1,0.9,1.1
			c0.5,0,0.7,0.3,0.7,0.9h1.4c0.3,0,0.5,0.3,0.5,0.9h0.8c0-0.6,0.1-0.9,0.5-0.9h4.5v-0.9c-0.8,0-1.1-0.3-1.1-0.9h-3.4
			c-0.5-0.7-0.9-1.1-1.2-1.1v-0.8h-2.5c-0.3-0.6-0.8-0.9-1.4-0.9c-0.2-0.3-0.2-0.6-0.2-0.9h-1.2c-0.3,0-0.5-0.4-0.5-1.1h-2.5
			c-0.3,0-0.5-0.3-0.5-0.9H608.6z M607.7,239.4v1.8h1.4c0.3,0,0.5,0.3,0.5,0.8h1.6c0.6,0.7,1.1,1.1,1.4,1.1c0,0.7,0.3,1.1,1,1.1v0.7
			h1.8V243h-1.6c-0.3,0-0.5-0.1-0.5-0.4v-1.4h-1.5c-0.6-0.7-1.1-1.1-1.4-1.1v-0.7H607.7z M608.6,257.3c0,0.5-0.3,0.8-0.9,0.8v0.9
			c0.6,0,0.9,0.3,0.9,0.9h1.6c0.3,0.1,0.5,0.2,0.5,0.4v1.6c0.5,0,0.9,0.3,1.1,0.9c0.4,0,0.7,0.3,0.9,0.8c0.5,0,0.8,0.4,0.8,1.1h2.7
			v-2.6c-0.6,0-0.9-0.1-0.9-0.4v-1.6h-3.5c-0.6-0.7-1.1-1.1-1.4-1.1c0-0.5-0.3-0.9-0.9-1.2v-0.4H608.6z M609.5,101.3v0.9
			c0.8,0,1.1,0.3,1.1,0.9h2.5c0.2,0,0.3,0.4,0.3,1.1h1.4c0.3,0,0.5,0.3,0.5,0.9h1.6c0.3,0,0.5,0.3,0.5,0.8h0.9v-1.7
			c-0.8,0-1.1-0.3-1.1-0.9h-2.5c-0.3,0-0.5-0.3-0.5-0.9h-1.2c-0.3,0-0.5-0.4-0.5-1.1H609.5z M610.6,176.1v1.7c0.6,0,0.9,0.3,0.9,0.9
			h1.6c0.2,0,0.3,0.4,0.3,1.1h0.7v-2.9h-2.4c-0.3,0-0.5-0.3-0.5-0.8H610.6z M610.6,278.9v1.7h0.7v-1.7H610.6z M611.5,280.8v1.8h1.6
			c0.2,0.1,0.3,0.2,0.3,0.4v1.6h1.8v-2.9h-1.6c-0.3,0-0.5-0.3-0.5-0.9H611.5z M613.4,290.3v1.7h2.7v-1.7H613.4z M615.3,195.9
			c0,0.6-0.3,0.9-0.9,0.9v0.9h1.6c0.6,0.7,1.1,1,1.4,1v0.7h1.7v-3.5H615.3z M615.3,207.3v0.7c0.9,0,1.4,0.3,1.4,1l1.1,0.9
			c0.5,0.7,1,1,1.5,1.1c0,0.5,0.3,1,0.9,1.3l0.9,1.1v0.2h0.9V211c-0.6,0-0.9-0.1-0.9-0.4V209h-1.6c-0.5-0.7-0.9-1-1.2-1v-0.7H615.3z
			 M615.3,245.1v1.8h1.8v-1.8H615.3z M618.2,219.5v0.8c0.7,0,1,0.1,1,0.4v1.3h1.4c0.3,0.1,0.5,0.2,0.5,0.4v1.6h1.6
			c0.3,0,0.5,0.3,0.5,0.9h0.9c0-0.6,0.3-0.9,0.8-0.9v-0.9c-0.5,0-0.8-0.1-0.8-0.4v-2.4c-0.8,0-1.1-0.3-1.1-0.8H618.2z M625.9,237.4
			c0,0.6-0.3,0.9-0.9,0.9v0.9h2.7v-1.8H625.9z M633.8,98.5v1.7c0.6,0,0.9,0.4,0.9,1.1h1.5c0.3,0.1,0.5,0.2,0.5,0.4v1.3h2.5
			c0.4,0.7,0.7,1.1,0.9,1.1c0.3,0,0.5,0.3,0.5,0.9h5.6c0-0.6,0.1-0.9,0.5-0.9h1.5v0.9h1.6c0.3,0,0.5,0.1,0.5,0.3v1.6h2.6
			c0-0.7,0.4-1.1,1.1-1.1v-0.7h-2.4c-0.3,0-0.5-0.3-0.5-1h-2.9v-0.9h-4.4c-0.5-0.7-1-1.1-1.4-1.1v-0.9h-2.4c-0.3,0-0.5-0.3-0.5-0.9
			h-2.5c-0.3,0-0.5-0.3-0.5-0.8h-1.5c-0.3,0-0.5-0.4-0.5-1.1H633.8z M644.2,97.7v0.9h1.6c0.3,0,0.5,0.3,0.5,0.9h3.5v-0.9h-1.4
			c-0.3,0-0.5-0.3-0.5-0.9H644.2z"/>
	</g>
</g>
</svg>
